<mxfile host="app.diagrams.net" modified="2022-10-27T19:56:51.643Z" agent="5.0 (X11; Linux x86_64) AppleWebKit/537.36 (KHTML, like Gecko) Chrome/104.0.5112.101 Safari/537.36" etag="SCtwsxKWzAk73IdQueV0" version="20.5.1" type="github">
  <diagram name="Page-1" id="c9db0220-8083-56f3-ca83-edcdcd058819">
    <mxGraphModel dx="1422" dy="700" grid="1" gridSize="10" guides="1" tooltips="1" connect="1" arrows="1" fold="1" page="1" pageScale="1.5" pageWidth="826" pageHeight="1169" background="#fab041" math="0" shadow="0">
      <root>
        <mxCell id="0" style=";html=1;" />
        <mxCell id="1" style=";html=1;" parent="0" />
        <mxCell id="GYSKJsF4s9RLotlX5QOW-1" value="" style="html=1;shadow=0;dashed=0;fillColor=#FFFFFF;strokeColor=none;fontSize=16;fontColor=#181819;align=left;spacing=2;spacingLeft=55;imageWidth=30;" parent="1" vertex="1">
          <mxGeometry width="1240" height="60" as="geometry" />
        </mxCell>
        <mxCell id="GYSKJsF4s9RLotlX5QOW-3" value="Datos&lt;br&gt;Nombre de la mascota&lt;br&gt;sexo&lt;br&gt;raza&lt;br&gt;edad" style="html=1;shadow=0;dashed=0;shape=mxgraph.bootstrap.rrect;rSize=5;strokeColor=#DFDFDF;html=1;whiteSpace=wrap;fillColor=#B36E07;fontColor=#000000;verticalAlign=bottom;align=left;spacing=20;fontSize=14;" parent="1" vertex="1">
          <mxGeometry x="980" y="370" width="250" height="300" as="geometry" />
        </mxCell>
        <mxCell id="GYSKJsF4s9RLotlX5QOW-4" value="Imagen de la mascota" style="html=1;shadow=0;dashed=0;shape=mxgraph.bootstrap.topButton;rSize=5;perimeter=none;whiteSpace=wrap;fillColor=#ED9410;strokeColor=#DFDFDF;fontColor=#DEE2E6;resizeWidth=1;fontSize=18;" parent="GYSKJsF4s9RLotlX5QOW-3" vertex="1">
          <mxGeometry width="250" height="180" relative="1" as="geometry" />
        </mxCell>
        <mxCell id="K6XgrrVtK3mDi8RKVAya-9" value="Medicamentos recetados" style="swimlane;fontStyle=0;childLayout=stackLayout;horizontal=1;startSize=30;horizontalStack=0;resizeParent=1;resizeParentMax=0;resizeLast=0;collapsible=1;marginBottom=0;fontSize=28;fontColor=#000000;fillColor=none;" parent="1" vertex="1">
          <mxGeometry x="20" y="550" width="320" height="120" as="geometry" />
        </mxCell>
        <mxCell id="K6XgrrVtK3mDi8RKVAya-10" value="Medicamento 1" style="text;strokeColor=none;fillColor=none;align=left;verticalAlign=middle;spacingLeft=4;spacingRight=4;overflow=hidden;points=[[0,0.5],[1,0.5]];portConstraint=eastwest;rotatable=0;fontSize=13;fontColor=#000000;" parent="K6XgrrVtK3mDi8RKVAya-9" vertex="1">
          <mxGeometry y="30" width="320" height="30" as="geometry" />
        </mxCell>
        <mxCell id="K6XgrrVtK3mDi8RKVAya-11" value="Medicamento 2" style="text;strokeColor=none;fillColor=none;align=left;verticalAlign=middle;spacingLeft=4;spacingRight=4;overflow=hidden;points=[[0,0.5],[1,0.5]];portConstraint=eastwest;rotatable=0;fontSize=13;fontColor=#000000;" parent="K6XgrrVtK3mDi8RKVAya-9" vertex="1">
          <mxGeometry y="60" width="320" height="30" as="geometry" />
        </mxCell>
        <mxCell id="K6XgrrVtK3mDi8RKVAya-12" value="Medicamento 3" style="text;strokeColor=none;fillColor=none;align=left;verticalAlign=middle;spacingLeft=4;spacingRight=4;overflow=hidden;points=[[0,0.5],[1,0.5]];portConstraint=eastwest;rotatable=0;fontSize=13;fontColor=#000000;" parent="K6XgrrVtK3mDi8RKVAya-9" vertex="1">
          <mxGeometry y="90" width="320" height="30" as="geometry" />
        </mxCell>
        <mxCell id="K6XgrrVtK3mDi8RKVAya-15" value="" style="ellipse;whiteSpace=wrap;html=1;aspect=fixed;fontSize=13;fillColor=#FFC165;strokeColor=#d79b00;gradientColor=#FFFF99;" parent="1" vertex="1">
          <mxGeometry x="530" y="375" width="310" height="310" as="geometry" />
        </mxCell>
        <mxCell id="K6XgrrVtK3mDi8RKVAya-17" value="23 horas" style="text;html=1;align=center;verticalAlign=middle;resizable=0;points=[];autosize=1;strokeColor=none;fillColor=none;fontSize=30;fontColor=#000000;" parent="1" vertex="1">
          <mxGeometry x="620" y="450" width="140" height="50" as="geometry" />
        </mxCell>
        <mxCell id="K6XgrrVtK3mDi8RKVAya-19" value="Tiempo restante&lt;br&gt;para siguiente dosis" style="text;html=1;align=center;verticalAlign=middle;resizable=0;points=[];autosize=1;strokeColor=none;fillColor=none;fontSize=25;fontColor=#000000;" parent="1" vertex="1">
          <mxGeometry x="560" y="550" width="250" height="70" as="geometry" />
        </mxCell>
        <mxCell id="uKpJREMfbgheDncflp7p-1" value="mapa&lt;br&gt;" style="whiteSpace=wrap;html=1;aspect=fixed;" vertex="1" parent="1">
          <mxGeometry x="860" y="685" width="380" height="380" as="geometry" />
        </mxCell>
        <mxCell id="uKpJREMfbgheDncflp7p-2" value="" style="image;image=data:image/jpeg,UklGRo6AAQBXRUJQVlA4WAoAAAAwAAAAywQAqAQASUNDUKACAAAAAAKgbGNtcwQwAABtbnRyUkdCIFhZWiAH5gAKABkADgAJADdhY3NwTVNGVAAAAAAAAAAAAAAAAAAAAAAAAAAAAAAAAAAA9tYAAQAAAADTLWxjbXMAAAAAAAAAAAAAAAAAAAAAAAAAAAAAAAAAAAAAAAAAAAAAAAAAAAAAAAAAAAAAAA1kZXNjAAABIAAAAEBjcHJ0AAABYAAAADZ3dHB0AAABmAAAABRjaGFkAAABrAAAACxyWFlaAAAB2AAAABRiWFlaAAAB7AAAABRnWFlaAAACAAAAABRyVFJDAAACFAAAACBnVFJDAAACFAAAACBiVFJDAAACFAAAACBjaHJtAAACNAAAACRkbW5kAAACWAAAACRkbWRkAAACfAAAACRtbHVjAAAAAAAAAAEAAAAMZW5VUwAAACQAAAAcAEcASQBNAFAAIABiAHUAaQBsAHQALQBpAG4AIABzAFIARwBCbWx1YwAAAAAAAAABAAAADGVuVVMAAAAaAAAAHABQAHUAYgBsAGkAYwAgAEQAbwBtAGEAaQBuAABYWVogAAAAAAAA9tYAAQAAAADTLXNmMzIAAAAAAAEMQgAABd7///MlAAAHkwAA/ZD///uh///9ogAAA9wAAMBuWFlaIAAAAAAAAG+gAAA49QAAA5BYWVogAAAAAAAAJJ8AAA+EAAC2xFhZWiAAAAAAAABilwAAt4cAABjZcGFyYQAAAAAAAwAAAAJmZgAA8qcAAA1ZAAAT0AAACltjaHJtAAAAAAADAAAAAKPXAABUfAAATM0AAJmaAAAmZwAAD1xtbHVjAAAAAAAAAAEAAAAMZW5VUwAAAAgAAAAcAEcASQBNAFBtbHVjAAAAAAAAAAEAAAAMZW5VUwAAAAgAAAAcAHMAUgBHAEJBTFBI6T4AAAE3pKiRJGWZnwf+9a6BiEjw9wed+NQkrhEzbnMgt5HkSKqILP+drupRJ94RMQF1X7VeZpx94X+cq+/8hnm+ch4338nT9VH9hq1+QI16QfWWa7wG1k0ZrdZtr1WNeYnxpKX1xdRXccksr9hTD1e1ylIAjXtpEtW4llWVxItVqqDZtY75TYE7dXkDoswwuwNJ0qv2XLgbusPeK5Bwrzs76ZgkEK4mAzohIaG7x4/FlVQ9BDACnQl03T2QsJ54jACZ3M6EQFUyIIlLXVzWetN3bdtWa9u2VQQfBALDAlmBE/igv+EB4/U1/yfZ8zmmOk29q+QHahH9l8BIktw2PTPY01H+ncSf6OORphFdAwA9aiNbPNR5K0DIOY4neJzHs96c8ypnyYqAyBmRhMgidf9wBbq+qmqO8Tnn3oj+y6JtK26bI7t2Ejf1QwgxPB6DRT9oOaAjt5Eo1Ycg6AADCPM93zrE6A6a9QKD0ezLBVQH780q8vGR5STdEf2HBclWU2mep66yEbxgQkE3fNC2bdu07eySMuMV2zafnCfbtq9t++bLtXfvbcw5dlk3GRH9lwVJsts2LSdSGQfIEYDS+EOubVvH9iBvFduo7DLjvY3YNrqU1oX7zXPmfp42ov+OHElyIl4AQSew3hzr07v2/bjqJ17X5SCex/mpWG7rlh3ccbKuyZr50o7nIyGY8JSgS7cdIZ5zIoCX09bKhhfPEGDBS2u/97HQr8X4jPhJNH1iZ5yXeA6Gf1/27cnon1h4mxqD5u1ANxvWdl+WV+/njnjzWmx9f6Pr3qIVsnBPhHWgLfLzV69F1acg0CD5tKdLOrzayq+ro12yZ0+GdaBx8mQrxRpooLzYSrEGGikPtlKsgYbKe60Ua6Cxipl4+tsUo71yWyvFGg80WYvRejOsE82WvZJM3kx1EkjP2t8YWzvt55BxZfxLWu8Xiopxx5cNphiN12r17e7iZgZd8sX4ukG8RN2TYB0bRKAtn3qe6rfcA0FIx9cProcEaUixrRRrQCJSaivFGpCKFNpKsQYkoygLoMtWijV2SEeHJHszrHOFgHQXY2+IdQI5ZkhJAkyQGXJSlAW4ia8VYp2QlUSXIDOkJcElyAx5SWwJMkNiElqCzJCZRJYgM6QmgSXIDLlJXAkyQ3LSYxLp+w8/RAd2XdUY64LwJKkEmSE+RVkAMSXIPCiQKckqEGUBZJQg86RDpiSrQJQFEFCCzKMamZOsAuJJkBmSVJYhnASZIUtlGaJJkHlRJnOSVSDKAmQZckmQedInU5JVIMoCXPKASHXBAzLV5Q4IVRc7IFVd6oBYdaEDctVlDghWFzkgWV3igGh1geOuWrYkq8DlDQhXFzcgXV3agHh1YWNTLw811CArtygDAtZFDUhYlzQgYl3QgIx1OQNC1sUMSFmXMiBmXciAnJVlkJ8g86BoBuZrkBWIWlkG7Qky36IMCFuUJ8g8RRkQt6IsQJZBdoLMkLiITpB5UjkTyzXICoQuihNkhtiVZdCbIDMEL2oTZIboRWuCzBC+ZJUQOZQNNumDVVXHw0KCHJcLO+Svw2UzBDS7VAwAC+iminbyzAPVDhtoZ/EBpVgTZhB9CTLDEKIuQWaYQrQlyAxjiLIEmWEO0ZUgMwwiCtfDnVc3CoVNRFKCzLCKCEqQGXYROQkywzIiJkFm2EakJMgM6yjKAhCZNBrlxgwDaeZzeAcJNGbHAy4SC/cjxwwriYAEmWEnNT9BZlhKjU+QGbZS0xNkhrXU8ASZYS9xmMTZNpQdQeYFFtPc674Quw5spiYnyAyrqcEJMsNuam6CzLCcsowoC3BLsgBRFqClCTIf3uNIsgq0M0FmGFBRFiDLiLIAbUyQeYgyYERFWYAso4EJMsOOyjKiLECW0boEmTdPcu9bDbKyu5K9azXIyoEkMz5kcEuyANEPzKngZ3Ena5JVIPaBQfUBFlhUH1+ZPcqYZBX4RhzYVN/+c2GKwacMSVaBb/8p/5X/yn/lv/Jf+S9IePiULcvG5PLtP5nC5lLuWbZdAR9eOTzKkWXb4PrxldGiGxWQZfOi8bGMLJvfqY9lfCybp8Ysm9fZj2V8LJvT8UoyV/xz8+Ua05KsVNMYf7Vc6JCom0lrck0k6BxlO3KudT8mgZaczdkgK1VB5ooyPtXuV/OqKEsdVhy1XpCVSrKDneIWZQehx6fbYzamyoMJMtdlgfJfgsx1aaC8l1dkA0yZEULHPgXSClAAFbRCI3wMWGiMwWPQQiN2gC01MsfIpUbgGLzUSBvjdxgqar667fSwBhQ0ReQV2eCm1MgYOyo1EmbIocXVnz9zvhToUiNvLPKKbHDY++EpWOyz0IgVey00Yos1aOyj0IgZey405jyx7zKj0sQir8gGT0VGwJhBkRFFzCc+EdPTm5GeIwa89EbydHk7irBmi1EfMEGvSpkwNhFaX7EMdPrq3+3jvduAMYtUUjrNZ8CgDWN4OCD6VJkyXwCHSg6vZRSfKnM4r6oNqTL+TD1V2WPDQbUrT759uy6oQ2WGw1LXZHrqMXy3tlw8GcSD/eVzY96v7RZknlydx54MRsjkyEO1oJTVslVnBslgpzl8NGcJBYNkcGeTb/oL3nwWf8SCpaMok20jME6Ul/N42zZZcMzZLGFgIQ8qCuw+YwOwvmMbLOjm9iOPXeWAhSbzj7DFgClkajve/RoivRV86sfIAAsr6qy/acPAQoIJggCwpx+0Umt2tyMK7Ck3Lx5wv8UToo8YYH5LBOSAR1+/vyvt31jquDuATcTXW0QQGZtADQ5Y6mzagkMDoAs2KPKYPTGUm3KR3amBKOB6u8vEm8YaIwamt7hDYIkAi1MkuZSTgjQofOQTGN7i0aqwtEdG8sOoeAoragIpG9U1QQk+gTD7f1jI4hIxw+Kk9wbYQqE6DPC6xTlF/wNTxqr01Qt5nYaYXO88m8qmUP6pXAYNETjd0smUd3L7ys8uBqsWPncBtmCN1vtIR1PGCgZFDZdbOLM02eawaJuJNKLNUCYvnqXJ0IDoTXvcwpFLFfSH8kxI6n1EFX9fZ3FtYXk2zSgvMdYFh561uMUzkzna0w637246CQZ5k5wvLL/DDxUebWvw4rslSEFlevYLdPvuRQHMAUgqPsq271bA250iAWhqj/SrKqoDFlU13sW/37l3fHa5AUoqPbu88V6Lfnvpd7R4txBo2sa7NICw10aF6j30Wz4gXluaMbWtd7Hvj5ybvUwsBnfVedM/6rTJi3O7txakVTKjuzf5RXywwtuuQrwsqtm/NVNs1gRDtdntM539G2Yyl1tuqkV2wkz+d2LirUkh3jZYqf1wXyQGKiazBvfUaivMdvJX/cNal1W8m62Vuu+i3m48m5SdALil9ruY9w3HDkuob7nzt1LTf6hfh+4tz84Vt8bb7yLe9xw7KFlhof6751s3uOvYjOWWEUed3B504d3ihYGBReWO+l8aHggC8QMwiMeudr+MwOpiwC03N8D7WDLCDJNqzWMx4H5vEdSRXzMIU0O9YsfjVgX6ZjeMtA+HkazIWi8Enq9QD/vQevrXG1p3/QWIk4JQeSwKSq93PMGRWzO4MOqOyqMxEsz6KDo8uTU3e3wp87+HBhfnVvHqWIT5kc+0CLgOYeMbIutsm4P1CL/8n59XKxbKTPkPAteh5tYc3wm9xst4AiQce3Dnvw5QPugyimHWKwm3r680HEh1X/BKQPn48UJQha7by8ZRoUfyqCBFteJDECqMHOJ+S/Ft/d1g/DXiQsgJfrj0gdiemsXhilvW3/hWjZT+os0iDoqudpIIs7ZMncFcSyMI+TB7eHKpBGGuKvbQ5NIJErhQLLmUgvAWgiXJpRWEtHYESHKpBaGjRSn2CHDk0gsSk5hBdk0fZ5Rp4ucOFoJp/46ezuIeB17t4wQbEIZTKj2uIh8Wbp0w/NJP07J207WDTETVhYg0n5rHP+CeR2RntKhwTghoNPmEAsD2a7biAm6Tw3OVCMA9gMnlqNraWfB4kodN8GgGtY4P8Km6KSDcil2tvKH7YwUlLQv/9rKKUS/n5EGrhYlQQNagBKjXUCx4Sh4Am5nlOfN8Pag9MHRl5xyHlrWsa5kCWHArnrVAL7NCLW4Ki1YJstAWVEwOin+JIt7ZY9dt7pzvk00UKDTxcTcBfVyvYopRdDJHZjSFZb39qxVrJ9h3Vul2q5opzCOXP6TT0c6MDAah9YxQ1SPSDuXE6HA7Q0SaCQlvD/Xh1OuT7ZW2TonX3RZyUiGSSQbEQ7Is9Yj06uCxZy9ynWhe9Kgv3CHXaTPGjzd1keskQF/6ke5p5Dql2aVy0MBLS6sNF4dwwVqV63SzjyZR7WZmyEnwl8CtzwypdU8ArDax7Gbkul8TSjXgAJaOWlLZAAtg6Ihe/byQAnegiQuFhC33ks4Ff7ZUL0u1+zbHjQ6u2CBErbg6pJOtbnc7k5uzGuo5hEJqhWQSeJhoybaheqopvg2G1ArG3stS5s6aQ8JF1pzCIbUi7UDrY3sD1GslRMI7BfKMv9ycEBGp1RrpLKm1nafUWx+8/GZ97Ryh453P+vID52Mp8rar7Dn0P0r245XfQjsYqnc579z8F/5LjaFIeo9No5ZpIAhd737u5cNzmJ5tEvMAuJfmR9zuanuHdLWJIfo9ZgN+QX9E1+AI8Oup0RFACHGKcRbpEUAEcYo3dUTS276zR0gA8vsANTvKAsgust4ksb7HK46cAKTHK8ZpxEmAKAsQZQHIjlcMbljES7wzljy4yQiJ6/Y6DAT1OaXrxO0Q7nq84hPfmc6WAD/ZfUiXAD9X8oUoC0BvrGKcx9pzDr1zfO3bG2lUgSgLQGs2zbP9BAmaCtAaoxgnctfJfCbpbpJVkUsViLIAr5zEIcoCvGxCBzpjEt/PTTrxYCkeMTjK6ACGV8vW+mqRgpNr+BBlAV4r2cTEUx4u4PE6b2RUAFXgdZJBvCpTrSCKITCUTTy4yuEErkjqs12g0I/tyUknjnMTT3SWNi+wW7JVGtVaDVkroBgU3y2h0FNG0Vm6uYHBhiKimqMoKcmonEI0HqNNkLFVkFGVTShnzEoyKp5QzZmVWNTz02SfWdSzvalF1TPJKJQy6FSZhFhE79Mysx/OoNuvyYx8CRP62L3AUUlWKsrgcJmbF8XBefuHsWUmXBQ0J7j4iak3A437hmF4nD/p+Fjm4kVJct5k7P8yDy/KlvNYar+X5deiHWbTo7O7v9Z0urd57MZmezf3YnDunV/N+KvBSon3d9iHqfm11tl9LRrpuA0SvLd73jdORgTZT60C/AyDxE0pby1FR/53GfdTMsGL5PYN1D2zzZiFTinuk6pbPxzJH5Jka7X35P72g1bGRSmye9sf9SsHRamxji6pKj4qS3l1TLTc6mWQllr6EhF0WWdMPmFYyUhT97bVw8nMg5o1dft3itaqEFdqqqmDpRXErFHVdAeU1MHUuq4CS04RdcxsrbYvruTst5bn0H/+MvtT2eK61I16hv6ykLYu5dgSVDd3jp7rDMxhOu55HyY15IhwDTUyp0nScn2hdQA8jyFTqNcFjKwl1FVSNIzUdpFnLuTR8hOyztFGRI7StKuzKWfOAjhW4szRPbDFtnE0v/V/Qtc8Baw0jznnaM9ujhK177OZknNAlWvWStExqtylano2wVyEHPnIQ+EdOEpRTSW+za9lICT+Tgt5eywf4aXrmJXW5WIPmHnf3lmCmuHZWFCQW4JN/+bAGOv7LwlqnX2JsBsO+elSXOF++mOIIWOXbt01hPiM3/PT3YgALk0R2NjcqtuqBjlb8ut76jVIxvQD6FWbNjWinCv58j3ea4eex6LpgFFybnb5jLL3J2doY8gHpQJIRcRuyvSrEefViKdMOh/4gRveG+pgRxR61tgDnSe56RwOpQtX091Nj/QIYPrWCHWWJNb72NUd8VLgB3hefmKyTkITOTmbcCGWKL/aQdqmJeuEm8x57AsjJ6+bUPq41rmrxzs78uN+Ea6YzDxOl8tmGwkRz4ycux+h8zpO956057N99yHmWZGSVmWj7mm/38+d0VsZm6NesCSkcdkt9J5glEz+xly62RZa4LMh0B8EdgI2alebmF0dFxH9uZnJNE9VtoaP2pDVvpCW6BcpnRiWyZyN7Rp3F1W9by1ZWPifGXg6ZNPW8OkgxrnCRWVo6rC79zRs7bdg2z5ykK8L1FxJ071dnMH3JMntWGDHIxKSrQ+I2ZOw21cfjVf/8jDytjfCqCTsLuMMM0b1TOO0XZ8qMJfIssmcoT7pl2n95MJzzkWRCV8Y4m3LquSnElglr+GnrqeWG/d0rbEOtbyOr1pbEI+Ojz7LArTz30AGUZYWi8pb6STF9cCc0tHGo2JLy/4/f3HOFWX69p/yX/nv23/Kf+W/8l/5r/xX/iv/lf/Kf+W/8l/5r/xX/iv/lf/Kf+W/8l/5r/xX/iv/lf/Kf+W/8l/5r/x3GQYQ594nz3P4v8F+ducwnRnZtr33v0sAdNxA8s031ZP41Y+/nFd993riUprmoAh6gfk8mNpPVlu9kTW87DTLqWAh+YfX97kdGOaCu/acOHPwwB/3TG3l5/Prn3/9q75/PYWpS7MrBIGEPInULm3i1qkmPwbYXBgwPOHdn9/xQVvJN7///z6GoQBI2dp6fRdFaQ6JIJwycNq0DbdRLfKIJTyApfLkd3vqi7aKb2sNB2xTrg21ae3+WpJmVwgiGFvNXvJcsm2VQy+Y7xTHKN65r9pYpQkcX8dVpDkiglzJ5VTfZts6J6YvwJLzOz3zcRuqUwL71nMFaXaFgHzoQc9m3Zp7Rk/gmPJGD0xDdUBgy7queZqjIQi+vM3b3Ns45TPA2yW90W/aSG0Q+GVd1z7NrhAQ11rTFtj+biDFZ5vE7mmkUpSrRyqHYAqrKbRPczgEmYw7fVuCJwZBSIbGyasHCmIEtiYQ4FzQ/nHq/rx9ml0hoO2du0OR+wUaECa+0TsHyvMnAhta/n70uXBp26+nLu3T7ApBqLJPwYAckUdH6pcEXs3eNU+S15lJ05j2aXaFgLSDrvdl7qN7HnYeGal3BF5I3TWB0PnVkf3fI8e7QkD6CzVtGSro+ZL54nsCz2Tu97TFCef4rx9fYN4W4gQ8XzAv8Twm8HDWrnma7DmluL5uvAT2pe6XcxKlyyM1T+CulP0oEKoTco++bvwif1eKIkpo/Y0Ujp25MWV7F7VIOeFfNXR0IWpWrNAspfPlhkW8cvjATJoTYt2poep8EZrnwPL0pyDNvhAQZo7+G8eVyHd4c/M9/ZiodJ1oedm9/5mP21jVnM1zrOcq0uwJAWV7Sv77+Q0Eh8xf71667lBFm9t6yfmv22Ks8o7sXc8VpNkVAspu2qAWKOwikGy0HpSs2+yCueGiymROf9kWgxV3Ns+xnmufZl8IGPMN8d5aBXLR/EZhdNNuGnIU459OSDaf3/lhW4yWs/mWX9Zy7dMcAkE2XYJG/4Yb0p+U+Wo1QiC4a++Js4cO/uUsDMO142yeYy3XPM2uEJD20nMae2B45thrX2lp8beOZRBOFcytefQVoy0730BEOw8W0xfcIcKIgfO3N7Q8+nqxfUd73AIOA1bwxYPnrwTzHPOXXwlWmvjy4bfO5jlmMHES2S9EfnI2zzGDyRLtbnwZ8qOzeY4ZzC6Jd54vQ547m+eYwRyS+PYLkfvO5jlmMEckXkxbYFr1fcUnYp4DpmsnXkocg+jCfKf/H58+bqhlvo9V3SPxk6pe9fzbcy+mFM35139MFqP5Wqc/ssb9TqOaOs7FPz1l2pNAdh059wWn47/vQAcZRLn/U7QQKTR7Q2vU71TTwWzkpwdafCQYuK+gG/P4ifeRbLh43h5Yg85FJfk5Ff7Rx71b31rKnqlvqfTAvOpIgHPv4oXEebtvjQedWvY4E/rei8B3aAoE+YAYeBfLnZYa3eG1Q+av/OtLH4KGUILsHlfdIJEEFUZciTomYgop/0O0XCeLOMimD+bMd6OXaphkkyN8+Ew0JPcfM2MBVTMAfYf5CrG5wHL0Ww0/+htNpBjwtZZM2tDYU3gPMrkxaadmc4ccx/fT1gOSFnvojiJF2H4zQbD7kYsRxUJEJRRAYDo0WSTdcwixt1MFikMO67EnCOKhBNk9rpoi0UatfAcC6D8utsybp6qe+A13I6wPiMGW1/xIXL20SVTRiTNTBRsHn1LomXUYJL/vlf7GXJdEh8t7+Vokdk0r1+3m2kY23UvHXpDGKPlQ7qERowO4Ux7TpcrcZzo0WSQt4aSqm9GOgQyNoA+EQwmye1w1TLVUO7247VXzXPbEe7l1BMOuiNC2hKmzwwKx7mx3BZyoc/UuCPBzncEBW5lN2SeY5qjtS3eWoM1t6xTwuMnQREX8LoJSCA8j2KqaCfVeD+NbPcyDueTA1BkjXhCF7B5XfU+MgHinHK/rrG2H5s26FogFGtY2SARIY+c3C1zZHrBR5XLB8wPJJ7A2kksPYoPEkZH5lmCHxxUH6WXQieHhAr7k2LRzAXqwU3izO1AcAVn7yrMKQnaPqz4ivrk4TDf+zHx0DU9NvBEsdYj7ZtEsEnlo0wiCVGFAdMTZOa23kg9ntPDiDk//RoipYpNU+gWfK/bDXlAI4+HA0aedA1BE239tV4KrBcrcEshBdo+rInHPW59hqvGI/fiqr5ncdojn8IxRwnpjSNyZKGdFlHX7peRf3KH23YEj8C2SCAP9lJQZ83aDZB304XgYwF7fNqSBHkXYIYBVvpNCawPEILvHVbFMjeJvwjQDy+w7sbdtcotxn0NgsUk8QhZBKMnZtlnp+ER/XKdFMJGBe6QzRt9PdsbNFrd/GJ5gg6E81E4+mwfSh6CK5sJah9EV+9sgBdk9rgoRcobeJkwzsgI97jCJ32KNWICwDLxty/fXhO6rxndVViThiCbJDjBYf2MskwE8GQkEfdm3GovlIbYxMM+XQI8qbJvXxw53QQiye131kUUOZ3dgiv01w9Xtwx6/hTWi9y8guTRRU1YALDZsZnZAuJ1QEnk0xtsj7cO71FLllC2y7X6nkWgeK5HYjkAZFv9RJ/PXyO51VazTw/AjhKml1zYn0bOr7qrB7ZCcFqG9x62RgLarVLRWkbqhYcS/NycSi8wh8YRQsIW2A+82EM4DpYUeVX/IHHUiem1k97oqhA3eW2oRphV4LuHQZ8jdU6T+CpCKCDq2IpuZsGdzEwePQj3d0HXRFvcOtmh52LBUkTsC9r/dODwPkmNwOXYVRSC751XnBmYFSVMKkHH1A4OHpRZbyIglYlHAstQj+/esR+K2LtLkHlWaZdbbFEpIi3VVJI+A3W81CtFjaTKPbscOgwRk97wqxI3yCsMI06nu1LcyMWCfgZfYGhtqqpmWz4wMW2XQlNl4futrbXq6hkVLmOOqNgULBdkjYMtEIXpwnID7Ga2DQN0psntfdX5gduRuIrgW43UpYjqOu/8LQ8dCUdi1qMkWqehZxQRDJWBteroZNCJwSas2ZV7tXSblx2B6ULTR437sAgpAdu+rQtgwqE0twzSiKEIL2QO0GjrcV3o2NRAS4s6YvJ9jmfCvfvr4y9/FMsHqxEC7H1BgcGiHdnj72IspDkmPx7Y0Zz5qfm83rqAeRCQepwHjTeCH7D5AFU2Ve/shL98Tf2rh9hZRbp/jZEIJYPYs+bvX3z17EPD67zz98TeJSostp8ApfCRa3IgAgwJcnUk5l/H4HsbuIsKEeqTzR9nGRGM68g919k5VtpkKcWF9aBK0ZUOvHs1fe4k34WzBMsgQnv7FZU/+7earpZZU5D1tOzKpHiJUM4dPAr4HLz4ma/2bGble8qGphnou9N0Dn//uN+8jxaZRpj9/KEF2H6AKmyPjuPkhArs5t4U93XjuXXv7QS3+w3VlcUfJd7NdKiWjXNR9y9iEGiSJqsyrIBae5Wh01oBg6Gu/egMVY7yCI2Kk16Sfllx51z56Qucy8QgdjB/ej7YN0j2A49myHvw0DibIBDgfbtzIlSAfmjoY5HeuHHGSUHtnY3Lk9h5/KEF2T6syJgIa/MYhUAWtb2iEyEbmAAOJEfHY8fMb3Wh4TYsIrD0Q7H4QNWeQaNmlPrmgU52ermVQRo5lpmpTkCD76qgfSPZ+etQ0x7vNDvYgwVlIB3jQ7nrJh6YKBqkVggHYLbKmagzYQwmy+whVTHNU9N1HmCbAx+8QTGv+kXtLyV2/MwGG5iIj4JHjgtOXA4bHKU7YM97oEsH6mEe3DtapiYnzNeAd7dWmyQ724KW7Sdkv3megmLM1BNIhlCHnU7NDdh+hCgt5Fg3szwjuRMrwhcNpwzCvyyyBb+3AzR13QdY7FGRI4pGBo3z3FJT0vbJLNt/LVvjYv8um62fn6fmXgKfEuMINbrIHFeYehqllcEyOkC1Qo0SP2BG7x1W5NYCq2wiuwnhY6VKoGZ7iQsQsyiUwqObUWgJBvLY7e6aKac5Ysr/No+kFewJ1wiFMrU1hRntQMKof5Co6BrkSsFCjDs+GG7F7XZW76q9VWINpgORBdN80BkHX9YATsqaAaMyMRI4FlXq6FeSrvT++5a8ZSpXLJkEV/Yx06moz2oMOrWexrqK5AkYJe2q3obghu09RBTwa8mj2xnwwlWA7/o7A8BTWo9reIJcvH4Ksq9DKd1lQqac7fsCnhlmiPG5xWGoiZbW0ibvRCvdg4xg8iiFGPvkj/ufsmN3HqML6OZPy9B7CdAT2aTnbpqcw2j/VW15q29S8ellI4fUw4HHBww4xWcn2BncojwVqYywicYUdkxXuQYJ6BnQXQTCN+NN0Ju5wY3afowoY4fmmlVsCdwB5gw2nRGGMddd2P9skagsgTEGoOFapnm6XFnoVmeITd4fEohiZlOeJa5x0DyYGa+AyfmMsVJXWQRVuzO6TVGGNyexuZwfcAeJkxVgY7wWjueEVEK+UKZTzp1VP9zMw2eQ+BFI2vWFuHrP671NOugcJYlLDbYi4/J+4MbuPUgU86PBUuzpFmA7wx+5GXnNlqCFbvbMdUKliZrfXXXDDDk9ECeJM1aawappIZba8taH5+B4sjNdgyuB5QuwIATNm97YqRXJf1NFmOl0/yD0I9ofhTxRpnpm/9xMuQgrCumfUaj0smaAaA+/hXYpNbia3vjMSMyGOGVrS2cf3oEBLaUwbsEUzOM+M2b2tSixHzLDEiiqL4B6Y+gby8nfJ/Emy3GhfDq1h5yycPnl8YtDdGHnLA3n0aMhFJGeCrqi/BbocGYRwxDT0PwjS1dplEpEnr7IJ8GAhBNOHGMlxuDG7t1WpTrJetDjMfS7CdAAw8C5RJQZIfQp/4FCU7nLQWATFYwayh4l55S/ANC184UjixYGrMawEk6PNkUrA7rAJ8GDhnmf6kCPVzePG7N5WpTvMZonhyRlOAQAfR87pzcdKtW4Cu5Y5g3XQPZYzu5daRXCbnu4umNvk7t9hizy/ECw/fsIlwYODGrofnpzWFDdo97SqUWv5FY5GPFwO4FzIzK6mWCkXxM11YfZBUYYZ/QWFbc1P8Mw8BwdzXIaqA2Nau+CCwv/UTCI8BL7rEFou2TY1tHv0UjXsWdI5Q2DiZgBXMxKDh91hKkNjaIdJyeZrGloQOPEhuEhP9zLgZJObS5HiHc3Q3wLybAtErWeTCA+BTT3yiVSCrIZ2j16qps500DJN5K1CXLCS6ssMTR15En+GBcgV1BOWbZumClrpDa1PsG4a54EIV0YGnNrKto9MIjwUfmkd8pGUG6WGdo9eqsa+0RsemFp3jwrwZCB0OESQt58E9Jbr9NzC5s5UO/KqfAJHpkk/bHMpUmBaG1+YRHgovLzokHcKQLtHL1WG420lb5YH/7nFBKtlscMhgeITkjDaAqXzHmBQ/hCZA40PXbPxCsE+W3VoPNLGtx4ZHgrP9chbBZjdczy+CsN/o22U/ppCgt2+LUaaCbhVi13v+DGYrdUNYn5whZ5uFs0CrgOiYYWsNn7yyPAYNrP7ABhGQ2fyzW9aQHAytuXIoXQWWvbqRcpuPIf7ZRDBBXq6Hb+RTe429dCua+M7ixCPYTO7x2P55r7BCeDQBCaXu2WasSg8KQkXi6Cvx/Qxi8W56pugTk/XJKaLKT5teuxoY7tFiMewmd3z8RQpGiiwfN6igROLC2njVkjTOmuqnFZN2O+zGRFQr6d7jgY2uS99HiIDbWxoBjEeo2Z2j8eVc1UySC1yGXTpX5QyI0ckznXW0YTVCpPvWwL1erobQK9DGQcqljZeWRjEeIya2T0bZ45SkcrRq7joXfp3B3BK7j+Tzhue8HyzuQra9XTTSLbJfXmH3laCNh43iPEYtsXddw/Tryf3Gf2JWLBmmjtfih5urS4vru4nGlRc+hKOivQ8FlHaum5Yp/bAHnY4u+rhV8eNBjEew1bdPRX4OnD354aGxW3WrF+Lf7iPE7fA6wQNXicmd91a5zfXC2OOp6p+CEfUFi2wSLMD65I05KGpVxcOTcMGdM8A9n6rH5iwWKdvyaock4bJ8lwOPLPpjPfAo/ZJbsCRy6hcT7eK1za5WY+8gTL2GsR4jBvQvWfEdB9PX4XFOX1LZzcrTApgrm1C76q22id3Yz1zbVHQrac7fkg0TrINbtG52ND0cjyGrX33/GDp+didWHwHx+WNPiloArbHDClMtd/wHp0bMlwF3Xq6CfD2eFtzvFDGMwu5II9ha9w9ORj7N/h0HLBvUK6oCljq8Ni+1PvynbOxoRqr8pnaXjii9ZaNN33QOv6V3HaJXo7HuDXtnjGwbhG7xxAGFkl0VsCjDCyyGMXV/WQjPzLr7qomPV1SYH3O3CudE1LkQPQEIxfkMW4Nu6eBCoMSG6c4mlR7GcqAkG2OpWmm6ASaeUijbj3drEVquZo73zbgIpp7ZEy77mmTIvFBHN9Re2AgCd8oKKjzq6b81zTouYRezf1AMJ54Sa4s6Ffuob1HxjTrnhNy1hE/CwMi7JnwL2hwWhkyNgSp/kmU/G+81qanK5yO/0jsv4JrKPBIGKB7cnhekPg6DMyxh4kvJcACm67TArh2YrqTuvR0OR7nDadLgjhxO+o5/ftS4ZEwQPfseEizaRtHnF3R6ycBIMhqTFL/bWtAo4a67Nqak0F+pYueTz0Xfl/dCo+EAbr3jdSZ9qM46hR+NCw94Ac2R6xDlnDBbZ9GCzXatZUrrsUK0eKvdi7+vpR45AvQPTue0aJGcfS4m6nGNB3uATkFL5l75aI9BLHtOWX9QBBW4YMYcYw9ulj+TJwaj3wBumfHBxK/tjDGFPyGfp2GwIu6S0c2eUgB+h/2aDxT1m9aU7aNnfY5tR0dTexa/hYpRR7pAnTP7sPiLqpvcEjAzx458g8oVCfAZ3zA2gVMSRnq1tpvlx+U2bUdm1FDmURk06uJ7Yu/jEWVR7qY3UcA/3wAgtoDt0OFmHjMXjp4gfwvSgC9w8x2AfUTl/1VwpZIuMaYghnqrlLE5sU/RbbMI1vM7gOAdWsQRJDqSe/xCSrK9MUr9n7MtZD9RRdek8r8dgTUs0/ipdJ+01KLN6TetnWgKXt/6d+PVeiRrAtm92yTsmtqm7eesDvLLqochUtanzK4D6MecrcrPNqAWybjtPbOBRD4+UZdPxBYioj5B/035CmPgT89AY5PxGjpZZ3vkQVm92wTm/wZZ1cQJIzv/9SgOhSqrMOKgAWqwRkf84vsEBiaUhtsgPR9114B9ujQA3X9pjWsNiVWa3bIkL8PmLQLKFQm8n5TgEcWoN2jOWimXqaNOhwGGLRInLt1AWUHKCEKvXvlrMMvfcQ8cyNlNK6I0F4G8fLBS6PxTflJVQ76qK8fCMJmSPxU27FWjHQ6du73/XgDhBTv7k0BHkmAdo/mqJ7dz9E7HAZLWXJ3e7BeUlKfjF1jBIzYVH7gHVHY5QpMnPgHVb0Ncmia/OzqxMUZqcmrAyJkevPCM7Vf3zI6Hc/Fr09ZLA9vbbZufk8bz62nPJIA7Z4Otp1cJXI9qkdnN5mPXNIH1okVBab0SmmBOoYyMr/i/dBU9mFyeDcg18tUUDzYTxMzFWBt4I5C20BXuHaYjx6fHBc3kXp83Y/d8MM8D/PU4H2LcFxcevdjtjxyAO0ejZhsy6WPHJpyeR4uDUwGPIzwD6aY1nOi5OfrhLEtHrTZjNmbjtszixzDdLXtY8nbfO92NDy/g5QROnZtg8kddYOe7uh2ewqiPf6unz68ck7Hzxw2XB5xdsUBy1RHSdxBmCTLrge/LudnyyMF2O7h5vvEHKjs0dbqwtLaXvjsZgu49EeGvxE/xhO2sr5+dnviEG7xUaRp2Pg844taS8DT6dARUSlfIF1YTu/5JzvfZm5EjM3c1dhv2vFEnIM3+e5LlouxX/zwYN7nDdx7+ua3iXLVefDhYl0F6pdPXz2c8949ePTOq1e/w82YRwqOAal2zwZRW3KrTQuGPzJlLWPGQPxy/I+/+vDTpz8nSxVGhzLOghtvA1fkpLcKWj7dkFG+mPzTr3/+8Ol38SLd+cqost+0RtWmmLovKdtHGk0zLjFjHjlgdg+HbUlGGw3iFzSahIyCbVvD9oQvzhEFWtPDqsatD8eSM+XhAj3dGrK6nySW+YO3yYnmkQJo92SMn+QQXe0L4kcuqfBcA2Hg0uw6R7Lhbr4BZyptcu0CXdNvWl7tY8yZeQPpxrQwzYnmkQNo92RYFvZoFPeoGQDOiUbY18A5Mg29abAGrBnsYRDSz5VgD9wyzrAm8r7vhbLiB1gfMcJ55IDZPdnDsaRzLIISDNLXjWUg5JQp2DbA8UW8paKYsfXMwwGWJMhdPep86EqX0sLSheaHHCOcRxKY3XNB0pajtQwePdTIhfaOT2FtqIAcOgWKzHnOsEguQ1oHCf1cAdpL4JZxhvW87G98RTCwsraMH1YHfHgeSUB2z+W9lKOxAh5+BMZYMnCcZT84YiZPKxedfHDAoc09iGZYvdTSIwTM2Pz0FQ9rM9BzNusp8VFm6+0iJQT58DzSQOweS7CMqXoVaAggMmFM3Q+OM/fBG3+ye7TAfwkmViLgT6rCnqVkaMzzPX4G2+CacYb1AhJRygXBDP5nDLbd2PA80oDsnsoWI7sIHlVgy0Dd5JHgnD31N6lzXXF2Xd3j9nRnCAzhHCJKhrTzT5ud7qbucYaN5Ru3AjweyjCO/ZeaXMDZ80gDs3uo7QsZBtfzPqgLCNGJEKr8xdnoXCUFvcSwuXbXUNGgsQgyHd04BF4+ddgLeJQ3a4AlUrUpgZzHugTtHWDJBWwy4Xmkgdk99U4weClA+fogU4bH22YsxoKDAZPjXAc6sE1TJRg+NFNmH5mrJyy1iAyZh4IC3lCPN3aC4KJ5OSiinEHLIHuCvR/xAo9Ay+c8cB5pgHbP3XfKH+0z0zm4Op6lEBguZm0JaCmxEsdRcIxgoIkWhluVa3iU1Bjrjdpd7u5tgy/U5jtpbYKr5uVAcng+4I8PWUOq5DybhLCYsjjQPPIA7Z58DEh/pMMZ6Q/5rjy+LowsxhYXgTxoiwtDLmMBMJEnjzdzo+vcltCcSl11zC8E4CFLRMeq7KIr5uVAy4fnB3OnbCeGi6APWPfQboMByyMR0O7h53/C/fKIJ4lVO7o+nHXigeCYdE4xmdT18pAe5tTDfpgcOji+wcICGGWe9nnyw+jagBkUSA5uZlqG1ARGfOjfwZ6v8QQTL5G7MPe/9egj5D/fnJg++XpO8sgEtXv6eTkB7wQrpvF/qxF9wOjxpx2OVyJjs+KQUqSODG6iQ4VKlFP84Dz+GMFInu7thq4+yJYcILlj8r8XCXK8n7NnFvW0Wkt8755PGgMivNWmGD4eg2SVHv3q1JIfhEayDriTqVD58PT59S1TjAfWjAFumtM+ihayhxJs99il6jTW4ffJep88WOfc8R1ej98sH+0KwGeJWn1g9VuFs9gL5DkmvjlJHaWqnf7YumxWornIax8C7eBL59vj3nmhFPnBC2YuwxdiAdvnecEnROBtOH2UKF50+yPLGvSaxWgx+esXXuLP9OrpDulGJsXc8smvYrlQ4bzZG9mjfqdZTYd2UqHX13NXKCrM4+P0SbbRG9rWeNhtVrIPrj67f3b/xp8bE+QBhv7Nv2kySmpaPKyhBNw9eKlS3trTT/F8KFdvX7nLsNc6z4Xyid+88LomWgICH5sIsx9xT5ik44gC1woOqt0SYUrI0lL0qU4yjO6B4MH+V9n2//2n/Ff+K/+V/8p/5b/yX/mv/Ff+K/+V/8p/5b/y33+ElP8W5X8bZu1/yxJXu4AJNHE1iPYp0gnn4LBlhsTVtEWexTjvtHPwF/rE1bRFnsVYaIjn4DDEn6KE6iLPIpR6Dm5EXuRZgJLPwYzIizwLsNDQz8GL6Is8i8/q5+BFDEWehYdhDlbEUORZLIdDSVNhbZiDFTEUeRbeX3KaYQ5WxFDk2fBKTjPMYSaVI/Lo8EpOM8xh1vXIOEpOw3hk3r0wlJLTIBfm3TsZTclphDuZdx/QaEpOm5kfkOHfpI6m5LSZ+d/o6os8G3ltK+37+XPfKX2RZ+Oz4hxmz33a9UWejY98DjPjMSDlRZ4NkHwOMyN1kWcjpJ7D3Ehc5NkQiecwO9Keu21IzOeymx8lroCm8l/NatgfKVFwkUhdBSo/udUWCnrF1C4VcXdLbcVM+mGABcQnwVyk0hlYg26jlgtmY79+pl4kAFqRZyQp/D/+Lp4/LVSvV8/ZsNssRQqJnx9eCaDCt5BLToPOAdD38g/Js3Sl0R1Z/Xa9FCskfv+9l+ox1SzCNNoWUVoxs3ykhZt463OYTpE+j+NePP3Zq1wkN32RZ+JZPw4XqBcEZ6sUeoCg17cQCjXRz4HHBV8lzwfEj/A8TVuPZpoWYRpnHZBWzDwKVwDuli2D68fg7MgLHs0iRfKdEOAPSdNdXQ/PI2jxLThfTLg5AG6nza4egXaesJw2lC3CNMIamFbMTGCtaCxS/J5ykXoDMMDzebwPrvezFt/SN4AHHJ8DfTvsh8noW4RpbMFpxcxhAY8GDCIN08u6ReoKwLUs21VfMD5bB2Va4tL8iOuik+lHJ4d0GhdhGleQWjHTszN8y/pMt0j9AMsp1ktYZ5zcOinTEh3LFVvAEdJNXOokKhdhGlWgWjFTSxxPC5E6ATDc597PH34eOZBpCUowhSGvxIUJIZ3KRZhGlaO0YvbWlt36B7pF6gJYrdr82/cXW5Rp6RBYKvJfOTCbcBOlizCNKGCtmGHZdkS3SB0AHLmKxJWGx0xLd8BGS0Dm4SHcQOkiTCPKtFbMuOyYbpGiA0yKBf7OtHQGbMlcVOLWCXDyvXlOPBnXihmXndAtUmywWLRlaHs1+ZaugO2BbcvcgsD2R0lONBnXihmYfQKqRYoMlmq2EAegybf0BOwMBK80dFAL/vmNpYu8VszARtugWiQ8o+di9xrq8i39AGuXsr5HLfidpcJrxQzM7i2DapGigoWSLcR4C3T5lnj8/6EM0K/9McXLFI0kA1sxA7NzqFqkqDAn6FDafEsvYEk6Dap6EaZxBLAVMzJrF1SLFBOEbCmGK6DNtzCOzyHlGINVDW+vLK3vJRuGZ3C1/Jeke0hsxUzu4iz+m48/ffr1nxK5UM0yDqBVi6RlKPJM5BJ9tYq58Pun9/y++Qff/RwpFBzcLQoafQuh5DTxHHgvnCurcnIPb2+PTfzQcA30LsI0jgqxFTOtYX73SqZJtvrm9lM5wyIy1SJp6Ys8M7jmi+g0IleBBkyW626wMp60kDQV+hb3Z6wxZA5Yo59N1hG4Lvj0M1S8CNMoWkBsxWxJfIsrDBA305cmsTbVIsmPza3iyopKG1wvT58RaAY8bi99jSNQuMLWuMfmnlbBdknV9fYQKBbVOvQLRUzvIkyj6CKyFTOdwSFRLMCV9Jjs6w9BtUhozN/rnyDQlyRJ/uZVeatyha11gJcaLNZWgHX9QZZR7yJMo+gishUzmfa6kSXDNl2bS7VI4WDV6PpnM3C2/cvrZXqr0rfEB2HmJRgEi9Sy1h1QvAjTCDKxFTOZxgpIXMxW1gPVIrFxVtksLoKpKY9GQecKW+sA7yXf9aJreL2QFVDxIkwjyFFaMXtroirEfS3URUG1SMFgnXo3v6SowH8XdK6wtfDg2Og6HmYtbu3P612EaQxdZLZiBmBy+eA2UbVIscAO/brVdq9viQ7PTbMPGVPDYVC7CNMYgtmKmQNn2u+hapFiwRL5qhVzsW8JDjZFrns7bBOvYEfFizCNn4JsxcyEzzZrEFSLFMqDMXWpMLrYt0SHKepVmWmsRU7bd/cUL8I0xi/uwYBtag0d1SKBsV20enl0s28Jr2iL+B9vi2g5Su8iTOPnIrMVMwdO/fM6ahaJjOvV/VVwtW8J7rHQ5WGKaeKpUO0iTCPoDpmtmAnJXJiLD1SLFMl9i7jcUd3tW2KDCIkGCl1GnU0VYIuzdXQwWzHD8MzTCvs/qBYJjCnxZK2Bu31LbFg2uEgUJV78QO0iTCMIZitmHHhOVD9TLRIXU7ZUDV3uW4I7J/Hc4whbKfRHtYswjSCgrZhhQJKYEa1apEDKxCvv3u2+JbR7Ql+Tr8PdBGhdhGkEAW3FDMPznpiZpVmkQO4QlRhc71tC+yin4P+GqA2ndRGmEQSzFTOQB0QdTM0iBfIT8Te73beEBjE56z53SWRR6yJMIwhmK2Yg2KMwQs0igfEUF2bR7b4lNMyS+AWTWD1aoljrIkwjCGYrZiQ0C7R3VYvExTOS+xC43bfEFuR/pdnlWD72qliEaZzBbMWMhKYy8UK1SHHQKv384HrfEluehJ8J2gsfqrhQIzmD2YoZCfF/sQrVIukwX2bcdb1via0ht9Bg8IDEdzM7zFbMSNIkflYtUhwk84VDdL1viY22/nq5WKfNhsvMDrMVMxPGi0D3V6pFiqNLm5QC1/uW2IZyxZW4TIvWz+wwWzED8fybxG9VixTHkLagd13vW2Lju2SjuWwUfZzZYbZiRvIPEn9ULZIO9GWG631LaHPkFfInF62f2Vm6FbNu+DuJv6gWSUdpmKHBt/SbX5IkiU8zO+5WzPj+RftDtUhh+Igquq73LbEvWIJfpEn8NLPDbMWMfie/VSNS7Kstmlkud/mW7hgIvmSVxJuZHUArZk5iOcqfVIsUR5/WVprrfUuXHpCYeuLLmR19K2bRbNNSLqpFiqND+1/OQ7Vv6Q+edTnEBa17Vd/M7IhbMQsoROK1apG4eEwe+lzvW/qzT7uXiQyt1bmZHW4rZpornj9RLRIXT075E62+pZNomYyPmGjSVt3IzI6wFbOgeqSMJ59qkeKgXdPVP+v0Ld2UlWsHM2BTqMzu6FoxC+ohsXkf1SLF/iYOGn1LN0FMrtPYL0nEZndkrZgFBYdEvXzNIgU/BmQZFfqWfvL8gk/Rj2cH5mZ3AK2YsfBEm85Qs0hgPIuBuIOu8i3d8VCswgGeESOSMzuAVszYMsS27FSLFMc8rcrmLrjJt5g9AcDTpu/AJ7b8M773zOwAWjFDe0gLad7qFikOrBBrT7nJt5g9C2BY8Yt+LaWzdThr5JvdAbRi5iSkd2rNqxYJjClN1va5ybeYvQAECWJXGIQqjTRwdgfQihkZtol5aapFAuOy1hgCF/kWs9+aH1M5aJ0Bb4O43DNndwCtmIHBEdUcvmaRyJiaBbW7Xpf7FmnJaUDYYviSrz+iLz2zO8xWzCi8TRp7oFokXeJqGkCi5FFwt29RlpyGdMaxkgS4At4WzvAwWzHzYOvlXcerWySZkAYgQR7ukat9i7LkNCI4pHasXaLDW/lZHmYrZg6MSzengKpFEiaupqJvoU8t8vJp4WlGGDSvsDXRa399H5DH2+D/Maz0qeHuDA+zFTMZ887vU2MIqkXSyQnAOEKK6iIw3FfsDdDpW7QlpwFhir8z/1gm90J8hgfaihkArLVsGg3ULZJORwDWJUOxBOa6XN2rQFynb9GWnAYEGxb3okOEhE0NdWd5oK2YLYN5MBCAu136wCRVi6Q8H0FAxxgpyPK3tsDsmS9p3Vjb9si1xVpyGmMOJfJ/UTrMbZD25zyzPNBWzDTs4jIYTEPN2GDo1apFUnrJD2/DAGOTtbsOeNS5tRr7kWsLouQ07xw2Lc45FgH6QMEiMNMDbcVMtSFeniAQVxzxwGiiDDSLJBUFdrhHMd07DRCdzTthJXJ0A8jC1hAlp5nnUKSeUiKUfQArZfIe83tmeqitmC2DuLVP5x1n0e5+sDS6IY9BfrJakeSJq6kAPhu1PJc/nENHd9vNNCaH4si1xV9ymhLzqpFqHjgOwXUuSj8VBmG2h9qK2TLI27CW+Ph83uu7Xs1nv4mXJo1Z3mA0JHpFUieuxo7IkMyHmdzpz989uOPzzj98+etEteP4qbsgC1tzl5xmZ7YI0LqJl168tfk+ZzpGg9af7YG2YrYU/s3AqKFekeSJqyHAcld2pYgRCz/zlpyG4PE2zGLIR5vLSxsHub7RaWcdZnyorZgxNW+qfOkVSZ64GoIHdi1Bjk7EtWX5ktPigK2R/FSMzPhgWzEjMPh0RtSKpE9cjUB6adV904iFnwFKTvPP4USWPHpmfbCtmAGNJ8yEl1qRDImrIXgwI8jBibi2AEpOA8whLUl9EWZ+uK2YCcE11w9aRXIkroYAC2eCzvVFAxZ+tvSi3Aomt4rdyC33zfxwWzHThjXZPKJWkSyJqzmQ9MwEb3sm4triLzkNMYeK2H0NPLM/4FbMWEZOY2RWKpIpcTUADywI/nALNK7ws6VLTgPCG9qr4PkKALkVM5K+c8tIOkUyJa5G4AGMyv07qHGFny191c44GKb202T+Jb4GgG7FjKNGmT9QlSKZEleTo/+jXaHU3CHoXOFnS5ecBmXwP5QPO5krC01fBUC3YkYxjpKmjFalSKbE1QzIyrpFiTR53AdKV/iZueQ0zBx2OmRMZmvk6wDoVswgysSJdVUpkilxNR2Oz0i0wf2ssAZqV/iZueQ0zhx8CcZvWvnrOUv4SgC6FTOEiz3qPGirFMmTuJoUw5Ngl/XZOoLeFX5mLjmNNIeNksX1O6/XpdlXA9CtmK2qmmQIKs7o6ydNp0iexNWEmPbzYY2ruCCzjqB4hZ+tWHIaiNa/AIAhwyvKN7zP1wPIrZitrLCwlesZruiz+wbBnE6RLImrKbHt5+fJpnngX7ueJXvVvsVdchprDoD3TuuWEa3E02vv8zUBcCtmipMBAPoPMme0Q/2sGLprFMopFUmfuJq4yDPeEU2X6L92kMsfBRCU+xZ7yWm4OQA+OD0j7oZ2Jfac5H2UL8I0gsC2YsbTsMkt04wfIvn4Wb0zvPkfv95+6vRtwPDTy1ArEiZxtUb4WGzg3Q+R9GG62ugOLGt42akX4sfZ6Kcb699Mu2+xl5wGnMMt7/NzNBvM15q9m59NRzQf//Uz8nt3wyJMI3ARk1eCSW+Mu5EmYPWq7hBJu1wDvCMzJgjrAt/iXSjRxgCer2kbG7pFYlf/33/Kf+W//+8/5b/y3//3n/Lf5xwOk/3HLRQAVlA4INY+AQBQsgSdASrMBKkEPjEYikOiIaETmbysIAMEsrd+HMw/8A+wD6yD0v8A8wOYB+gHEq8wr+0apzGH86/B/8Mvr3IVID9Vfz4ogN9wD9AP4B50v6r+JvKAfgB+gH9A3K++AvwDmuP1X8QPQAxw/rvG/6v/G/uh/iP//5g8c+Fvv39z/ZX+1/th89/DvV/4T+4/5X/B/2H/6/6z7r/7f/A7k+z/+/+sftKeR/qX+p/tv+b/7v+O/////+5v+8/23+M/cj9////+Kv1L/xv8B+9f0Bfx7+Yf7H+4f5r/1/5j/////6zf2695f+N/8H7L/5/4Bf1H/B/+b/M/6z///9f6hf81/2v8h/wf/x/8fpt/eP9t/5f8v/rP//9A/9H/x3/u/0P7//HL///dE/dr/xe4l/R/9b/9v9n7vv/Y/cH/j/LD/T/95/9f9r/uP/////sk/pP+U/9X+d/1//////0Af//22P4B//+s36ff0j+1/5L+ofr3/j/Yj+e/1P+4f5H/B/2v/if6T4R/EvpX63/af12/vH/W/zfyf/7/kl9H/rf+//qfXD+LfX38d/ZP8r/x/8X+7v3M/f/85/jP3k/u3o3+afw/+v/yX7v/4n5BfxX+T/3n+xf4z/df379x/sV+m/13+a7sXbv9B/xf8L/kPcF9kvnf+c/u3+U/5f+L9H//E/yP7v+7X6v/jf9x/kvy4+wH+hf0L/R/3j97P9H///+r98/4r/5f3D+vebR9o/2//n/x3+Q+QL+Q/1L/n/5b/Q/+T/Kf//7XP5T/m/5H/R/+T/Nf///+fHf8u/xH/O/xv+i/8P+Z////t/Qf+O/zv/T/3H/J/+j/Lf/7/7/c//0/cz+zv/O/3XwL/qj/ufzx/f///k4aBxYx79Hv9FjQOLGPfhmXApVDYUyTgBMr5fy3/tW9v7z+VrlpuM10YqdoImg+/zmPbL3nMhYrmdlQrwhY7G9G6Zsc89Dmo73wLh3ZRFckeBfyvRTjepFr8mjp0C9LMRTT+WOLGPfo9/osaBxYx79Hv9FjQOLGPfo9/osaBxYwzFTtKpo/7XPP/Z/KOuL0e/0WNAwB4Aa2YQ6oe5cAbSWqBuaY9+j3+ixoHFjHv0e/0WNA4sY9+j3+ixiPu2sWWD5HYjVIbZvgq5kxCf8hoF5oSwqcPZc/4nLHd/iyeB3Yz6ufvxprP3hqNuZyqQdKNfnuG98HZEHIXZUojw5RI6YBcnZzVLCGCIdz4QJcSlQI2MP4nCg1a9hpqPk7RMZzpfVHPVRBHwnxUe5gXzbw5z16jFPYFgBadGuOgEU6WPjS2N99bGvdSxj36Pf6LGgVs7dA34tt5XH6fB9jPS98OWK9XK+y2Me/R7/RY0C7wYyt3dnXIIUk0uOXfcpCMFAMW+O7YpjwZR3crMaHwBGU6NcdAIp0sd4OLGPfo9/osaBW0E7dBnsZKfxvxEjW+ZBfqN8sZfQbxbWfdRM4hpq7I21LGPclqE+tHW7R0cfWaHMthqG16ekbB0tOa/Qula8znCa9FeE7iJqObGPfo9/osaBxYx79Hv9FjQOKU5iTdN5oIW6z/EjpafYnFjHv0e/0WNA4sNOv8msTll/ou2i6NxLAk887L0s6bR2T+es3Q564dSxj36Pf6LGgcWMe/R7/RX230ZgoFiNqpJVstQFFjQOLGPfo9/osaBW94TJcse/WgZuK7kn1DUXMmVqeTim2GONA4sY9+j3+ixoHFjHv0e/mc5a45xabdPwclaROjXZG2pYx79Hv9FjHHyfxqpWPfo9/At2Iw1FlHiiOPvUocOpYx79Hv9FjQOLGPfo9/mgvx7gINzgHq4BxYx79Hv9FjQOLGO+gkmyS/RY0DiyRqtmLWJyXnXhb1f3AcWMe/R7/RY0Dixj36Pf5q4hHmwsXDQMmLabGxD3dysPT0gpAtdlj36Pf6LGgb8EiQPPZGvQHP+w9ZsOksi4ppaC9xxSCn47YvosaBxYx79Hv9FjQOLGOzxgaYThzCGUH1X7193HAi+6Ox5N+0DhNQlFNpq7I21LGPfenl3/CrysJy0rsmapJauuTsQWhERrRTVmHn06HEIKdtjCro1PR7/RY0Dixj36Pf6LGI/FUSJP3PYoMAphncUDkIMI0Xdz/GHTNnPv9NjRrxA9AiaU4Y0Dixj36PAzynXCIILGDRU5qb0yZxwohtgiqlhxj/UC9etmQLMFjCJJJxuY+P+6Lt+SVSRtqWMe/R7/RY0DixjvCHFG1dOoWQsKFgsexhHMwohw18pDPrk0tmjbUsY9+j3+ivbqNzWKwei7I21BEeutRvBjhxRHiZiC+YK9v3ETJ1MFZX+SxdvCp/HQC166CxoHFjHv0e/0WNAuEW75IoV3qp1bK7QagXQUvqKIHKiPTM3e39ii+ej3+ixoHFjB5vjmDs1LaljHud3IB/ApLPN1KqZ/U1k7I/+Y3c1D7nMxIPzR4lyu5fosaBxYx79Hv9Ex46j+S97RAotEm5iA7EEYj39T0LDVdtHf4btt1V7/RY0Dixj3Mjmhp2X2Me/R7tVMMQlslESLzyII7+92GKjrxVRlaOZSjSwkxnpxL7V3UsY9+j3+ixoFwi3ck/4eyOcsqKYFfoRYxR1WOaIiGV24CvkOpYx79Hv9E7Fy048kcbaljHuyAQ5pXh+6q7rpEiJoiOVriXHWvBxg5iiEh7WXQWNA4sY9+j38znKPUhbUAjExt+mN2jm5Y98++EjMRGUvCs67iheFuL/0ExVshstsGzTYbgy7H1xejutyS1AQwCBN+PhsCucN36pUJmAdEbdPK0hnkqUAby01dLTVRmnDPZoxtmrKvikBw6ljHv0e/0WMEFN/0vEMN7In6L6pFo3F6Pfey9rfzQEGRCMeBmaCPtJDtKrFhyTtkbalKf5u43Imeu36Yoq1QhWvfovCTxNgq/ZNnoeKNpXNdka9ISCtpYBpLr0ZfwszsosKej3+ixoHFho1QtmkjtFk5Re/0WIQgXoUWyOuwAM23w9p60ifyTqCydftgIm4ET31qQWjXAlQ97/RIv9TAjX/r6y0nWGypYYhU0PaEyDRnd/tFhz02os/fn+zrZEnpVGS1jQOKMmqVlxx4jpAl1yxj36Pf6LGfJXqgVwzXXKx79HsRCcxu/z1KzUF8/j8f1EQfabr1Lhvv0e7ZKgX1Efek8N7HlOwPcW3LxbLgO8W7FeilGAQsY9+DjuVxHm4HgcLL9FjQOLGPfhPJutd0rHK4t1LGPNQ/OjFkqhnqsiljHv0e/0V9rGjSfiyOhpYx7sgE2L7icsi4W1z0e/zi7jB7SL/HkSmrsjbUsY9zb98kBje7v8a2b0e/p+ckyZkO7HJbs2pYx79Hv9El74+Ekh47ixj36PC6XUY6/21vycvB/0WM823P6mIQo3PberBa2RtqWMe/R7+OwelQlPEb4aCAJJIgxo12RmqQx4xKNY4Bx7E3mPfo9/osaBW5j1ujqCZq7I21Kf56pSEyAj6uZnQWMQFOB20YXy7uZCDgwp6Pf6LGgcWIoB3xkSyl3wzKu8f8Igj3imMpEX8RnLz4LGgcWMe/R7qcOVpAj/6QHFjHvwi9iO/oJO72dBi5KaqIzs20GpdEVgLUa9ZprsjbUsY9+j3+azP8sBIcnAPEomW3WC/Hef+t7dPs9CwNG3dKSPK7UsY9+j3+ixvGtJNR5YGa621KeDqDzlvd/1G4pxsiMnySCpIHIzz1Ak9cWGnayhneMGNq+myb1rgtJ7TDZ79TbWlLjATpDJdVMwbDe/0WNA4sRGfemZn7QtkB1hpMhlY9L5ZTwpxzpdBFBllNYpX8/1vnEGXv9FjPg1QHmrljaK7/UVSpZSI6tvotPS7vmVv6s5totgDrgHJIpO9ImwEtua1pnLON98dpfy6v/IGUzAO3XuwdA70TjGvXvapdfC0W5bHtZt8rYyo/i+mBuPC65SGbGQRokitDGVP6G7VcJUgraljHv0e/oyCi2JR5mQgcrYskM4Zbf/tBSR281Oz5KxnYZF40Y0DiwzI6SdnvJjZPU9jFh23l69c+zciFDhbhLyP+eIKr8lNozjtlVxhnN5Im65tJfZXI5ubff2f86OF7ozQ/D321jpOEJZbqR6UIR+59R4yG9mi4l8xkJ1X4fCMTJctZgF6WXYRMUg2hvCauyNtSxjwnYCPdMpmQg2rYiZCtceLJkAHHr+skRPoV3rhh7tsmdg2uyNsq5V6sTve1oUH08wkjJxSGtX/Z1GNKHpHW9m9mKOwz3hhgQCVqIT9MBPq9/osDLDzIfJams7eoZbi2UYEM1HYNIcH71qBy7DrBdXZ/IHlg6gKWr/G/eeuOQZX9czGJl2MZ7llznUW28ZQYE3Cde/0WNA4sRGB7X1byrTrGLXdtyJ/9WtGUaqv2NZ6ZUlpsG7x73+iwNKPah9/4vR8TulldfaNBY0Cuf8oRPG9ObzwGkzKrqNl8UlzJgDHeQwhiK7Vlw6nfEUmd0P7vlwo9JaJm5xoD7ymV9RRy/lwtFQ9/WUZpo3QpZtqWMe/R7zfrJJywFzBPfjhLYp4zNmdGPBseXQf7LNPLnP2uj1u7+DjlhM1201dNdsmH26iohcDiE00K1r0mon5bHPw995J4zc60dcpDlO+91AmCaJMfXlqwTpIaFdoIaihmHy25BHcBnrKJMmwX/vYFpZ8PCpSUnuLJ6ziDIlCljk/4g+qlLajuOzYcqvrmIVxej3+ixoF4Gpy1o+Yn4MEI2EQK+ojxUuAucUln7Mwa3kz6D1VQAYJQxt/30O6e06259jfqpLZQSHKgZuyWLMUkpq7Q/c7sFotVQXlHhPGwyGcMZ7C6jigFGZofBOQiBdAHq3YvMsPuF4FcFke2KcwzzMwkyciZNmvgQrYi97HyJM+fgwm4z8ROLkpUTJr8VR39CnnsqOJ/WggbKeEqIi9Hv9FjQOKWttpLETUZv9Ighsgn1W/Av+VGd8xc24Z1T/RXPgfp0YcP0f8gKddxYzcNRkqat//M2gn7WqsNmtUPA+sGRnt4YPA1LGDgD4WO7jvAGk47PjLcalOUjNAGj4cKUdvK2w/lkcPExwbPYlxn/h6slvUF8qassoJUrdyFuFSF8J0P9Qe7L8xdI/uuJBNx2AFxcxMi+Eivb7uWPfo9/osZ9Ige9myP92GgmxYFt1Z6d/ZF5/oVMgnNyNsGmnTqw5g+p94YDxFGA3Qmpx5WWqLuFcr56PBufO7UULvUuMFgE0Sohy0MT3tQUZygGX+mmKO1faJrizcB4t3oJgMjxadAfatuHpL9bwsG21iuMeAQLvFJJoRpBNIdWbJxZ8dsBizyitn1GNW4XE1RQOLGPfo9/onGzQk19tfzJFGPwT/aiRsfp2mXYwhE9Xvo6tcPsxy9kJPczLqFRgcnh26+eoz1MPPimnGgrmP891tfuEf5mXAwgjHBmUe3H8jkHTGcJLbxbW3fV9Z9jqBbZ2bIevmlEy+rykxbFF9G3PPP8jUSdAh2sszIcxiXI20Jd8dZGi5GtqRi2o+x/Xct2m+zwLVXyxj36Pf6LGgcWMe7OmXGa4DA+nBh/Iw+RzmLzeIu0HRCfCrBxeOFDtH1G0ytXxdRbFGf2WfdlTfMmcoCo2PuRghSNiKH8FfiVKxawWJRKfusHH9fG4KLCElmqmFTTTDGtxpUEJmp9haUbK898cds0pERgav6LNQMS8fyS4Bwrckk8KalqCzWMlhBSsGxPJhda4LGgcWMe/R7w2xAhkL68yX9y8F/icaU4ikpsbkQXBJBpdJbytlYNvddlhIAUlxv3HSOt4URcQc/pNUhj1bXpc/mIfw8jRqIFDgZGxT+l3LDnva2j2yw0s6+KxWWWN0UEHiTkHaBqxgJApoQbE/uYuMl9AUejfGSZIAaaA83QK58mlsENXp65BXGPXpMPtY2trDiDF5USpMSwF3E/P8BW2y0Rej3+ixoHFjHvwdUGLHPzW8o55VSBmt3/5Fm9NGTPmMBsZBIjtG0q3X4j3kwphalh9vIWQ11lomqOy141xknuv5MVEU6EoKP/r4igvtd3Btr2ayv9CAT/66m2Oq0Ku6+e2YuNpzFORrYpr9fMnQUaYBRCMN+JfxXo+99PChs3//trKpEuS6IEN7b5nJnk0SYgvAkoaDkqIZ48Sd5pdxLK/7//9ZP8KOesTFCVn5NM29xUNEb18JarLV2RtqWMe/R7/OQzXFRTBNObpqv91g8cTtese/RDp8Z4Fg1Afimxdl5mIxapVmO/pVudMO//Ma64cQ2dmEPu3/5e56lCXAjeiLLsV0T8o8df/Pa5hYVu5k+a+oBVj2nxKKhlGqEp9DpoHFpb3zHCiLDwBodCJfwF+1XBYJhZ+l4Drfy4UkHAT1u40Wf9QW6UkK6it9/osaBxYwzFiglQfWFGrYYPDJYU9Hv5zm2r3CREQdb75Zx/ht47mO//9A5S1h8wKnfTKmzJH9qHLd3aSaODt0d2HGxAvMZXZd9wXo9/miSmAxm7Ze7PkJwL1AiMQeHuVtVsToa/E2tnFIY3TQ8kc3RtqWMe/R7/RY0Cu+eiRj4w7Xi1zXykk8Y9+j3ifMbSbORsC49zP3TkFz/IQ3K/9HXJRK//zAHf9inlWsVOzSTJfYHxO5unYWZpzvIA2O94dPpWeKsqwS4vR7/NPId2Zj8K8CEnvwEyKkhPsjSs647xiMQOhQ2LB46GxPiN0jetmt9XZG2pYx3j7tVa9KhL2sMRMb9auyNtSnvbFALiLrXtkV/55SAisAeOOzIuyyimXg/VpMmoCvcwR7I21LD5m8dFHr573M5wOQLcZMzaNJBQ4B/TKsvuIIbXIKSO5UlPl4i/0WNA4sYZuWq9ZNXZDyS7z9XPZzFjBp/cUAmKVbpLCSqjKy46rZw5X1GvZsLsnXFVdSeJy2KWtxf0VVs5UDzlufkVfrGWOIXalKBq+qcdRJBqtXMnn2jhxlR/dTOp/imhIvMURP6dCZoxnKgxs8LoHFjHvwdTh8BJ3jhKHggsHBFT2OKcSOij6SXnCZd8Egjw5/n/5cfT5fuAu2gDaif3El9Ekju4dAVwcVOyPSYgw6fVcQsF++EsxToGhO3IGWpYaZBhybQoXOO+K1IbVUFhjk15IjteyJvX7Sw/VZ4eIcCU1dkbaljHePyKyznD+yE+bLWao4d9oihlr1F5LNzq9jPeI+6ubRGffSF4vd+LM1mNOiDXduajFRl32sYbGVhv4wXXJXWvIzPPEdfw5CEGNsd9EM6yM7OMRM9xIPaoZcxC1XJHD1o77fVOaVFZSu42yj8sQCkvx8QVk5QvFE5w+uoo9Psoe/bs8PU193U14xu3WyKqBEo0mrJdzy8SV7LNMw3v9FjQLhGDtoN8zSLeLKbr8+ZaDSG+2ywVA217ZfLf6wOey3gNJ8mOUTzppcUjf7ngO4FLkTKXZn+sihGaX6ZRmSz//lf073mEiqBN7T8FEuQnWbhX8eBJ9sJHI7luS+cmDB9N6Clq8dB2P6ceoESOh/14j7Ncl4GHQX9O3FH/G/BOYTz8WN9z8G548441aC46TRLK/aZvB3iJFlCe4dNPXKwUY2At50y+dG2MFDGbeYVuHlqfRmBXa1ZIZWhv62USAqKWblw5vDJAj380qhSH6bfreXe1Kn968tCafgLYzIByueidTrBdvNvHc5+o5SiDBf75mdAgipH/sZb0yvqUpoozKS5qhPZJGx6a6PCXs2elaR9sdC4Sz1el4+ftYN/KN32t4hSVTQ6bpiyZgR105XP9JH59Ry2XQnj1ElF304LcJF8u38xJq7F3e1y/EtBzQId//1o0m1VDoTjrFInQxTa3HC1xHNlZ/XASE0Gd3qfa/TJ/99j/gerb3z+oO3Xpvn09jPpMITUZUVya/WVe7yMb1YdISgp+AkTvfit3pvMaADpR6S9Wlv158ODCNxpKPTlzqkUDLL9ANlEdy8DD0Nwdvqgf7m9DKAy9raQy7211hj00bev/YhqIOE+7YDwRa+4x6zQ0Xc2ZqQtK9v1207vo3rw8jKdGalljr8yfO4uP6P4vPUHtHe887W6G3hw1PDCP/3nyOPRcj/1/C2m4mQKGQdGuOf/7DqlMxaO6Wd+bqHwa4BpP6v0dyYDw4UmUYt+xOLGPfo9/osaBxYx79Hv9FguSgOGfpcXo9/osaBxYx79Hv9FjQOKl/rL9FjQOLGPfo9/osaBxYx79Hv9FjQOLGPfo9/osaBxYx79Hv9FjQOLGPfo9/osaBxYx79Hv9FjQOLGPfo9/osaBxYx79Hv9FjQOLGPfo9/osaBxYx79Hv9FjQOLGPfo9/osaBxYx79Hv9FjQOLGPfo9/osaBxYx79Hv9FjQOLGPfo9/osaBxYx79Hv9FjQOLGPfo9/osaBxYx79Hv9FjQOLGPfo9/osaBxYx79Hv9FjQOLGPfo9/osaBxYx79Hv9FjQOLGPfo94bXYDqWcAxSxj36Pf6LGgcWMe/R7/RY0Dixj36Pf6LGgcWMe/R7/RGnv0hto+ubSlQ+R4bSbbcCNf86Z2jMcNdn2m3MReN+vdwlV6LSiHWixoHFhpQHArp0qGsJyY9+j3+ixoHAaDpxYnzpgqv++sse/R7+MOFycSIahbJjndLkztKBtNXQR09loNNyc4KbhifuNx/eHUsY997Q4qfG6Y8+aS+gX9LpkR/qzH5tSgMoj8YIfA1Kd21yQXp4MYoefDk1OdEYL0e/ilV2JNRTcu0abL6P+ixoHAaBbUin9KRWzeMadvB1/94qz7Up8V+c4PmK08qJwH6i+d4TmJwi6BTz85wfezledyIs25qtQzL/stv4cmpzojBeh8nVHqgsJ8ab/uk5PgUUAoi20maFjghyZ20vQSrskrVSjsAJqw+sXQY1OGicernhchTUVWp7u+t3hUCpM4v3PQmLqsFKcKQJ0ffL4650rapOGIp/ThEaqNk11IO399JTk+yyFS49IHQlCscsdjbfU3sEvvownxyt7gJzaOumjrcOkR3ZcTeNyZxHeQjgWwm9sEXALJ+LIHYzjYbx6RF4caZpxVjTYAfUu9elGlNDTagcaoTqwUMy1LibY4iN21y75k/66qvD+e9cMXuz8zO8iJsSpMoCyUxQbexbnHP3bB27baaqDExS9zKlud3CPO1ua9leB/ooMjYNB1Rw7fC9YSkaHSmg00rmYUgEOdUq3c4p38ysMsOEhtmrv2YBXJJcLZ50HIf4HVPwTIevt2Yj4WGH4VWeZmDmoMbvUmnaYTwdiEtFCcl6fXhdqxQrMcWnikWy+hUc5AlNIXW+w7fFbJjPAK4y6Lo2KjUX9VzpBi5105oZF3DFQe5ImNGPw97hooea8oBQ8dOawyhy25FaUqvvktOpwd09WHpsmc7i+I3/ILAR+Qg5zFFhr7bfxEciEmRr0zCJX1S5wILiyC05i4GPABx8uHS2n+jLvf0+VHJdKV83b1E/BM4aXNsvV7zngZptlzYydL3qV6gEpwpw750F6XDH3YkjWuYDXEQ2ponHAt68k9UQCJOqC9h6QbN8gxsiikO4SWKSNSRAW8FOUD9rm3Vx6nZiOdHXx3PvZULVDSNR6faz49BL72+V6OJHCYqOX0M4HzTWI/9rzYO7pBWSspDWnopp7ItuMZmXnibu525CoNWar+dZwai9b3pfCsgD/3NqE4diGPNaczLqGM7AC0dELH3Jx0CL2jpF43jFe/uYcOeq4sjCmbhBbpDdNYiEjzmxPE+56hVs9CdiAE6OkdBj9TOM59le5yk0x++Zwo5bXXqWS+HubT2+3eEzqcvts64fj0iMEuBczYkXXt2a0Urw4ppD939So5xdnB9Ss9rw6sfs95PLCQuP3ldcnt9Ycoa6Bm2XmVXHAMVW0Wnnd1ZRBvDBzMLG5prCoQhfSAvNSwtgPHKbyE+s83tbt6g9OAL3kHmeHJZvBq/tCHHikQZMcx9ogZsnG3E13Q8iAE0SmbSwLdZ8R2Vw7BV1Ixy6ArKCyQq2m5bwKJxtXJJ3Gc0KlN+JYiee1p0n1mZ5OyUCb9WNvqd87qDxrXm9V/6n5NMzAxJLq1hHM97CKwkUQY7AOfXRntg23gu1NZJpSxB3rlAyWo4E0txLpSKqJB1XysVk1ndz8FxDcOvyy6pycfpd5KZteF2lMGwIGRYQA7CppDDsgcDpaYxMNXA2G2XRnJG9MzNVNCDexz5g/Z23xwbj2dkLkIGPbPpk9tSf9K+Ik1uO5KvP5B8URZLLoIObZ6TkHRVxaOh3F37FABJZ/yGhcX99PpxtDs1Yhh0NC/1yuYhGOcxuN+YNqTfxFzbBoEj74pAmwA9wLhB2uNNv7RMWA6yBnKdSQyCek75/+iBvpIlBkfs0pdxeax8U6T9tkauMZA+LAYcKL2f4+o03WzU9FPt0tWhuwMvUjnvnO9x8aY972sRORV2qbSvHreC/yspJldk8KReeM51IMuDzGdK5fpg7NQGMLNM4NOTDCr4KpsewnGhaT7MF9jcw0NC4v76fTjaHZqxDDoaF/rlqbZF3CvknxHukxKvXRxgAcxWEW+I5/dijylQf9tVSab1f/xIfDsndOLlD5gRafmYNrBzsXx4DPa5XLxfsRxg0OVVVeAHvKtpCb/9h+faKMs5slbTheZFePeXYvPf/n5QNRoB4kvZmPKkp6hT11+PaNvK8vAAUsLhqezQNKNV0WGUoRJ36GJ9LO7zO371NV+ZJBF7te9593xoJH53GFNYsieHfw5pA1/BAJJYzD+v/omWs6o5lKU8kU0/FIGVFbCqLcNIg5fxpJxrSVqb/NtWzn/hJ/4FVsKsSzC/8LpMTZRomi20bj/XtH86tezENTbtxJp16bTz/8KHM9uAL/MOzp06Bn586wCrINoNH/fo4vR7/RY0DiygXUsY9+j3+ixoHFjHv0e/0WNA4sY9+j3+ixoHFjHv0e/0WNA4sY9+j3+ixoHFjHv0e/0WNA4sY9+j3+ixoHFjHv0e/0WNA4sY9+j3+ixoHFjHv0e/0WNA4sY9+j3+ixoHFjHv0e/0WNA4sY9+j3+ixoHFjHv0e/0WNA4pTkDpGBhZp5eAYe4vlj8f9mDNq1vHXcjbUsY92EbVhMWPXH32brUkkwdvE9ry/RY0Dixj36Pf6LGgcWMe/R7/RY0Dixj36O+rACZYf68gwGmrdiVBsjRjQOLGEFjvyNiWxFdi9N+GCW3d9FFnzDZGjGgcWMe/R7/RY0Dixj36Pf6LF/CwBbAhQ7fv6JZaFq36pNUi0XzFyw5yIr9fPiirbaONu1SbYpq1c4fNp8jae0S+df2lnQEKcJKYM2LXp5rcFZMN5veuqmMKqUUoi7h/ZIMMYU7xlCZmExXif/zsXkw+QPrGeFc/3z9Te2TwdT/gik93p7pSxs4mXhKQxt44dZ3sgHBcSP+sL/yufdDN2EDQP3fgabX4Z3tSUQ9585M/wMA8zqtUf0A6A+hR60O+UtrjBH/B4+h3rNhBT+SZpncYFeqhd+s/Cude/0WNA4sY9+j3+ixnnItRM+LGJme3dOSPj3gG75CgFr+8GxTB19G+/p7GZDNGCsu3J05lUaCrbNonG2n7OghmJ0uuHV0urrtuAaFhf3MNAAh8fwtpjwBMxg6r3Kh74zbcHn8G+BwagUE3vphE811s9bOLBASRb+FeyumQVh89eftjswPif8aAGc4GVuBRKMXAJ83hqykIUDWxctaauQi5lx0If6+BkloUYV1dUssrxILmkEAQA2XCSou05OqyWhgR3GaUYotuyJV6Bb/64vR7/RY0Dixj36PB/84kuFsRf3mpZMFAQt7p6h85m3A/3/pzpG5MOI2kP72OzZjoF52SEE/xRxGWCD4mXfQ9x6DHJ8HHTlhQnhaLD4aaerLJJSIk+HmsGIuZw7ga6w/eeOKocAVgCU0h+3nBsTWDOU1/jA4Xmd35CP8XLYGoQ3K/r/GWbkJijdSUd3zILK9Tno9/osaBxYx79Hv9EkhdFWzgIsMAPItMN9jrS9fStEN9/9YMuBWRfVhrmrIiWpYEEttPQzTJtIfAC0dDHrLPL3U9adN66nePqvEUn9AXTdPhc89Qd50OST40o5QfRd2Oe2YX0ly0/NQ0AsKUYlcSoj96ELB3coDAiX/rIHYWary/RY0Dixj36Pf6K+9FwiAfEkbS39IOb+YyRn/qJ2rcI62axqBB2g4yMBljX+GhPbEAudNAioXJvOdDrTy4/blRxeLkwxKImEq1dqwL8eCq4TxGlhZBRoZbnuyrq6svhESpdvhr5UbB9ZrXdtTmgtJ7shERYjvbYfR1B4LE87SUWiYhNqFjg7tu4jKHYGCV0XTf0wIhzajHIMod3mkUikyRIwW/yI3oUnAQC1ix/7Q9rU84uhEyT7wEt76sGHtwtucz5DQJ//1KlMe/R7/RY0Dixj36Pdfuru2utxnuC7jjfTY+rnxFPv5ASvYN+HU/zmWL2Jbb8tavsjkfO/WtD37oKg10dGsfk94Zcs33O+1hBXGMv/mpVDl7hMR1sdn8Y8CcRoB6qwW/S8GhJ8pYC5y8o20e3j9NFkmxU0dB/w0m50tsq7twgUv9PNCgFzYPqk/hnKNCq8AwdWcIzXftCflnhxa6Nhf7g3VIuiK8TkCIDxZ+qm+RJAzr9+CrB2WbQn5LmF8WMQrM/hNJuRBbNdeNLF3/fYZuIZJLAxnG8+FZ6Uv+W9uZQ94/Y90A+4gHFjHv0e/0WNA4sY9+I/QRS8VoTbYGjRUIWVB9A/Pjl2NFAY1kyKmMJkJhNqwSHxrFPOs5sEtj9Q6fzHT+fpcXo9/osaBxYx79Hv9FjPf1OYtYpfcH1YOKQ1a7kzANJ17/RY0Dixj36Pf6LGgcWMe/R7/RY0DixjrAAA/uSYAAB1zVUIE9RWmreAhqaxHJMf5Hvx6/EjuOwg7VJJ5ix/KPDS846kBgFD6A6X24r6Ev8yFLmeEHDzSVzPS6s5zeSOYbMVlKZk2WUvHIyRjsT0HIXTGUO7xIvMnTvMvy+G8vGsdR7XLU9Vq1ujU8YRsSK5SvsqS6dUG3WFfjgTWrSYR/P36Hj5sfwU5LWs/LKIRJkEqKqwEZ750EDuUZUyPILP37oQdmbObtWsfCpdbKhRXVGd2zcw4HpCyKRLKKLab+16//ZK1Dq6+cPHhSHQxirRboteN1HOFjiqwwAvyWxEMmS6FChvdTUjFjDUCrASIwSNdSixrilgHeSyr4oAZbzsdAjyMBV8Ra/cnfFODSnKXCWsoP8EIQ/+WAiS1frURM6+QZhYoLs7yKfXg/4bJb0b3Jzs/S2G8TOgZ0jtObDOztZ4wyzHWr0r5ejnmrfPDkVsyPWqsittwFfYib2Fj0oYkzkKf939OwlcU9DgLxzvDFbifGQRVZ1yIVKMZRCSZGfO9nhiELPyxvdMUyq97hzrsGePioFdR7QnBQ8lSfVm5v58CbN87LEsDvQuLEfV13+XwqoPjNS7hb6MwBRdctIji7dDTdMDFLox+ZHmYRLWup0qye9w3xncT/3FlgzwFCDttcjVqPzxYDMw9RTegmP0VP5ke9KOGjSv0Iy92iO65MJcNXZDwsUd7OxyIyNI2uaPswlI55wij4D1pAiqScI5vC1qG5j1iRSG8x4k9EYpkQSSi20jXIbr4MBv89EdMnpX3JIDPJRiG1hKvueSqrqZw5LMHB4Cm+umWhJJ5DF6/nB6kpAAOx1T8SLOu1/NDcFTvnOGSskE0dceqECX//iPeuBv0KgyUaYdFTPaFWLOJan3VGm/9VFUryEjCH2n/ccva668bBg0N3tCExIzOgxv58g8hz9ZLcauESbnnjlgIw4xqXHGyqyqedDm5PXIZggSU/qs+svbP+K2FRDsc+95v7A4mOXJ3ErLVBmokCUW1HdVNmr5gHd7LpEg1dMebvIZakAAAAADr+fHXSHNFKXIV/rqgx8rjkNLPLMti/DbJeI8cTGlfg7wCRXOup2Zgg4G1DA/HeRjXu3ViTPH2ni4aJfU18kYqQmPBywcm7YYi0I0ldFBrwIQ4rp5ojs0wos+5076SF0KogI/+6L7HdP6I8PJ4Cl2l9QUMZBqOLqd8B3sbuqS28BUMmTZAyzfPqy4qp8jJJBjOGCDEjdGk7kK03tnf0l7aAAAACiEBRrchhyN0zckfngViuyTRTUqoExz0fhlVrETAYyyH8scwbzC5TRF4oPRcNv/xk4rK8YGgjhQZqoHhHHWLpTg2VsbS8w+x2m1s7xaOqwr7nPpLF9/qFQ8BBFFTsY8FkOPyR5Ak5WJM5T/waVludp6PckIVefd5dAs21aZAo7Qlaz7lGu6nswAAAALgJYd/WOH73V5PWOF73Uvz2hMCKoYqMWpHzMLy2P0vNNSTEbLGKqe+/pwpZkgyAkMTvKv67iPcGqRXkBDAMsTbOEIRmjQFCdNg6A3+r/lPTPmp9DV7VRvt137dJSHvwftELh8QgAw8UZKXHGgVbZHoxQBq6njPHd6q9eBngLAMxZwmI94Po0x/Bl9ppYYH9FHZeQXK9yixLb5Kd7C39sx7yIIgyqqeEwRiYKMmoAkpJeFVGgnFvgWryghoIXZW6IMpvybaOsdRTTLqvuTnVdv7K1/GuwYP6+XYlioTIo5NAcenwRhRxo+A1Z6+W1htedBzMIeN3Hzm7qBuq7eujD1ntzlE4YGd+Uepxfwpyf5g2C4aUfYwaIU1PiMtc0jr8UCeVAJjIiRYWrKIMfzRchOErlRU0Ex8t0D10dZxv9XTtkvoJ0XjQ1ZPMvWsQLlUni4sf9S24CjY6hAH70IXoTNHIwEKXirQTVZCZjBOj0a3alCNUlG86WJoIGkEftvDzYleAuTPqxL/FoJi6lw7mg0W1sPwNgcMnw5czKqSR5p2U9reLuY3Yb3SmD5G7Zvz7MalZBpkOCHeGSBu7baprX7lwvb2A5NUCfCd0Jx4RSSxhw/M6a3X8VTZw1TFtAjfu8hOYnLeGCvYvj4kG8nbp8rm+QfgPOgKakTO+HKcqdJRi/mnQpJ4Hl4XrDI5Tp7sTYdKPBp1pCiAkxVzFEVMkfnQ0WxMC6Y3fQy18dFTe//Uo2YEFCkt2+2djazHtV/dV/HzRAylzxWXfX1DBC4+Ak0C1JtDxsthtYYrCQ1FvQlmHDBRHc7rGs2/q10IePUoyelo5UXu063GEDj6A5jJyw2oiluafZpMpOAOcFDEDuWJhT9lyaPgWzkFeKE0pyAxIs+3ZektOht0l6eMg/AeeTL/TfKCF43My0YGzzzhuFAd4keSVyTM8Z0nEjKRCj2hqBGFVuviEp/bnVtmEw8MWQkSsWYCw1i9OiEfgknhRJXtaXSowp5pxVFRyk6WdrVpj/y6Mihhr1fRsfMe8hnUrgAgDFhST+dSYMVNsKGkQczJDWrProfzvddYSiIw6a9v4EgLDTbLFBGROkAN9mbRv6vH2hYLeuVgQGmlnhlUDwy7t5jJNohfe89hbzuZ1ePUDD8W2wVCPIaoJqKSM3NBQcNCGcIvPSf3u3qvrACMqGKrKLzoLTXZz3e9/2nlNBtec6GZUfZEE3Plh8Eg4RuaH1jtXBCeQrHU2l6fqx4IquOfhCRCIcppXpErjDyhixkIfG8yUjQ2pg9nvy8oDTQpWTchn1diWrVe44lyVMySfnk/lBcc4y4SbOjQEpqWoBIJUvpyi4B645Fdv23/GLgEOpamu6mZQCvXDB8U4cxEzrTrXcQVm3eWPn+sqDJmEI6cM59dGblWPmDh51NpPM4LTA9Dj2PtsghWNY8M38zuDPjCOftzQAwlOWOSbE/o/7iqwXyvd4KL6vzuBIlFmqZr/tGSL8gif/GbYoahxw7AWnmfrDimDd7vru2boRg7eXbbGhFkAAhXAAcg/RZQY750ZCIfIT/l6TCTRdZ1jw5HyjEhF36/G5EwZmdP/Y1TELtnkOsjyH8DUW1cMtmtgZ2lYWmXJlqyMLv0BbkjIVmhOG5FikdS1IXdGPZ80/kEdQvA5UlkGfu5xPZlloWcyXkMUcMqYWviEX1XT4wVaqQA7R2ADwiiSZXfLagTmvywCkjgAH42vdSSxhGK76E8BthJHWCesrI1MxcphK14B93SIfKwvFghFLxAzgSdCbUaxReBniHKfNLl2tAt/DWd6o9zquETHnlciaRPMpGLw+CTcJC97mWeF0dXaScDHPlCzSJM50fOzjDohm01kjdPrMyxI7FzWXU33P4hUHBUHJgUyGCk2IPAAABeeVzjaS5ZIDPiqEcm8bNAsY4lf41SUr9SiivcQViGZ3M68AR2NPPatkCvhxAsVjIoT+ukswmVdViRjD3YZq5QXwPHStsw5yFuGDav1dm3IXFMT/05SXnvBrQZM91fa47pmnmRKv3KQz+3FGv4la0exe1/rnFqZvrJvhw0a/xiJ5xMfbyZ6NYeG8Fe2azfQre3Ybsp6k1UvuvsRwt2PwpKKMbWcf/LCrVllJ0ryG2WADeQttr2msACKsJEwXQ3hvbLBzQjjsM3PhZ5vbSV/hpmqXCBuSLYt0l0ZhlQPfQQy7Clae394Zei3/kTQaVx/E+xqdbVi+P49mwagDQbNHOhI0pxMikd1Q02e8bQcAXJUm7qkpXPAR+hAiHEXsGSVBTWZjby2qhlgZcOD8dm9nm3VB1MAAAAN/6Xz8aVyW2M0wFItL4bMG6ZgKAQY6pfjALeXNP1gVSSTdPgtoqAMley2qTKPg+yXPEtHwGzbWxNAZPHHbMcTq5vsnKUPJFyyACAQCKJSMYtVQ+u5FtJkwO0aXAlOlJV9IXDiBi4dK2Z2fEkLtRMBIbUPvUWXlQm8hfczlQEe5JpY3iKCCRunivTdVuaZUdcDmah++vBudcADNRuYd68FVMdwH97k85lh0OPUQrSoVk7N1J5o7KqgmEGc+SfJ/ge84zGJYn+QZA43QTPre3PdSRHXW/d0VQiZnEFz/qxkMSdghlLAINniYvJkvcVvU8IYEgCdE+Hd0AG5bIvyAKgab/tOKzDuKi390W1DuroMmoRRMBgtcpSYja76LPkXGh8A7WjAAAHvWGY6CpsM+BX8CUZEOJT0EzNVMCUubAZuDlOHbKNplXPdq4jufew/nRHwXv98lt+DTS6jq4AI6aBqqT0ow0er2ZCnqKf2fYrRrsw3/pqApTPbfK7iMzIiOPa3f73mB4OTjbfIBJhtkpZk1SHx1SQlEIjsUpYesyAowUTxUi/QC1+5D6SXqm1qoyLYgyr1tiED277zEa8HnE5HBgrjOPMD+pOpgvbBoYzoo7B4XvWvznq49He6n5AIkzpWI817GUwlGej0q8AspTcrV8fcDwirDXUVElqMtTIbTZgmy1oikarVvDUxxhqG8v9pwLa1KBZECVQ0ShiZ/KAQvEbykw6l+6tbRNz/4vUP+e6484+7hX3p5Q77dhCvLGi1K9RZNvtJVTbaNC3lCOVVdZ79KEdnXpvNinVM9Ojga9Aiclg49stPUTVf77UOmGAAALb9FbuV3fJrUbz33bz3tfspVl7rw+7LgpXKDpm3jX8naHekItO9KoDoECCxj9TrLlN0ZMPc96qEnD2k6dZ+TGPCUMTEck1GDzMmMfU6aVLe2EHvFgeitEO9pWmtoxyA9yMoOnNB3mTCH5TT31NOEULoYWL9/SUs8g/FCYvbL7MfGIRlkAzImUEwmWQNss8vgbEHuNFjfDGMny3dXCvDSbM/pXIErUFWJfpr434S91D1k46a69ArFZGWGDKuCNZzqJ+11FVxgMBDSAAANFosezKZEOjns7xyuLHJ6mPG3OvqRlIsgfXgrI4Wbe00o55dAWRcWsgm7GEPWKS4CpWXxAAVxk63VEjPj6g14dpRsONTxsnlMgN/I/LzXrLjitBZqaRltIRTCvVRdZWHIfjxY7L4/sNLrhxY+xVYIRxf7kxDxecOoHikIU2MAZq0mcf709wE7rUqSHkpv4M91HIjT+S7E9Pa2rGBbcJ1mGa9DUdg30l4sShP9f4vPDQCVx07gLyPiBUrS8eJoaZOCnEQhcRHc3azMbeWwEfeXXUpDvKIpalPnjZnS5AXoL8dp6ZgAAC17Q06a0i6n0D41iDJFYEo01WqGEXFsTqkAbRJ84g+UI40tp1dQxJmDOXTu5TmcQfoWOeyMvtu4/7lSGthVQcqr5JcrhEpEm8N9RYSj+I2AK16yIFVQvEpT4O6HonOVaxQvrPldw4AOrmd51VQcWhtzCKhbOQupgocqchSVjXy0BY2cGeIv1iqp04bnkKWXBMAZVmQNSLS8le8kHknZ+SgAAAEBJhD80l0dM+CaSQUh2WodNYXDpjBiISnWokdFqTQm/YbeU+6AKyTC1jRIpV39h28Z+j9d75SAABAE3Jm+V4c2+GxXPFdinIvx8wdIrvtg4EBW/unuLNHTrx0dKnWxHrNw5FQlk4acRG1Az/Hslq1G929zZEDeHtNMdPyzmUDRES/5dxvfkm/4+FDudJbYkW2E2pq6zNzqxdfop/jRvKLfRze39tcqyiJr0DjRZjXs5tFRjtqJj23qYSgAAF+4cEG9/zNAowBh0oYdfHd5oB0E/kw8r3KpOKf8YzGCbtE2Rx7ONppvrglFZoEiQf4sdTnf7MttG7nocRGGVRdHkW21RlKfJIMt6COVL/MRGCgy8fsY+xBIg7qW0+CHD987U3iBrNarmWlcMyKzc47JOL4iFRY1+3i4X/r0upv1MfbbUzfr/r5ZAAA+4EuzoNokurqfDWPlTNdm87nn1YsdigOF/fxa6BrS1B3CtFSCwLyWaUyQMgLaHNyihozxF9LbglIGj4zn5nXDkduU1s1GQe5ps2jpNydlGbzTyvCgD/qjVLV08Z1gWcjeZqyNOzA+38EyxTFe1Knz2qaI93EqcT23ExL9bSHGS3gibzHrWPRK4bmnCKQy5uyjD1A7MLBUHibj9TYAKsJc5R9C8fxfT+pBJL8AAALbtDP4WmsMkVtVeCOSu0lwi5LtHnL2PRfYoQktkMWq/04nKnF0gW1DBJIKsHVJX4DM/H21LaXtIgQ6K85DnMojiKh5AYloPyafK6MW7mfHSGU+qp+/1C9fvIcS3wJB4pwAHJzLd8WBm77TG43nAz6Hb1JHVWVJjBhcAAMRLL13epCdiIRVsFY1qDrkqNCHhkqh8rVCuoPYrS8vwpZ9deSbuf38oF0h+7T/5kAAd6kak0GwrZW+drzkrcXHYDqkAbzs5MZg+qpSLmqIzq3ZNncebqZ/mc1OqXBOTEW13hMwCnrWZe+uy5yE7E7/TbGKq/bzuMSYGmaSLcFm7zNigd4uA9hOBFKSnKUY5tjSC1gwK1YpxiKBhGOsl4AAEj+InyounoQQeY+vry3tASr9YwygBUXoAPu8YKxcSIeBbem6EuvHLKngg81m++UaBa2LvNlf5Fl1Hs+cgGpxSVoCqqxIVBPeORtQ64Sk6yFezyJijneluxtg8pH49yY+hae7pfDV00Dp9gMV+4ChwOUbTKhpySMpEt+jwuMuYgYcYEVD/lWNnexWGlRhv4onFX+O+NV1Ji0cUt1Cvj1jQoog+fNPcB3mnVh6z/EtyEESDSYCtRsjRkelOFCeXyEU+9ibC4/2wp8rnIljNCeA9FTIe1fGRaWEiU2F8gkDRkZG0ALO1FLRRw6MDf2jVtXTsLXxSxQTnVPSU/qLzt+haffzxAjlEYx5wtbiMN1evKZSTlP9T+kpduHy7BcLMKpegV9jIraUXPqe+G03VjOdNwdzl2owjtNwlcrrCrzhyJq5/pIVG075CjKn8/8GXeuq6wUBLdPjkU5MIcFouf8a4QjWRF2/1ueYSkHYcTYmzeXXAvo+x8zXBbimMvp93ousWf9bZgxk/Q70JdvTO/iLdcAjp6wyO86cBFgcWbMIjE1m+raPk3fCHZqYm6NYdPU+MSB7+CMCBd8NTFDFRiDtdrYvALXcP4so87XarpxLPyYRBrKE+AobHq6VARAAAA3/k6ptPdv04zfLviddcgNyodE05dHzWylvzdqUtYR6OctykqUqUlIlvkYgWgQu2jPaVBK2zHokepEMCCMZIRwW+w7DYAD3dM8lBJVWpsSGNMFqafcN04Nl7kBVkcnrAdFYJjYlxpYXPr9D41QJ+XUKVQMO3mn7R7gJjbrQXDk6NhInChdeQBEGn4rbvqoHfHtBN+OQn7z4OxrkZ6t+JY57wFwwQ9cdamdFkA1AlBwJSOs6HXKT7n+jO/7AMt8dBDWQYtcPWr1Tr5OVZHpQAcgobynIbIM0Kqfa91kJL5FtKCH22pGdT9+tZwaxid5JY9AHYjnq2+zBnkzCG85nUgFc8NNZu1xj76qdjBQgha1+1zWk4wpu7OiJHa8NZr0G8LXz1mV98q+dP+dlbYvtVHPwDvp3UtEOPPb9Y6pREeSHuPsslj3EZMQkxpSvwn7ce03C6ZhVJtPO+dl+W050Y/nWMkYwQE/Mvun//+XqMyHboE95Lfvtlh24QrXHthRfLwLRPsRzXI84VZpEhn5jaPr9xzzICqiX/CKhXpDKzAhu/2hFv6T2I1JBMWrT5/FUF7EQmgWXOzHGt505tADwoEd+atzazYMdjdONoN9m3Dz2eN2idGPn4uaZ3F9mCcJB97BEMambNI3sQ/q2y5FxgKOTkW8Zu6aisQInk36HjqS/6q2J5bBu9JtQ97iTq0Mbt8MdHmXmCvNae+AZAFFrgNN5GmlM0AALn9l3wVtAvKezwI3nB8LJO5WoFtl0OUGowUwj1Xgeh+IScxV5ihG/GIAcOYy2PzSpa+87fYQkmO7lWmWkI2lHXSfX2A3fSscNF5yEDBOKjl5SkupPl5gwDwNLZyq/fUIDLUxiotbi/mHfGj38PT8d+giUag61RaxEwdlCznn9p2A9Pid/z17GSp2PWYrsYdAwFCIf63hhthxG+HyRvbacsBva6iC3MkXNkNarKZVjhsHy5Ij6FmSPwMIvujRB7RnEMN6+Hy1FWriHrXZDOiQuYeBNkSZvmlakBeUAUBuSsrA0SI5lSBUoiWsPSIbYzGvF/tzanYJhOkxHUPOfpNM1VJzi76dcfFVvzeefNNNWlCulHO4Wru7tZ63UrlbznLftVv16gM1FHOsM8VHlfxZkXvpd6AEkiUEGNk/EzYdinK2Cpt3+6yTjN0xcSyDUn4vDcjAIM1ABZ0fh0olL8MZxhp5ZBUYXx0p/996E67y/l/22mkH8aHOhFBiqYFh9Dil73KXvXhQBNFXkAzonCz9pKaTZ1fVvOS1bfOwV6hIlg6zFtivvA0/d5H+Hy8elgKs2t2MeGdhD3SjjtqG/nq2ty+p+clRLVRmkyj9jYusBhYf7tNGVdswQ7wVo0Cgl0d7035gJc0WZZY+PfbBdXRiKIM1g/ysM847TcKC/lcHm9JijgKRq/vNsenyyMQm59bFgtNR8i4gvhVVq19iWCJprZSKzVUGokExZ6haVhZNXCyTgoTWasQrQJunjlYXjslbwe+ZNj1DMpULAVFAcl8Fj4/N55Pm7wJW48xY0IftsRhuF+4gsvQJ/RUitTAt47wkebNO1WOUfIAsGuH13a4NjLjKVip9jezc/fK9TASodxzbKbfkhX2stLZ+bDi6x9axeM6jq37fLfbilBBrlOE7gO2RKmHEwxglc63Px3NaL4nzMZlrLvQBDkrczK+SNPDsTMTNI5TulQACS/aIRmtuM8zzVjuYSY+4rL275Zmfq4Gop/feepAXkOGks1R30abH8naCKUfjdX3SXKiu7s7GrIbpDObA3sC9TzdUJG/uUfhGi/gp+RU4wxI14a9+ArcO8O3lhAnVzuhjUX00Q0D3W48685C4mM1XbbApdYiVzwBEYnzwWpMDsC6AMCuul5EAtT5IH3MFK0HTUvWnUKduhY22O9KLccyb177yWxcy+wDhY2+tpKFdB4TDErOxWeDiQmOhpL2Our4eb+BnIEStDIsSLbhyp8Dm8TjhGlqYdhAjnCIDSFHmNE687T/5kOhQq9w/6Q5j+RUET+aRQhbrbgwqiLS5oDJrBma+oi/qgMAxl9J/4dehj/LgA0EjO13htffvHmpnNI3/+2NQUK8+PRUqLQjXb+7X4st6JcMNwJFJLtCzgsxu+Gw5S5hoT0eJbYWACzq0cR4c+q6MDJuFYSZfnnDyMbRNhi+lE/sVy00KhyFh72ZgQ9B069s0eeLziMtayypC07VyX5eyRweGzYMk4jo8tndnCmSwLcqD8n3WCiOFzLYsoYrEPL5ODWElJFhqtEHnHQlxxAdUr4i43nceudatuu8Oj2HER4xdhI0yus7Z1mjeFjnzmsaQWODuqEtU/Z7wZ7xKl7zbhw/L0igCPY1pheP9dCazMG7xVrvPO3CeCAR9+KyoW9y0uHYtIuArgu6TgSBK7ajRJG6TLan92dcyaRNiFGxLDNTjwKytfZzjdWwKWGXKuBzb2TvqyavDGPlH51UCPsLrnWxJwn0AAHf94wDHHPTM7TAcsuo10Ua4XlImdZ10ZALy8MSLP+isttPOjYIfwBAkSMHmxUJ701vC5gk7Y5VCvsiNKF166s02vFovOSBQp3d/zKqMD3dYehvp1e7ub13w0bUMLJaKa7SN9oaKI4/y96karHPuCfO+uTnNBoY8JXGuOO++8TJUuG5wAnYaW8qz/rSVbzm+aSlJeubqEFSCzbAvPLDLwmOfXiouf6gnvjbC0W5Ui00TFSFgfhZi5qCkHf7Qs1IrqKbLIpitRDFoDUzmLt2LP2Rj+6vu6IITurhUYjXJ4P7zbynN4AAIKLXNnNiY07B+zr4sJ07uLn7P5KwgAA5V3BXjJZjnRRINlJQcd2/moAdKJ8CZUCF41YfBmcisBCcYiyJyFiyWlCMRIfHx3aTYRVhWxdgB1yvpdit0w3n5QJ0n3eSun3yIE7aEC+WvfUygUnW5dYvGbnxCS+8t0VAq7OMBOj2jVH94K1Nla0/kIz2iRIjNutj7YrL6P+lRkekKvNLqQwuo2dSPeT5jaRDoTwcAKc3t+Z4DTBQUS19IAj/SaXDgBOYQac7Mr4v8kMrD6zezgWjg3sUra+6wVlhgEWXOJMy2NaeTnDQjLFCPZLjZ8Gv5i2uyHT+vZM1+qqHTi3kLBHR7EmiAN3t+iBsGAb0yzISg39GODq70Ok4J75O4nYRHKkZAYEsOGlPu7rsEgDYRcPamavyX04De9tSB65V7mPinma+ITqXjwArAzJPkOoEI/J4bPDHsjvD0RfqxyEqyeXeo/9F4pC2nn6GRENqCVsdiWWaEDogE7HsdhdTGp+cF52mcG4NUq2iafoU7VoEaPhIdjDngPevaab/8hIrLTz4MjOAxmIAtAK4+bp5mRe173H2KlNq4yCUJf+878exnjyg+FIF8u9e+tpS+vntPAPP6XoNKB3SSuWLg4awQE3f3Cv03f26WGxcnDVtIPrAMpePPgRBCCGOK61Irypi2GspEfrsR+IzqOQb6uig1abJeuk7+qTeaPc7EQG2Y7F/DWVmlJldTDhKbtPYly4hcg2fhO//lcWfV30dHTEqntXyo1R8xo05mRLjUwEyygAS9l1Q1eUgqKS4C6l9xh0wo9ONNjL8LIJbmKcPjt+Z6/HL9kC2pj6Y5bGVS0xjA9hJxeqWkvHBCRv5+bmCdrR55YAB3z6dyitaAIYcPj2WRsHm92uhyPPlBTyaU3ksKfk3qvpD+iH3yWR/XMkeimh/+vKQ/7gN/aBo2JuIOOTS7vnoUUx3TNC58jMrFxIjzhGPfuY0fc2m6ui72ftcJlq63kFWxEySmOoJNPJqdKYwXOb5QRD2vPNwMi87EPf9S51HF6bTtzS2nbYEQibdvuV97suV1qLeY3mXNpnsLX3U05ooCSBxqqvrM0YwvWiE78bvrL8OzC1k3RbFnQdec22JyTUfC/UHAf3Yxl7X4ZZwMONlKoXbHfFj5UeZdtjeO8s6OfpANlq/iOpDaBe79dV9cAEl+3/iREO0iNvU4CW+7RD1G7nXHm7QX/QRIiPXNx74te3JzGA/CDP+NNHz3LrF9g36TqL4dqT31OVUKFdAHIG+oSQed24iZ0gEoj30WLDFqpFZ5b/bgVWxkvaR8giVejAC0ZPRBVAI3asZYKU7EQhEIn5vd8s02zhcQJtoMWVYd6FMy2qJFwdIXStnnnbc5ffP2bD4xQf5e21goM56oK3OVBzC/zgIsnOnTqRcdtmKPCYo4/HUcmtJZxU+aKNnXtyhF3MzKfOShRpgB8IC/EZjKwBZ2HbIpXVPbZz1lYUuQnoKCb/JkFmhqjgNn9f0abteaOWiNgAQ2ZRKroBL0IhHujqCPqeym9tS3DuLdSo8AwdngvROu3FIV6LMdC/SRe+cmb0XVaM0GPzy61T4qgEm4Xt6YHs2TXMfl46PlvPnisJ3znvmlJjACr1rvdeoRHM1hllZ2GFMS1izLcDbDrvkSmx2344+lA2yjd+Gi+7zsC/DQayqtyykdfZ49RRBMkLDbdBXfAEOQnhigr0TAx9wWkgHFxwg9uoKDnO9uBEKQ7P+oxfhkjZM3tV1gqkHhf+00E8UziE28E/Z5ApeI8hGOH6cKd9jPkmQ9otwp4V7BhBSKVgfpfnlp5ZsxyqIBjlFgRw85/BhdwqzRm14matp6nLdA2Q89Fnc6RdYQ9n7Ns6wszjoRl/nMWxkIIQpgKDahxaksAEvRtPGOcpGD8XZ914FGV/MzVhmeJ96beBK7rB9FcEMWgoXzIHYji3taifjCerjJGh3Kk+vRjwQOF1nal1qUWE0JJ4LxPNi2nLnLQQhUNTEbdXZdgF+AM2KRYXAzO3GKAPf/hnAFzJs+iLQnwony2XqAvkeMn7dgIFHvmf7EZi3v5i6tmdDOLb2IXSw6FCN3iiDFwNkf3PJpUTQJ14k2fEZi4W8G0emkCCOyEViJsiifeaH40niUM4HEl8eWU7hSo6QCdymhapczEyikMmyl3xfdW8xRSDBLp5FBVd1hjpbZOI+/G/QilHJFNF85k5irKCvtSxd2d0x+9Mar+XsbmqMqRS+7v6YZwF9Hf+MVZk8mBZAexXKNogQB5ddDKn1cOuDDyEIcQOhCUM2WmICkX8jsnByGe3/j/OEOjB90UgWfaC8mAWnLe+wmj0YtG1zwzWKae9pkt5YjmeWFWp4wwUDmQ/mtXlSSskay+NNLCAUB3gFy+hVUfLRgQUBrQGsb8FOEhZfuyeNpt21w9D88c+72qTUqcB9CkKIEkjLfBH3uWBB0ssx8uq5EAyq+vAS7zOaFAOey16+IVAkaYswVeOA8ZzpTRy3l49/pg/uvWluClvwW2aLnrUv1UTQMJcMLc1k9QXesRU8G7XXS5nwk+zOOrIgxHw6TztZVKzsUNa5a0S988zFHfbgTOlLUwZiQ1CladU3g1G4HHNFy8KS3iiQpXRFSgCnpWjGL1c3aF/ZNtF7Mu2NHeJPQiL2N7KSCiOl3nDNheZMFOJeEkv7sBNTJHeTgXMLsV0ZT8XfXyxORQkzMf5nJZrv8qZhYPcuGUhuNABK/Jcq8EVcg1RjEbEoxJ2FSuT90MggxFNgJwjOr3KjkN1/JKla7vVIpJi9UMIgijRsbmsWW8Uto1Gsr6k/KlwDR+oj1DYhCCDuor+TQaXh0lbsjlS3od48w422tob9vnraIlzZS/AFQzDO5BllR9n4tUxxBFGCoZqEkIZem+U0iLJ+wuQXSAaTmq6T9HXUNy3CkbKUW7Wtp7tMFK5qoaLnuiVhmjrApzddFleD5QeETzNkdyDOf1oDWYgAW1gx6/ee+OWrfpkJEhfnRkt8AOxx8DDnUKOB80mfz/l1X+DrVh+lJThf24vVaQbImtxPhb2+PV16QHIBm/YtjsFStTAe3AE33Ov3pK6PjoboW0xL7s5ovHnWblmodRAL7Tk3bkp3Dg4fshcJsoTZhWikZjmjlhqu4vjqvtO6SwOdyl6hUE6yrzZ+FPhPu/u6YFxH+NQALND07ivfa55ZFpfEiOPf0/ZD0cDbDAC8jNFNhd/lzA95lG2lx9kV6s1PaDhqYpMCwRtzC6ZQRMsV4pLz4Lu1pi6Ljx6fNN2yuz53/nlAGcCyqCT0YrmXPj2q9y4xZVicjExpzif5G71hiyyy6ffWolZZAQYKqKOVwZVmfWcxXUQ37qiVfT2LOfZoAQVcRvGcH4mWHOxMfup4kXiGMv2YJjCgwxJ99oUTImRI1oB5GVgtEVbKdyAugLYeaANT2NVv91CdiiSWUxeuUTCPQWSMBgmNMGSmuptUeXOrvfIRvYp8AJ0ISkfC83z7wbRFAMKQ1l3FyiKi++4ygQD4IAC0aUl4WlRp7rO4Ci5R5IBIcArJ5jBby3wb57GViOcIGOi9MYd2SNBHkvfN00y/yKDf0M8vVRnXxFRiry3SJVWzOYg1CGdV7d3GleMDhl8ZFG4/bJoYJP+PGMIo2qk2I8DWuRXjJn0w0QEwfLjkwr30m8o2tosfkaSoSfutUU94TBLzRGrm2uG01ct/WALR6xELVziMH65Q7QzXIqR4/FePklIlmbqcVT3VfhqaKNQXNLpAUmAjo1Y5QYMMcDN4hp9BWjxrQGfDJqpLuBkNq8od/VXDFQWOAa+ki2pd61KihdSR4JKpzE5xLO0aDlfTMIdP6I8PJ3/yDns0S6pWJzeW2WcESOs5oL2QvpIsJ7gj4hykxfxunIovhLQBtDAUueO+0K/02zu+HsCiSQLhj8Q/dnKBJZpyHMYzwRpBG79/BpmwGDrjs34ERRzgUoOSgKo7QAo2SQbRlr7rgDJlsiTNCEafyqp3k/s646vi1x1e3vlOOxEVzzfDdFhgCSwP0UpsXKjmJP9vLIGUqtzgqDBfdbKHzsefx4nbyhZGznWFB+Hz+AUVbhptG/nzJivXnnIFboROg1GMrZcEJimvxI+Ogumw79b4bc4NECzgBRvFzA+p8OD96f1NoZUU4CL8hu7uNJI3aW/JPaZzl4nmOcuXp/NNQynPPhrBIHNJJcqgRhxiLSwkpXf3yP3obm1B9l2j/A8VFu8F7wcxXEjWLkheeG/3lxnAddpuZ9Hifru8/wh+0w+jkPPhY0tm5t+ZeRcezKzgg19CfKt9gO2hBzBPqiyw1iZ4quQnIJmhuDYIXbiaDzXzEm5W+WxjmiH0Yb8pwNTSNNjNXlyrmfpeqUR1JJVbkBaZPUANUv5Wx1TzF9bulw6JUeVzoKTmiefeaMKWG6w3QYUlf0ps00eOlpC4sIAH6KiarwE6MJcMzPMEjL4ZAhD/Q8Osf1gq5+d+BpuwQD4PRHX+HUWriYGm3FT5HQRoddTi4ZSjolGJEBUl9VoHhJAT4zA67NI58DyZOwG8H3SYjSrtEa83ktStZ23Tb9ErXDMdfHRp+JDSEZdxt1ZQmYeNA+KDZx4k9GNoeMSVzgD5KWa7IMl7eUznrbHpOICQgMtBqpgHGzZbqBkDhF9Yc5fvuP6D1/1zahyyXOPhkHdK5Fd5xb8QhvzzXqbD3YGwQ+3YnxrpqGsKsz2EcKtS1PXvK7TtNPw3cr0sX4qp8IeC+UxSLxFxyMslPhi5LVcCDDK8b50aZ0vEjwSc0y9UKvwpwqnK/IFsjuhQfVJih8v94fS0s85oAufjjdJnQZZNBlgq2aozpsT8YezdxMIJ78VVLp+KjEyIpTo+jLF5v83D9zzj0ShjTLhSLVpSpbNt4wjnZn6+Ov71zyXDqcDWVWrFRxo5aKc/ZZ/VmGx0c+Ja92upMDGiZn2+4kQ5N0SACGo7gX7DdTdZCog+YEiX/yoA003iF57bk1UK/2qopR2mppGONx1pUgGVvLaGygSIYJPTmH6teP9N9dQR2SFRM1F+wLI/NQprhW7fNLBiPs1wMBWBtB9b68olBW3SJW1xDEQiQzYnNE4YGXeQx5H8nOKBYgAAJnsVT5Wu94K3s79dtu1tmKKW4fW34jn+zeQGgc6Xle3DFiq5dLjZYkkP2Ix2x0Q7wAMcPE5x2kJYVDv+Lvle2gg9LhBf+8c2eMdrEdtbNnWfA1QXaf6iJaG7J8G0hkN13mpIBfwR4RQGbB3371E3WB6/RpZoto8XhaVu9BXH2b/UZqjA54+nmTr5YR2Y9P+wzvXoBr6vZ/g54ZQBLP2Cu7eFbvb9SJcIL6psogDS9boz8NiOYx2D3m2vHeVm9jxunrrae8rXp612Pd0bhOAifEUej0155kbK8idf+wkOUomRv/muugACSKognPNVsCg5MciAzAXLtkZz9uIbG8oIStiLYTh4tNM+Mxqvi3KvyssC6Hg9TKh0zU0DPimvOBJPuSiRUGPQ83fwRtmmNHIqKE3F69l3puIEFfX4AAersg++YpCEa2QZmB6F25vukdIMrsVdMNOG/0b76ZGdMXYBaDXmAGecAligjHt8uF7SAKNdFBxhOOU28uptKf3JjgCGXoThs0AnLrbYrctLwGgNMdqiGL11+aahEkbabpDD/1YLl+Y+LCuurBkiTGlBFSJ89RBg/jTrck9LHj24AHWXz8Wl6L9MngmWGrf2zMFgP52u4QBXWa7RHlKcqxxYgA0ggXDOIj4Ij3WxIV/MCutiKPdnJLNZ4v5FQawMMTL61ZaQ69gK+BRwF+k1IQ+P5vuBBhmy6oPxbTyQPGS5P3/Frn+iYWH5zuIIeOIKJj1c7Pfwo8ZyCxiK9u+bKSWfQtSM551+Lz49q9YM7lPLOCEXG7HXUR+TzfJZ96qbxSjYMerfAKxaCGpkzqqVxsWn1iR0rI87uhB1vMASS6BPd/AaX0AylTADeb65LhZuctfGgdlaGccXLDJbwOgHdXLQmifUC51ELwzaKCX++tYwgIS9kCsWpljxo1KKXU/XnR6kFHyqPrTv8DwED2a+NwByQDN1PtAPQPlCTVVSuGnksDMctyfTZQ31a5hIVxB5DiKn4RVdgEAW0OhLteuuTVAExNhlQnNB3Fs18uZZHpKR/cqWi3PymKZS6LXDnaK3dJG63HyFWRs0emhd1PgLYyVjMtCH/K/jTYNGFJILO02bei8SnYgumLtmu4QDFE6JGUFoD1VKqDpH+g26QGn/lmpHzBs34N60JhxQYZ8LlNFaT+1qUWAmv3myUz7ZM/0q6PFsgHliICJAWfwdyElJW1yFcRrkx8aYE2zDGXw0/NCgANLCZD/KyqgS2fqxkA8l2E9DvNb7Me1TRoax2bqpsLo6PNSrLojo0Je7ZVUiwVTgrkI/A6AAnMGponp7cUawe4rbl2zWUeMPY6z8uCRECYEU15z3xPPr2m2ho2xBi/Ng1THTCRe2jrxlnQqfFr3XYiMKzm/qrBGCZSPKzi/R7naDtXcrGJamUwapV6P+0+XAseP4xs2J+AbWswd3xhoULEJfOBvPDJ2gpHLKg8sfB1GZ30aYbRVF07cUZhr6tv6ibMLOtvLZJxbicLOb0ufAtKNvQ2zsAPuSVeL8Rk8oZgaiH5UFtAn+5P5g5lZVFnwe0WmWYDuNh0jlKA8ah82fNYm6fYSCWAv6aBj3OhX+2Oc+TSh/WiWA0ZEw2J7wfoBGNwCR+SiLmyqz1nIw2jBi1MydFFXwsm0o/Gfdb06McsR4ybHvlzHiGeWgAbR6Zsr/HcD72FFGP17u4Jkwe9eIivWyAsla6CdeO3CaTV43+ts8TH4jq4KuchlW3fPxN80PaOBvWkoBgX8b0dw2xYn2lm7nyNHzeUwDt2HBG5X0atStLWWuDYsYBheVja1xCoWiQT7Y1yiZl1YAKCUu4Qm1b2wtiRfC/soDlffIHR1mCVulEj4E8CK4dxRoMiChk801UNlSWa+CrXXZlJ1qC2xoeN3zQ9I1VG9SV14wNG829wdwyNj7kjmjiqZ2Zw+tWCNjDIdV+W7jwcBG+ZCMe86jxdQJz8WA0YeUXng1wNM87QdK1YwK+532dNbqQmDMWC03NkfXcWQoWmMZzdQkE81SYh1UAl1iUlX4Cvi/ZIcCaEYA4+j99I6R9X+YY+jlQHe9eJz4d1Vz884/UY9n0qUGNvAKW3VLQTnck2IHbepyA1VzQdgVQ8kNlxAXk8jrIitIgd834lBbujx2ZiAKBLy6QfroTprg5N7AiPGTVGo3QpfEm18dCn99oGZF+Pr07shXglicoMGvyRxcWDYh1VasdJ6XYEjBrvIF7Hmz1KgxA8/SGudCZY0O4FG8rUNkgspe4FBfunckxyxa5q3SSHRxw/VuUkPrcURD26rqtySHPFUpXETB9FGPLIXWF2EIWDO5SaPJkFgUO0QzR5UsAADAf3k42qd2niofNQH2uDjnR2+WAlBh4V2zM9T65AsqFra4Mvk+grUqhYbcllda36WfQ3dS5pncGm/fl2EBY/X3dVFJwFAeTMnPnxBC0HB5V4KvHCDyR2URBh3X5CnDu5S0jyaGUc09nzRrveu81d6h5T6WHh2eM/zoGz4yoRjIQPMrpR8qTbdLdjz51xTIEoBEUvxS34gJ1kgd0yAbZeg8Hn4Cvjy2ExnOpGUTk2XDi6WvjV6QvEAAMDsOckZCWySxRN2VxIa3W4wB9z96QZdJevYPanu4B1SwNCSg7nkpkzi4hQ2ekXIA4YaV9Pma01GRJnbUMVxP94Qju7VLvpx+d+8/WJ4DJTKW+P978I6rB6I9UFXAx36tsPBbjonYAoSMrO/dt+054fIaiZDBEmJo1yuiforfJuNp2WzUCE5GQB8f2RKKhvS+qT9vMR/gdN8l2Oyzq8jglZeJNCtPzcr+Hysqyro16cNo0XZJNFN/1S7Dvo6+GJFuKfnFll6JCGUnI6V/2rsPzjhzm714Se9MAbh8FtQBOxKF34he7uFIMIDFRRPzWNwOy3JzHinymQX7Zl+i/NfkkLXsvM25PG/xjczbl1r4r3ty9/2y9GQMUT5nXlKURAVbvaQNHATQoR1uLrPpP7AjQ7ugU2Tb8tpXJtVr2XLrSRLh8tAK7VS9wcpLt6ml+PCfr63huSlp3nabT1GqZNcIKGMt35l9pKh4HEwcm1UeXRZiPlypvyqy4nUKvAKXdtlxXxwt8Ls4DL1JlvgLpuhIgwdmPsNhK3Vvjvv6gtGvP0MEXTXK4S+hLk7ZPGiGKLbemi7QlyUnpvFb/LdD6JD5Eu8Lgt8Y/cszZ04SK8NiOt0opPHiONYBEouWnSeRlRYP5dEfEB9/8hDDgvGgTom6F3GNDUPkTp4EfhvAjvE5my/yZr85OeN0Lc/8y4mLWX6aI15RzkbvBJJjaTYEYZmimO6dU63DE9EbFmEHvR5NK1EhStcYkQb4Eupr/6VSRznmjNnI2kB7fMR7LGuOLXAS8gAuJTZ4XAw/hQuONtb+qvQMsYFsPnmgUfjH3/WEvGxCZ59FVoOzc3PPL2pnXlD8Ns84KOnXjNOq9EZN5tX8i7Kgt4WkVyw9opZGvTt7c3xLUJL/SoA1kyg0BgZdSZqwwUehoFdXiEc1qaSONv4S9ziE0gzyAqiwJcYiS7V4/byGQyHItR9BrGGW5G1NLUTwY27hBansxqrq3j6RUqvv9K0fJJlzRiZi+Rof1RvLdE46d4C2EV5Ak56dxJShDNFUmRJsAdbYA3JrTasj/6l9KWmfIH1n7Z/yZauRpBzr2XnQAI4kiEkfmHa7QtpztgUrm3Fek/aNefZxEuZ8Bz8o2y0MGbXr61x4T8Dy6fHX859jIax0CcK56QAe5wFpyG5krOy2374yzQ/KtXP70KHcsNDMfm/iSNrEHs7j0ddi8cFYv8lLtCcfNDhuNekvOarWUT/xS5u7q2iexxhva/BniMYYdXUFp+cFDqmVmLN3jRxJ7JwFkxuAj3GsRGZH2DXARKB3V1r+EP6K+l3JEQNlio+ZNVh+o4YgLmcwRIxLtaLnypIr2DF8coDyPFfeMjGdBpYu1tGmznlUMqKC2YKRHXBlCI9bSqWRf44yfybk41+Lkif6TQGTYMycMDgSlST3ukoM9HRJ4USrup9yhEtX+Mc/G/U/V6fzfI0Q7doeiRCP0x7K6Wd7uW6HRRpwvmEpEEygPT1KmIfO6qJWK/iJkXY9N4OKuN0aNoh9XdBMI+A/uovWH+wYpSVqzyQNAzU/qAD+1QGFbc0mzj5WwWrBX6X/DkNiQ2BTn4ESk3Qgqch1M4c/fmYq3DZkBYzy9mvdFhrIKFMWDOCfY4KeCl/8/hDvXvFMhe7uib+LrrT8IRrIApw7I4FT+3SgAsjSmWdTYN67HnP2pAPvovQSQNHitio1lZoJwYutRfK21WDvojrrVAkKbZBH1Pv3+pbmQwVjg535l18uNASbj8viKfeYeM+2IfDj/hJT0gT5q8binCJOMU4I7pQqOyPglL7d8/WRXmwixFYihnQ/RkJe2KUn3NEsBj8rfqBHPPQy/jCLn4ihBDggjDSec+XXRgIJhGASkpAuQ7kD7r6U9KzrH3MHpNLk/oXcliQFiX5NV1LpPgp1Os2DKKgR6i6EtCHC3Y1z4ATpUpfTgyvgKYPKpSZG+sTXVfpngCl156klo9WxDTNKPZakaa/p+7qSA00EQ+W787siroI1HhguUoxkRyEK202wN2rTyteyX14Yr3eMGZxDPDvmsUbg1XcXOBgNHyG4adLtgt90k7LEH3TnQp+8ETBdDCa8CjfsXJ9OjA3yzmaAEJzDq2Jg5XaB1OwGL+ZkadaQtYmkW/4gDQwRcW082fu3tgYLjB7XHfTkoxGV+XW7MCUSl9OMYCgFOj4VMNyv14zR+b+SVO+Gp52/rfIakgjrv3GTyCYOv6FRkVpyR/h1lFn8d/50/X5WKVufbqE+EHVfYKosAPOqt29lPpvT0axED5yV8e/3h4XkI9Jg+AKMoNSVbQvmpSnLwhS2RBkfwO2lPb7J2hM+KKD3Ep3ogYk9lNNOiBaw396jA6f4kmx2yTbmteDtCF6ROuBypDPitHz4sXAZTJr9O/5Vc2nf423hGfRCVKD8l8TgWDm8nUySC7eNOG7O79gKMjIyiqQWbYkCJgUogEyKz1vZCVZWiA0ql7pIQi1nsCyftDiJKButSx0ut8WnrjMYdoN3lHfDUBdemoJyVqvWBzWKTX9yr6OsO1nqJFU4o/cbvRZAw68hBk/fEjhY8PT3Q+KFsuhnagUf2nTaV7uLIdgOnRNZ/vtD39MvP/J4s9vOrqKo+iT7c3wyHItR9Br69+uyrlZ6HUJ8fvu9Err8pHlBKnFAPOuZAbufpZftLFaqqHB/lAAj8jZj0Vk3VTG4UWXgmEdWwtSYldeSbOtdm4b661+iWoMZOQrXnHLgxj6O/7aGmwukXDDC+rVLPhj6BTev6Vgrs9faHdNExSxTQfalJzJHxq9gD8eGH1UHXpSbpVR8G4eb2ZMY2WnjjHyNw1/Y2NA0nZsprBSwr6rbYEdHA72HOXOWL4xHw1z2Xy58BX5z/lnANhhLCYwkb1NTd7fmutSSsVZL6skesbods7mGm18g+WM3a7lxRULwwji77DiDwjvCLrc/l0NDa5UND1a4USaxitnzwMI1CUX9bw+qZ//CZlbC65YFNGnwIK9As3+7F9Vdfw23ZnNHKiZpZnJi26nZtFfY1CFDQofQcsa8lc9cZjyA01gIWH4JwcU8M/YCxJGK0iTElESVweyX0z2VxoTY7/GTlbPWf8MIz6Ix80P5+UvQiODgo2iIuGkQOQXX/2+caFT3hAYoPhzLd2kW85jB4QUn/4PZVrJZUmobzj2W/AiuIRwnXAH+6Rh0aM4bPIc4L1cCbm6cC0MJFRRj6gheuC+3Yzpo3GMEs9SxYgdzSncNCe2srfTCF/nw3UAjm7psdjthHKUsq2B3KKrxfY1lb2xQHaWK1F9SNX/KUfvjYLBH3sXyqkXkHD1EfTX8iE+NPN3WLdcti1tvTmvWZXgcRlWD6aNYlmWlT40/TCdfRMFoX8JqJgt5F3SSYEM3a4Iclm9+LVmSNHa3TrElx4tAAAAFn4uZ57XuGwqVJ3xshlkscb0wjKZiNb17MSmRR+bCeHdEbYln6MXaDnzQhze7IWFtqvYdTQuVA30ULf0lDNY/n5e8sd50IyhVOuSlB02BahsJ+FwZnkXBOZlBj3S7iBXo8OYe2TQgNxBP9DFBW/L9izAjyX+x+kMUFwd1J295SAHLcSHAIENgTxkSU7SMkOUacGRqlxpB2hVGZyJop05s9nLYzIWgDEwOH2BCwj69poRfcz/7n5iUSDN9x1TSvUXJ19XOZ8uGIbsQswMjry0JcPPLvIOf9RJ8Z2/HUPHafZpERCXJvJfKK2RICjP6ENogesoJkSMDyOwJb8RI5DlRnr0GBWlbtdDPHmM/9FaR8oiAbGZRxUpuoGq7GIODyXRh+3DFgkSRyGhRBW2a4MB+N8JNBZFDUobc7S/Xyurn6uJDh4quyz0AukycwTqkTGNSC0wPbN5pBxtVX5nt4w7ArGSO2W/Rmmphy267zMYsHktg1iVYxJN7Uc7sS94YeHDrkvZ+59zjApsRktwJDnHE/S/GG3IdpFkFqPstps5hVp52BZFSyZWGW0qvXNryDLKUwmK1biecn1W7pCxhcmDhSHnk/mRKHyQpL6J2UQQAGz8d4z7iPAB2kRwNFJVNGrKtzFfpQbZCzCeae92eTWyfPoZQJZFbpBF3u+9KPEA5CKup7xOJKOFgKxjFHtK1vNvnndvwlskwq6vZBXowr7470wG4mh+MA0+FJ4jcN8PigdgOCTADr3eZBFhiUg31vzXc/basV713pek1C+pqwIB5eSKYyfPNT4zXGZ1tF4X9UaDA3Xl6Tl9IGX30PwxKZ44QSM1DYbxJ/NLXiA+o4Ega3mw1LohboVOt8uERlT6UULqHCEtVKQOEV2F/FXjLuJsGfkxFOOUata6ZoeWMTCvCY8/zY72Em+aZaUbSpSafQA8hPCkRriYvi8xBDKVIpYFl97WxfHSPxUGVR3VC8GxIWWlochvAQ9LjZDnOIZM7acgKqomREWgiPsGwixptjKQkjOpvmqep4Jzd7F3a3P7mLqNbp7aekQQYWOwiTyznvVgMhoCf0w5awD09OwzHnZYMlnih3OpoPT8pN/JEcE5vs7bAsQAWGvCpxNtM8/Gupmjaiq7pw9eBJnx6AfpFjAmJvrm5+3/JAKW2ZLaIdHNW3hXIKkDLQ2D00yPYxRy48T4qOutZ+cR3853xNwlbLWfBEIFZNg1hiv8uGsyOOud40wbTJzYMlrZ/QBDAb3QnegfrEpO9SrVZhJ8dnMqx3a7Ioi9ODhObtKJioIHJW7hyJG4QXKPlt9EXcJy+FB0BvN6PhyY05hhIsfWJ70wJvnwb2WbzfPr2aV+QBYVO+7DIW4CrPFln84TKuBCtdSrj954jCfs7wTtqb8bX8W6+zYap9dsMHay4jjBL64e7QAr33utIlXKTQWLkIc0uDz4dWClmRM+O40IuEMgeQB0NoAWo8z+tBqIX3UwPgP4aJjRatKkS+D5UmeJB7Cwu5XJL/WuLYm1ib1YDli+UFql5Qnzwig/XfHUNQ1Czz5njCOo3mwi1K9kLJmFJ789wkdQHjWmDa9ygFUnP0FOBIVWZ5UsorbEEm45e8uxY71N3Im+0cub56mkzyZi1g3pOyox1ZfdqXlT2NVTZNT6G/v7JkdVjhYsH9jVdh1dVl3l2K1brPOKjoxQfWgEls9o3mbKtYSg1MXMzjFGWrV1rwuepch5kPAtmEYFJLTeBoXIDBHkEiX9ENF01F7cwnIpQJ+YoHxQLsz5kAfiLEEn7y3uO9ARxPpAT3lDxglKdMyhtlxv9xQYzuDwr6tUPeUM9kFSHwsacICqZa1F5JRu3JCOa+7abaaZhI+8j8GbngRS5dU8lG5ikzU3famjLh7PmxLLbzsea92nU36EkCURJJ/6rQJyOv7fwUPQTxng+orOCLOpD0TbzLxH6Is0MYIrQwS8d9m8BvnPhyE8Ud27PxPD3WPiF/TmHln22v8vCahLHy0qwD0CHCmSQK9WauVCNEH/c4Ay5gbP/OIn9xgGUg2x6xSUQLM6iMaj4PYzDXDqvVSqCSabEqBgnzwYQH6cQaLnpwCOcpPuILAYwGzKu0AKkeE8aJUFzsL1A+1xAuBsJX/5K0rfRA6vIA6h/mUX2AVAWkevbmSflld8sskdUpmSJ308Bu6VUfWWKnhjL18pD88RDQ49uobPv4ZrNLBSs8aHMznzF4dZ2SeFKgnrEEmrxs7bxOZfuJhQcZYjc8kQCwFgAh1SHT3s3elO77DUZVJRhvQFOtUv1Jdk281/NzZ5Fuh6qT4wRjehowTU8d/1wM348ez8w09XJvWJ67Tr0kSmqyEDaJ6NL+SzTxz7SoBbcdG6nA+rVdpFXOZtFWXWRfOpomZO1T+SE+wIB0SgCVtNx54t9Ef9BFWTe+Fymv89BMDHkjb3J1yqkOoRS/L1tGyV6kZ2hBgjfhCci9TiRJnZUtCjJGOuTcaLw9g1zx1EFmom2/QKTLoaABPGzHc2qWaVKgk9e2RHNkNXhB8dypW4QmvgjfLMLkYyOHkrCF8LyZ1Yc1S083Vph/Mo12KGQszTPgqu1vW5E9uJ98oqQwM1xaM/Kf1/s3QLeIDRp7g0GSEovMgf6tTxSnb0jQFsWQR8x87ctNbTI19A3JiVPwt0uAG73K1TV0/qQbFkL/cqyyMi+hRdaFxI7UnIzoB4O9Kh/k2fLSURIh+AYnMSioHpIuojlY7rf4BDLraQXwbMgwODhNa5u9ehv26UdjPOjdNYSbwKAlBeUsQoSOOPlUY27kMXuPNgBouHYWjPiBBItFLj5rFzyI/n0Sth2GXPy6JMZSBqUXgbKHK7EPiUjazSfoQdPy3FREot6ytdNjEGqlqSan9mbGRirEsIiiHObgf0qaRvczHvAlbP3yayVds7I0T17SS3XHyMOZgWl9kaSipNm4FhaJXyGHOneM75kiSI01h6DYVOrFvPz00pL6wUcd/pQJIiSahB5m7FUj9O49abznI/+WEplDfPxIiP03iFMcFSVo+RiAPOznAMyoLItIC/4LX2ZnXmvaIVq34QCaZqlajDLEnI97Ni/j0Pmo0YICHzIxzPQZems1XVPoSmk8qWp0dPTQ2eubYdyAkkwpJccfZX8+rxk5PBUinTt3Ze7jIEX3gdmCevui5urg0wu8yH+cJNaT7sh6CwZTrP/0giTrHWAGr4SWxmoZdZ6Of/NKStVHaAjAmWPKckCNvq8fyLNun4iaJyrbt5UZwIsCMW/rgF2aN7A6itO3Zw3Cpylodkv6oWEUiCNLi2x8m1+jEbomVAdnmFzPTlXlcMZ4tOnJ6ad9ArX/1H1864INMgqItV37aZL9BWDg9915TrbfCSrrDKd32veGDu3Tm/InIwia1JN77ICH6qatTKWdLTwuSTzVcJ8hlF75blALPfNF1QFfIr4MbhQwypsWUEA99t93qNaqEPMOH/+fLkYFLbCre6Zas39wmFWUMXtvMdnZGqzhbpriDC9y3MuC+y4Mu5wFIpefbDAQ4q9qIxN7tRMBCDa2/RAqfRvWUQxePUIU6IbC7WiVdPO7s+SPtjQVP1w9OTkuqkz47Gxh+GQyZ/uLyGJLTFtZbVaSegMK1S/vTg9+pWU84pRyvOAoi7hVysmavfXlMOxb0Y1Czy2c0bMbbYD/fV3+wzwQo4VQDdCJhGk50A05qa6GBzquH4Mr7jv8alhR9p1w06A8zZlS9Kk76D78KgANl3MtBE034uCs0kzSDaoln9KU2atMSGxgnqRUFdsfrF6vf8UadObZPrDKBPtj6KynrqRa/xGHtkhkyRtFtSWcIfXFxmGeed4qJScdXruwJIqlq1pcjocog1F0SrLIjx7ERzoSfwM95xJQpOOoE+9OZqBHGQ/32ImapKWDeW84eHpS+Ukn5l8DtWH/5CQSGV+uqsFdGiUnbMZ4QzNnFt/ONji6z6tY93IvDzty06l0LyM7/ML6NFh/dImsHcIsjLuA1Xkwj60N7cAfPDsHpmS18HbYApHFfl814GUOVGRBUQo5oBzYWYkYAaFgFqVu+8ruz4Sv5oMmG74OcumVSXwSQe1VkEWFRRJRi8OqLtLkHkqyBeCgNP14wccHR383URe1JnHiS6phO6UMVbhTJaEtp2cVpKK6xS3ROUDlC0qtgkoBhcoqgAniDqSjda+cEK8hUvpd/011tIKeK1BIGjzaGq7fFClSLD1lSSGW9fwecP/f1SdGIX+qkztqQmJvVgRnG2wKMeArVSo489P9h1OVtvnYwZQtWDHjEN8yFi+wGWuFbY/FQyFY5Cc+e8yLK7PBH99BGp3mD4lc34iv/66cdGZ2wji4nUSnRAmlCnsV/8EsWynjBIoy976sI1ssKK5beOXmsG0LlkH+8Xb0gV0Qf2uNd1cBJpKhDSTclSbYfo46h6fE71ZZ69pse3gnCDqp5QNIMQ6qgmLPbA9/q2L1O60BDfqAucoFdDvyh3lxaqlk5rMzhhYZN/6USJtEpxb49Oz6cfv2XaDihHCiall4iHvWNS0o4WTP/IaGwAqW9tiIVkxpOIYyITqzQMz090P7WvCv9rq2MQX23hkYR2hIkuvSAk954lBKlbIsBMZRMG9BKV/ct6U2EAI20TUlMhY6b/296GvZKy4Gs87UjRfWZliqd4cB6tZRWOVjfB6HZ2HpTeYs/WlMtvP03nMj/PwvGbFocYzxFSgu21u7Q6dXHZLs3pJV9N6WWMbYwRtb0NNfLaR0ILMBmHCGDr6gdMo70u8AQhQNgFgHA36qizdZYJ2vr915FE/gV607PHdQS4uyGHwH0N41T8ZAuMBD3yb7YzRcRZuSrWMXQauHiYD4LnpXFg7a32sMhPEIyXCk2k9RXeH5ULMPktSWabdZVDbLCfVI8GCbzavjQs84JX4JW3qI+VY9KIPPgOPIYyIBGaXPuxqhA+m0Rb6DkHJWFJq6AnzCwFiPiGXc86+BMdPubvzkpZS935i2LDvKs7kSXD+Ry2ZwxuV8ang4G2MaJK+0JErREBLyDv9ONRsy3Oil22bn1mO78wYkQCIhH9YKLHDkBuRXJT0JScaikIQN6z7hRZUBkrLlnc7aFUe9EpK9sW94Pao3UOVaOB7nvMq1NixS96Otlf//+e4lfvVU+5B2sgok8P3Ud08itpeox5P4QmiE1YBLdbohhwy/wu9t3nTvS0n5o+2RtpuXSW6/SnTXNDguccWHZUjRyWpFGOyujpDPo/RJCIOdV78hOTBXWnlvLgGB5EpUtJZ7IvgGmHWS66ZDdDBbWgoYavgVrb46A7brKwEHfGTmhRnV2NQeKxrFSQWZpiJyRa9rds6Q3I37jGf0OKgysnFGEJTreEXuuNrHR2wd2te/jqWif4MzdsENMUSGQmVtTUKLCjX3aPrzlTj6WMyUTp//Ckz+OaFaL1Mj56WRZVOt17AN0bGAS89bPA6ARqiCWABnNisuwzOZsGJuFPWH2Ky34rHnlstE1blt+iCmMCtL7qlDejxcb//uLmwcgoLpZPLQKEDxisc++cUF+vor50UbDKvtjF8tKZVUZtyQXRZrCIzDn2+F32gpG5YrhXDKXajtdMOVLVvPHZ9hRTm/v4l7WZK+W0hg3/YC36ofmtkT9KSgfvMxqE+vmaReLQWhLc63l+AqrKnD0na6TBgzp3rIxYIL+FeHHTcRQKC5iG6jDp85qODezTfbigrdw9tbzoXBgBhokR7S7GHXWZvQq7UXgZHQLLk4EwErd1x27VAUT+ufRUmZb2HGX80g6/xNLG6kg244r2DDeGf4mK+GyNkOIZXk+KkBl/rQhvtkh1Ar/cDkBtYuqfkCzjXmTF9PZ0+BNBgW7ER6T7p1vgmp9yWkl/sdA2hgUCclxgjPP1JFRQGV7IgHvAyLKZMFSD6mmE1fKazdvP96o6Ygg6ohctO9RFBPuvAKooTLiquJMC24DnnB/RW48WFj8H/gxXXAFZdk9ln1xPGMLOIzuWQQdDgTM3jAPhhugKgdsR6eFbHMmR/74GKJXCDmVjmxDP7sGZALV4zmSe3mounvrcoYN6KN8OBQYoOskWC4Q3EVxGVGoRX6a7ZVcX/vBmWRZ5n0JPD1aBMkPO1fjKp1XQi/nWn9e5B2fhv+3Ldv8s9fGgIOwNisltTLYvMUxuO584h5NH3chik4g0YNGgnNxenh2DiIeQEWnAi1dVjKIEuALrBwtLiUSvqaT4bTA/bhkVQUOlXsuVRGQ8YyeHStQWQjinLhQmsttqzrwcd2XkHqsjGef8VolUGe4+C9b1dk5A7abgxxN+JnzG9CeQq7cgkVd824Zx3PcGbIEQtEgxFC05GjAYW77byDTd9caYvnUn+tx8jteOqEi3WIA6qC4Rxf2lFWNzgnsQnUEaNs3yGL1CtH0K59yfd2XzZOXQ84d4JROg5PfuNbtN5ddHKLT9ZnjRq7/2wgWMAsdSlwxYPoGTsGtZubDUwnKoPClqoPNEE74MpONLMvfPB/40m9uMRPE0gZbK7ujdRIsfDiSUHwRUgyzxgnKRbkTEwIy8m601U6JDeVCV/yvh94TmStyCi65CLSdHBX/9N/ecz5MV6Az6Wd74dl3z2Pq/TxQ5ljRgKW7b5jx5H9QpSMiUDdhvU6KJbpqQzQiOWn/bng7GW8L/qYsMRGBWocIvFGGP5Aq05rNxzlrCClPo74VKIRIN8xsU90Q8FLiQVuHIQ/+ri8cxj+alXVS+iFMNHm2Zn21z79tq0pR3jdAUFnTGN1DdJbeyhz4Eq4XR/EU2CY2YMfWOyZLOskGMqtmSyqMBkbm+Z1syXNjMhHU6v4bkV2gVvSzPlr4adVQlanr+1xM1RlsyKkZpdGNH0qglCjjmIEgjJ/p7fkQ2ZhNOWL6Wc00+WMYv8/gIAynJjAUX15rvI+KJKDyt996dA6/2WUpvJ/9S1JrndBXbegs9s7x+TprVn1iaWklpHckSGFiH0oVNUb0fEt8bJQ2SNfP5CpUoqjz0atb81LZFgWY1EyqzuZStjco36nHzxjn2VnNDzF8SQhRoOo9pB7JybOC9r06y9I8omtc3d3ZkuXGcbzFOhYQyA15nL91u0mPsLlDIaUTbIGcOs5WFH5YYbjnZQ/foqdMBfofLmUrNc7e78JbaQwPs85CPDGiuIAjdcwVzFmRCNsz9MEGmo2JN0qGTXJs+95FD4VZoVIRzUqJTUZTatTlJElWkpYI6g0YT1fj7p5oiApVzpMO/2SR3Y157thP4GbRRaDASycFc69GJ5ZAKPJU35Mfonm2387OjvF/ukXulBQNgydryqc2+ivIlzs6/NCn+QWBF1g3Twq/xEp6oBaIRPFibB6dGoaIQcbMDhD0L4z6o2mfFwXNNX7vn9uD1toE+G2mmHlfHOq1pxU4BJ4GdhAKeX3aY4Q4M9D2+8boyqYUPx7xJewvRkPntul3f+w1/2ryPrG0v5zUUTltnUeABEa29HDWPeENNiqdUIvvkos8/gOigZ1MamTICqe/3/EJApuBtpbxtgdxtcdnvgr+8YCSVQVEKr5BIC7eIMsF2ckHWNSD5zxt8Y033HbX0PNgJyOEm29ckWlunMu+bmyS0Wt8hAH34+u04lqRx2JfkvggL55gjcLDDSjS7WQZqb/C1lFQkWw1qRVNIe/+mzLqzZi2ErLOPDoLnTMvifDbgBPFok97Li8tGvMEsZqACgGZZ/Kf7F0NPOfAuea5J3O/8vct2CdzuLMHh+jXIE6TloUt4H81stI85PgLX9xfihNkbtPuhn/zcuTFD3WJ1zkB1VP9HfQkpr2q4hRrUybI20QaCoeBvP5A2x9S63ep8ZFmZiUIyG8tX/x0G7gArdxVmKbEI9hH/hvbYGNIeObjTE9hhzKDPsDDog8YzQ6iCfoPHSz16t3vK64HRMqP19StznH5OA2xDZT4nljMgUUIG2yu+BG58G0DKQy6IVW6dIje7QwfujxQGIkkqzcJ9dKXv+RfIx9eyyAUHh0HS/XW2/lbXX1183FpOJl6tp626nWDgKrsmddzZS9sbpEFn8g0shkNrjLOtiuyOTzIm8hZ9dqDYWRGb2V5YflKnSw6JwRgmCtbEGmIJ77QExmtADGpSU/nknMCY7kVmqikwFgCcv0WOd4IX0z4q5mOYC/xeCqVCxXOVIVkt1hEAYLfAtHSusovKnlD40iH54s/lrFAB1sL7lqYt/CNe7KU1jy9AtIlIhut2YXs0yqbLFfCaYvC4glSDNGsdhDQelQHAilBiL9I0oqQQrHNjjx5NABUwZFUjkFG0TCXN3hPQTO2N27u/wcjRiMNH2SSv6k+ORW/eQqmIPOxcu789YsF9xdmnT01H+08aa0Mo7Ar2057JeSLjSdlwYJsTN4LRWgouuNvYv6CUuwE4UQ50yE5dW75iY7xolYMnPhJQ4OL169GkvjZmj+kvrAuW7xyIsXyHIkBkWAXt81scUBv8mb2bpOMzGMgGdr+4BfdFsevyVoq9dp4dXxHccxLOaygGn5gRga7h4O+X0ki+6qbyXSREcIrxWLkO2iE3Gugzog4AEy07Hj/csov22KC9ZRVAVvwdSZILqBQw0D9W8pd2VUoYDDyUpk33Lnkirv6cc8pU0gs72ysrojVUWs9Aabuun6iGd2GwiCafaTBtsUCW7BJyhQGZZ96vXDOf+jb8s2blanjF8Y7m2Y/sNDAynXOkNXPbz2iBrCcKd4wcWIuKAbyJx8+oKVxiDLjIIUOv4JT02If5R9HIxvw0Skfu9BiSJSUgIHM94DW3WHHf9PCn1GM3dlVE6tmc16hbcj1BQzreaK70kXtwSM9KUSsfVKTI+8Tn/+8ol0WfExheDAfE3XoGxOVEuFDqGrVfy2g8/eX+QQwjWX12I6pEYsO8OmcEdAgUC+DiZam+YfZRDaIDgqCYbEdrL9Ivw1rkhDm/XUHaaLORo9tANVmJQXgwQV8ztk7ndj1Ylhmy9n8rL1vE+gTfqomEASvvSQxH80PNZXvvCqsYfT9fjuK1GfG1PuZyNt+HLbCP7nqWOWu9l22E59V3NuHRlr/cx75HprpRT2HBWk8OydB3Se9xMHYtiBHUHrvxeX0pFvNGYzmm1W0lRcGFyoNxR5PNslW/xpi8jCMIdnEnD/ETqsaS0luecU5c8bmyrjLPvQE3h5v+ITqDhjoXg4xxxGUYcWjb99s5PbQlNEnuENLxryK5vY9JIYeiCK9z40y3uJY3cJGtiBXc3IQsEaAQM5PN36Jba+IUdwD0MEBzT186CgSWEMb+N00nmNkqAQxMBOA95vuwxlLG9cBsfpfVGH3NjD//uwzc2Sn1hcBgM03IEHjlrJBGv3FpbsDA8yNykgNW4AQFyGesxttcMvs9Q8z/hgiXjGiaNkqdBHEM2Qjmk05IunVm4V74XYuWaRtcFODKtSfaK4O2uV4FDwT/9s4rSjabLi53OE46TWR14sVCe9Zob32oeh2wowHMU1Qflh3EocAUOTbb8SxTe2zGwdMcrjlXdL1JGBQQTyGrS4MgFi8nESHtkoQUsPzA2Vu1HUtrJUNh1RpnNWLfPfT+ZoSb00qNJU1AwtlnOkklKCrJKXujKBJgfX1RhBFGOylEaOqdCU/HIX8N1zDylhjNW5qcwpjxyrOUbcQPMe3iN994m1lQ0OSzqknSgpzHs/16J6q879d+YQvWPWrv6irTBE+j2B31aV/58YjW8RS9O8d4m3B1nM7u9kLMq4Q+Moee2Q5gBbMa+ZlXIgnM1qOZpAu3JVoRS73X7ZYu70IyBSznATcG52LDdVxoCHDGNngpJeFxVTbcEO8VFQAuwsbRPO3/RgdN5fhQBRI1AveTPKJpFt4Aqn9sNg/sr/mm9QPLkNK7vwNCZ5LECeEXY8XQf2CbpcdBdljgd7crhCLSzbCWzrtB7bRFMObuuASOjGKpNeC5OFfZuGFQidAfnmMDrNbIjvxxVSFBE4ybmaQfRwRFhnmEHI5J4J63xodQKP5fThS5Kqf6J1aRdTu84MDFrj5jl87ObC9UU8CWdXaWxhMsFJ2L3fOwGJ5a782bXosQSl8cE+slCrq/+8OSoJO+gs6BB4FNupt8IceW5j6a5wNWEeGURpTp5puFv4g48yeEUo/xtZ5PorK7Vv+78gdmsBo43T51GUal3lUlDDxJgzvFMSsi45JURZCFz44Ao2iJq2xX6LYDM7snWVkajcaFYk7exWz1GQ8wsB9ObY7C1brkpQennCzEdbMe0gDvBkqgTgonOqHcdEEbwTI3DqLle3/lFrmq9amYRrFJi7/OgaKmohlVwfF4gjVpQJ7E3WHMyn7OEIH+ZPYt6b8Syy4JvWd6mGoos/LFt8SfLCc4ptR51px66gN44e1mswy0X14etfxRfsxiFtkm8CEmotg8CmQrGAlBMlA6UT00XmVLGjRiCl7U9T7ACjplDc8/M2wI74AJyM1mxS4NEdJpe94SBAtYTIFKS/V90A+Dib+6Q+9zYYTc9rsLezSp6MCn2LGgjOh4p9N+VoxmstVMK7ltiAuPHwzH3crMHI699vMXYiDQMQEsQPD8EaOg16TS227gUZuNUU+I0z2dqItBOQaPVd15Bxm9d3hhfFeZBRM0mRM5O5X+WAglDM6EjjOk7wfepZQEjYmCh/204GS3nd+QuXbx5R6lTwwS8fhYQM+uWesrXg1P8GqEv1ZDtpy3Lf/1qL6FnPTWYmMQ7b8sFVZL5FY871FqVPKpbCIdOwWbZnn3VEc6YEJiOqdMfgbAXXVgyw/5MNPHSdqKxEofPqHJqRxFVNAuX+Q03tr+xnBb3TxbmSl/ocp3DV1vRMPvVZs4IU+TxR8wti6+yF6Mg7rBp3HfX5DJLco3vuwxoy6qIHbBqNQzBXACUrtpuNx8zV9gfjnBJE29OYx6sAmI3X8b2b594ndlB+xDX5l76pgXKBDt+q5hsCVM9647QGfAU8Wk2os+eQzoYsQ86n2aZkBjQkUiv8VhK/DsKMXS/93eAb0Hx2FBp7If2bnCYB4P314xhexbzyiOpBCm5VjuEJa3p+6F3CPPezk9dHmgz8UfZr31tvd+8VwYuTXh0W8lMVOHJbIl0ACVbaZoaTmTz+UzxLJUZYmG6HrQUj64Tmiwl7741vuAspLxlSYQCaWxRzReGkMN7ctCAjvVr9h/FSqQ+T3UC+7Y7pReBidNDKjm4lCd94hGAR1FW8i5V9KQ7wP1ea5xi49u0X/zrgiJ9+8KJDgJbcbsHwC6LC12/8O2HpkRHSvxTelHDoXr3IMBw4Ynaq4rVah9QhX8ka2OXEYr4r8yiTG307HmAGvsvud0YTfrAiiRAqA6NyKJP3QVYAKi+0sDubyXDzU+JBJ8q4J3ZTxP7V1x8ekzf0W1FPsvXBS6/nxdpsw3yA7zLTriaR6VaGJaoiP1bh6Nk1KbSKiDFqqh3DkI5N8XqUD9ZdjX0ISTBmODG9BZo9/SnWI1kOOgykun+8jhvetZyb+MNTyT+0v09o14fdQv3fDlyhXdjRB6Ls+9bxcYOWhTBgGjwVR5LoT4AT/tMo3MZxfI13JI6YpvVD2bjCJxFW++iSz5256fEjROseert/epP3IkCgv/DkHyBsEGf1yO/Ajrw4NgVzhUPYoj6coAf8wAO8t3zYED+18JAPWrZbnLp/q9u9TgY/O/cMlVvS/sCihoXB+RAAqTwCiiK9VkVXS4HWRnd6enDgbZj+Vbli+MlHTG7caaMbI506otRfhh9yljF5W3RSsVKdTBSGEhC5R3PbLEEx+h/eArqvPhNsqMERhL0dbYsqua7fydg5HKNWdw4sFoBaNELEEcKl7NPys0fWh8cwIQmCSH8+H7H+p6bOlkhe0KE6ED1mtZ72IbEV+PZ0D/8S6S4z7BNZF0ezOHFv6/aotWgwClqUaUwjCQeZW+/NxELjL0KuOKHUPFLxrkxd5hgTd1a+xMwHymWAu1SOU/0KJ9URCZK6Iy9En8rJuBtD495/pwBLe/HTLThUvGk0rfXZbTvb2R748UeMA9pAzo9dqOs0tk6hLEeXWIXjyxxHqxET1/Ow0JPtd+ZWFOfPh4Mc7dmQAJG00AWhUyL6OtEE+JvoO+gjV5e1HMySJCK/2TtA8UTmKzAPGlJ2yh8omS9kttZ6YlX3vy1lFOSDwFx+RZoM8ej/9QClAqClu2DHPcVduOEAIx+Rmu2MHxPfOYmoNYf7kEMDDNhczjr6XwWfL10pW810EW+Kkfuy+58JVMLIin1a96u45hIvMJdTn8OqLe7SEUe2uFcjqtgqKYAYzx5Zy/0ImmF8Gg9t8l8gmchh/ttv2bfY9nTkBJg81bHSvYq/xi/jN+C5S+OMJpMcnlyhAx0GN0ZtGrJu1xF8E1oHFF/mXH4IWq0v9tW3jU9/GBGMK2GzEwzmyywA18ZbYiJbFiG7PDP25ZM2udF4y8ngcaGtdLY6RxKvc6/cYTMcZaLstuxLeXJ955M9oCuv7h9YkYgAAABxjFgXuHjLgt55/fz4wSOvYII3laXXtJg8we7qvi4bwKTu29MmSSjV85TFmSzHZN86cscPSUNRcHt3F0XOE91gap5NBqMMJ0VSXVgviTEuXLU+s/X9kqxF+FuiGam30iHWTSUzkvyDOcxP2oQfy+B80qd6GpwmYTBaZKbd6rWDvRAfJrDgYwaVf41edOS5OK+0fCXzFb5UQUC4JQnSpkbRM4TRlHywFHw/LU0cMTTJopdNbm/seIrpTbQDM+UjhS7jAntfMvkD7CHiNWDtmjYz0qGKFztR1aCij+FwbEDQkWPOVVedcGAzbUFTcOFBj7CNZo80t10+iZofCmKmev503qcaglOW760tvc9E0fnqvrN50OAI20AQEZ8eidrffsAscqTAip4iw8doencUnr7P+Js+Z6cvjy9xZlHQEsJE8UVOGj5B1QgPBXvDnYlYcqT7i8PAR2x89iafDX7GTdfZ2tOTXGN2OBtIaPpEZrjzDlmgyXRMBKG2c536P97FaTy63QXWu8uT0BYCSELGyN5AhdmD6F3uVVe5fy1a3U9MvDkiJW0Y1XoYmuBBqV/Rb068bbO8M9zFhuibtQAXlL1uEQ2Y7QHZi6yYEkmXEwXAXG0OnYEZ+mHvrX/f1K04oq+hQGETSjRgpPQeRFEJSJJXI/ygl8XmQmHH6E7HbO6PNFgST6VDEeWBSALWv6PfAt2me/+qRomdSRAXnCOF+Jc/ekhEXhW20OPPESoP0cZgd0r3hgc0i5VXU1cp34hJ1KoADml4z0TAm219OPbiHArtv1gah8vGD2SgUIdNqqh5FTrEewetOmyb0hHw3VeIzQ0HyOxcE0N4r0U5UYdaVDizK8NBdHxAusY40cRIEZG0atWTBfzBa8ZAdakYE40meVQgC372DbOMk7mrAOAG43sFq4QBUM1AZgEaSU+HAnbIEH5nve/LuygJ/Ze0zxlLHpzp+AKBUqSJ8sfoW4A5cDshma40cbZ8V4SSZJeJp9fQIaCz9z2fAjsnc+XEkSk9cw9vFqRzX/b/UzTB7pjKryGQb1RJgN7ahhFbzEemsvH9xpCw6/Jy6sLm866CUbT2caBJOUPwQ1PCOuwarUJptdBZByFYKo/Z/OFoxD6nMnsf83btAm9dpcmPvsl0jYH/6JWfB1FbowJVDxwI/b/nW0JvddNlNP2GRnHYNIn4cas38SGFxDPc99gtIukZRZz6qMFZ9WzdPZdhXtbdGwWlHJM3mHjSVVP9IKLgX9HsK33kxm6nRx82Q/ckY08mH9fyMKAI83PhcK/Zq1iBGoyFiPiXsh3Di1WmKP8Hq0Nh1I5fgDMFF5b5rQGlaJ0SWyTyt0oNmxuBiTaEghNRUR7CQTF/0AuWEH5MrdNCzv+27/8YABJkS1F3Hcy6BtBbBuSe8jg/WeAjhA9SHoNHi4BaVQypAzCTM3UPYlhljUaFP6XHgqr0QlJBFkJdPH6WflqxHUkfTqvPwZL1YBPLapo3qeQtb10xzgwDD1WIqhkFs133eMYuuQ3wQ3QmOWVxcqqHj5utUSDCvpc/H2ziKc8zVkFzs4Lj29i+Yttkk/ZrLiZngt8enYSCA8WCWlhQdhVbQIkzG71NgBIies/+trQqqUX/WTf0jvR1U0njfPAoMluQ4I4vVGoV+eLjrMo9tA3+F75+9yvz31H/3akOgAFz+nbwxx/7hE4ZqvSjaxrw/e6FBw1+fMxq047Om3q9qNWYj8R2iC1f0cjBntNtmN4+GVQb6k8txkGxMJMu/Th/kiwAQzHkm2nKSlsSvKrd0QvN509cnNUr3Sq0wBUNJUgEvvMzvjqOlwhD9AnVeIqoY/bUuAOT3pVDpeRbZwmHKyd3C8oJqxsniYiUt+SG3FJtjJlFxXy2HkK+kfB+Cc4/YDg0SL3fgT+5F15nmydRyggUFkNA8arGWdJUpRehR2Lx6pWQoWcmx6Q/Kz/Z9LL2YqBHiDm7Sp6JojbMQItOv+Q4wdlyiZSfTUnOupoZqGVYysen7R7fCqyVTjc940rWMoNw6YOe1OPQRbB+jS41BCm3u74SwbqZSiQltA40H7HPHLcBnYk4QZlHyOPS8vjFJg3IPtgAICrHADz0eQ6J0W6oygeeerpLIMp78i5ersVaX08aQAy2h3fWzekEsU8fm6sPeWK9XBMirrwqSMH4lhGchnU9qB8GXIasOt8fACyUMVN0ciTVM5xoaNAXdXXcRl9yKboKzsPJMt+IYkQXIcosfsYyPC7Zr151iwLoCdpT6vHjYURAIe2o6jMzLMrcHp6yIiAsZHaCCYPH4sGVK52wkUJj1eIlQNULJpIbJwpv8DyvK9sWTyN0Qw/rm+37n4rmRFKXZu0TYR4VsxeJ9JX5hxhkZ7955TBKFz7rFJdVbR9ywNecLW5Axw0hAVghPYxqw40j3HDvjpDBwOgZAE+Y7EMy42Jsk6RNjgi60i1GvEL7UDijiFFhLcdFbJukuC6u+Z5JYBw1as0MboQw7fCIqJ1qXAYE+ftSOLlAPl4Z2XNXv4AJccx9oiDUAtPitH5WBgAblFZhUinHMFY57wZzwU2jW0zY0ssrQelYh4NzsRIKihgJPowzh8pBmSbwT6ZQJ7vNpfzXQx4cw0XWkZWTx90MH8JDAE1+CYqfvgXrBK5hI5McjBIeaQPtaaAkmxykhrGLEPGbA3zOhIg0X1tPghBL/XeMFPckEX9wSSIjibmIYEUvtSRFjU/2AmdAuJZifgChVCoN6M5VzWKBbF7o7aJO6wbGc/X4f61h9S3BFcxKuNHzLl2qc8uYY2lZE6dMez3/MQradcxeaaXuC3eP09+ZimMQbMapB+qWLJDTNUQIzw+DkVHdgZpgLi2J0dpkWUYe+aJATS0lH2Qi64zgPn2TiYak4YcJA7I3iqyly0tpjQ1wRlV27/A0ySmY9eCHfJnFypQh0/iasM/fbiczhpGpnq7dthMkswYjLYsMpKRoiL+zZ4yEEU+iaLEDLilRv3hmamxVkyWz8MVrDOUSqZhXsG0mgP7MBeGkhpKHMEd3FBtPDg4Wlz6W+hDFk8qq45GrDWMKOfU2WGHLomEFuvt4xfRO8DE6y0GtjPof2lbMn2u7ovWL5BdnUwHt6PSvmDpdWQSVu7gBob3CPdBul4+HNxNMfwpGp536ZVbsUt+8mW3dSj/1Yo4y6R38koXLfevoT3r/RsQlgVWCwVNX/3HGyOgzjXY3MOZgf6CIqWxuVuN63fesRkjl/rTb0XJ1nxO5FWYPgmKMVU9Q/DvzrENpA3Xq79wwYJmE734jf6cHcpFhPzKkEOOTBpyWoT81RwWrCy5JIYGJm2PEnVDb/EHOyV8PpEWfObKd+irpVfWKfKP20IPRJL2Gk2Ann0MdH+UdwMPtEWDzYHb5gFHLnPKC+VbrLSu2OFUMv4Nq2iVCBysnakg/gbi1VxSMmfEzhmmYOQAzg+8edLi65csIRkc7Ip7x5tPSkBe3+yz7F1v5kOoYj266cAj+744Y+O/e+TOi7HB7vKjbNXCYvxKEQSIbTXB1AEt+PWM4jQBUHDyPd9kpS+Z3VHYReLaUdeM0UsMc0yn7P2b0V8taPpkIsJ/sBy+clN2ctD3ll9pSPzpW23T5puOtb3bX5z/VM6HNXPbuSy4tEpiXCghUxze965FTX+2HRAV/yc99nVkfIVZ7qCtwbznjF0v9xYP7RC3IXT5JO/p85z9KQQ2AFgWdYKjQXH7A07FgAAIGc8/rYVyr/o3KgUUtijpFLGvk8qiGFrahKMF6DXOiC0UrqOKBuvo9N//L1kQR5SNZmOXrIvtuq2zBak9tyTUDwovCJmJTTjHwJFK5NH+uBYY5ePxJfvq76wSHGqQgMckM633j2HSTvugWvYffpFAHKQ/l5yD03aMsPLovRu/j2QZHgjwq+lLO/CMI5kQS778qAi0yQIAz46ysPezR8Cqu7XrI3eqwyRTV8fGOqOp4ewOjRtDhgbCJCnvR2UoIsWR/esbG2JoCTo0cFkXNeW8XQ2GDzzGejIaxDQmOzFOoOZISgCe42pPslFjkEjziAOVXuiSyJAqdCXeJibhTuwrZZ9JF0T6I8mFAHGEdHCoapHXQHcbw+XZD1Poebh+LKvCTVk/nenFhIP/Dkf3NDJSRTkryUWo/w4t/f6qgq1y5bes5nQl4Sn0d9cPZ5KC//MxQqVgVQMck3B//V3D7G9H6JgJe1JuA8vLhWQuigRV5qwWVeh/ZO4Brqc7GM/xNWXSF2B3/bxAqvg/I9xN80rIkTi0VupKgsnMXSwnw6bmhEq/qno2NpBMIfImf1Yk2gisRgLu9n0UUhUmWmpLjT3OPyr7DvYdiL5j+a8otoSQaNczig9K+qzItGuf4S7LwAGu7xQVYhOv6t/oKy1ss91aJh7SMjhqSmzbfoDlU18VcwZ0UoYzwJIuCzMw+8zBpR7okBJNrVuEPkeb+9TIyE59I5iupD5y+lIzCQXEgl7Ks6zSGaadJP0VHjyV1kgUWcT/Ctm2itrqmq1ruejTwdbGGPsIeVhVUmo5Pxj3e5FXKaLbpkoq11ZUhKRX5sv4MphzaPf92e3/bjX5lwXcnIF9wH8HUFlwV45BwyxYfiqH6QJVt86BkJKHCWceZkHJUI72JzaxKNrTq3EJgevLbJVnp/ZemvtTfEEuCW0ChPcvF4Ex9wqHmAEkS25AxCPSzpovJj7VM9byjlNtrUdZcSBrLCGdMZvAAxf5AAULEdcUFS8tWhgDtHAqzFuSdeRU3tmVjjLwzuEiDSH0Ke09N+NZxuqYe13h2hiFhuJzCO4QERVkPNLVJvZ8/lm262Xaf0iraGO6WmECWQsfoxa5ZZ719pURg3wdY5XllPG7jj6sVd1mcFjkyaYWU64wb6JQIqrYAaeSckpNG5TuSAk35b6oGs0UgnprokP7oJolY0gTwmHR1JgV93zvYMDkKxlwOa/HdI9Cg2wXLD2/zXS4wGtPHY4OVoV4gODtQMSghWqBCU1JzRAlZcy1jlLdYpVdjZEgCz87ZKZv8F+R95hOIT4rvJ6fNdK55sYfdkP0e/8MxZaqkEfdQQxuTdR56QK7r3d3MdYdKtm+5Z83CLdu+pLa/dMih5EljLoquStMNUZnERTqVJrKD+TZ4XxfKmZV8PnZblh8iAbYzegera9GZAxO4Qvjqd6ohoPtlBHqWTIoypDdDd3md0pYweFWE0s4B6RukuRUBARXDTFOOa9wT95LS4c5gymfKky7YyffLd74/bw+GvRL3SBar5DV/7UWuMN1F2Sb8KFywGgKyh8aNkgzKFPUAPEa+CJtvO2NP1SU/g/1qL7VTm3NYMOkl4ZtzdQ7kVxPhtQcbPT/Mv6Yfi0WEnUJXLEJctux/sIqotVZRZ9IZhFDoxcKaVGAFz+Ydm1ZlWJWyvU0lD7zmi3Jcvo5pY5Vcy9lxdJ2DlElZbB0kSA/7WgCPZ8DkzMTKriHEoSvqc3K/b9wLLEXWgzIkmmzSZpObgtOFvkPuAYVfebxIE0gHdZ2AKlL1SsfjzM002Z017wCaRWf/nxyI9GtJtY3mv5esV0jqAXS91P3xwwkoYlK7JMQlX9J3+NzXRXTpfr6/Qy7w28QoPzgCsxljanS8NmHNVbrgy5dv8jFHQHOel2j+eE6h4JT18WQGqMECwixk2hmkFlndXrzTXguplK0ZRf0rxm9rFfp3i2bTNTnSt9RcpmqHj/6FPAA/2c9Hc9lmDVmAD6ZkUpCNLBCiVKAwY6frVIbopLMgVtqyQIlqiwjSWcmuarFdlSUQ8ZR/0RfMvgca8ZpB2hvDq66Sql30HsPXcE52J18TV6lo10j0pkIvVr64LSn+2u51G122ROO3r7p4RDrHYqOeEh1Stm/I0xetxWl7KfqriNmjoVvadlul7mLQ9Cw9iMB8aRL93obc4SCZzlzS7YozlRDtnbOsz6tfTXPT18VAs/pTcYTFtXSPK0j4LlMAA7Rfx1trYWG3rB4uCYSyyoU0hMmgE5ZeNBS/d3W2UKIb28HiEmiX81akE/vC4U0f7vlHJ+hZgPvn2MeOJkWzXcGEFfeCnA6mA7fCez1gvJNKPjxgi+i/Qi1DONE1Eha2yBjzzT2+j/cBxoUdek4K+xSCFvOR9HBWFtGe3URK2xqn/2JsfoaXCMV3RlPyfPxj8Pn/iBXSOm74TB3EKjGgNn7Er5GjICBLvBal7C/EiQ+veaxjyml3P+mshNP+LdCDhK8YhxgZ6A2ihGYj2f2G2Oxd00NeRbdrpUmApjdFrvM4QiHEFt3vIgMp4hhnZItMPvB7fXUsQtVAONqbCEryUHU3FHoQoKgh43hyZnXuThjEDabTk4KF5GE42s3lI7UGVLhlRH0KjFdJNz6nqw+95uwXRXzgDxy/e10/xGNI3NXeGTsk3t0XPVJuBM8nT7itOnm1Wmtx9zUOo9l6Hy28gZKOfTJnUk6CTN0X6N2TBDz9CDtL8Efd5TqppAGVmtMzFYJd1kdj17P8vrgxlF/9UXldUuzRKW1zMvOxEFzn5Nr6xSZe6Qn3z/C/tq1Zai73/GyH829cHsn0f74UGAyHu2X1DzTPXwUbR200g/bV8PoWNomUGNCFRB0eRJiRZCSfAMvyngbxuEu+F3xvYNVCHLy39rzP/E+qTVBZ5Cl1ZbM7T8pwwuCG+fLIaWgXIhzSx5tNeHJ5/n7SsQYWyX1IJGYImsQpEY9pjcM36i4va3k5Mj2WpZV6sf4RhxDMn01Y+4h1p2Gs5i/zFs/kxEmiKl5RLTZp8xeD8E5z28gNyp1GhZSLF22oqv/xwM+xjhKqFk39Kgzxu+/5H+BlpYaI2Z6T9XB+8YMEuxe27rS//OQtmXtSMLCiAoPKkjejtbHb4QOa06Ui5+adIS5qpCDQleLPDvcm1m9nyNqMpilZZNsm0uk2KpFJAfw0Vp+HgUXJ/pTcQ2lb2fRMk89MT0QQIbj8AAZ00OD7U/ZEtigcn76NI3X6ajSB073EktEAeeB4xv3c3anJaN890Pppl10IRVNFJJ3wK7KNdQcyWyYqQDpkyfRJP9mhL2XCvlAIGnCeEfYmdYJqsO7qpcoWONwfi4w8Lrf9wJbg4Qrw8eE0z2Kz3uRWGwZ0crK0RfYg/6BzdikxaFoDtDCLcgxmb/zRIaUWqhpOQy+Gm/fbdXyOthi9d03ukPkcsmmoAD9+GPNrQeoV7lPK1anLk8DkICQzJd4OjnRFPS6DX09bsLPWngXqv/+v9jERFWeM24XbjmKY+8jYE3IykCS/jM5QCm/+/4GYO1p1k+fVsDOldTCKjYIQDU4cSPO6yBCtb2mLNEkfE24KP5c/gSkwPiQ5pWuuYooxLxX6zRTiT6TweljxKINrb+dF/GCAG1DkXYF3YKLmoBvo2Uvi/wyskRY9OMLBilM4cFFPY+qKPoapgFx+sDGDr0gCkx8CVaM73kogOtwo18YTya1FIjoyid4ZCytRxTJzIPZX03ePDa47/dWBfD7y5/XzVVc9MUaCoC+1c+NUOioZBrjIXJSt9AkA1uPPrY5qymzQ78MbeiWMS5Ex0H9nYsfVgtmLNwnZFlorV9a2lTGxYi5O4XGkqs2J6BMiX8pnH1GENqPk13WRKKkCXHpyPChat6Xws+/JFlx4kCjARr8Y0fmgxcox0DplJlxlKNvu4wL3VUF6X0xqk+zFl6s3oQs87EDIkGVyXtqWUy6PG2WA615+ET2WAorRusA9HM0IxhggCBiheycz0DB+B2DX1+FnVZ4Dd5ABhQ7dXkObai3N6jgVg+lR4SHETP2vMlVfbssIdRL0JagjpgZ9staqVF4TzMtdKNqDw3803+eb5CgZyggbeROjXItUDfGuJWEhnXMBt0mLCFkm5zqPVWQXUINGOiYcnIWw2v3LTTneE31NKMozBUS9Sr27glGJgIggKAtPgwjNe+SqdT1zhY90whFQKpASVQ2V9L9xQ5KyvZkK3J95tsbVhn1BMDKPV3Jjfm13BUuynP5baEhnHEwl8ueJ+xsiUHV+PyTUMCCMeLjtaKywN67IcCAACnetasAIYBvh7u0vP6glQ5Z8Qodlny38SkEDkrNqGwTtuHRfMhI/vp3Hq3E8cxsi9Ty6AuAaFghkj7yC3iHlubY+VsPI1KTtkQx2BXCG1lBTr0OxTxAe0V6Nw/V+LEJre5RiGlScXc5WhBtTCEWmnDr+Es/ek7aolHAz15kZaqR9Y8UeSH6zeepQhBAnfiVedD4BbRf0W4BN+yd2tuCeMf/uIGpwMu5X4dth9C/r3mZH8xQuCJajvs4kZ8EDvRa5aOgmzktXKCBVpL/LBGtVNhxjRNS7tSzC/2YRcKMIgD9A/nejN0vBcIigCaC3kh3wK4zMOsZHBMu4j/Tbri0+9+s4umT7/WhaW9+DVKmtcuokl+sOhptEpvXHSVnObs6T1tBCt09enF8WUL/2l2aSdneappG6bsFLo4FMoHpR+X6LCfTzttAZyHv1BDejyCirK/YiHT4taDerOYlEYq5DzmSiNp7fG1uYSb/EPinxGsUrAaakzodNZ7A4M51N5rnHORLyv+rM0okf40oVFvsc/DoB8L4mN5DvJuOyiiId3myYfnnrgAARbAlE2ybCgUIdfGMGDjrpDMStGLtkpgqTIW6vWvyd+Yne1DsWjV+ycOLa2ltpuVZXd3vmnRAuuzxD+aCjJrdFySy5i2Xop/RBoqT1uZspN1aOz0zYGA3lOGpqMHBFmC9b9d47pt0SfvFUqrvBT7jMswvEI1CyEYroezfs8AAJ23INzRMd1Gp7CP09zXm/NFkhCnb0qFXDlLCayrskZQ/mhp9E/6ZqFuuU/cHFSKrQwTK6wjmK44APfERks+n/A8ABjBdDOh7viVJ6OoONhTHt4MF24gmUf1FjYt+E4052/kXRZ6ArIHeVS7OFPiO3fXxsMTTgLJC2RYFjr37GNB+ElUEUHGcejh95PX36ReIXRRwRLgG3eAfm6F78kQa2IaudOOeE6yQgw86GHEwlxasw8+quuILPfvB92Mzcp4BR8aYx575HPcI7L7UjkcGawpgXSIkvRQWUSIShkr0ohXCWRAfLcvzoF3T5wJTMgabBA8Wys6gq7geXveXPNx0cqboQ/ml6CKUV+07o2ekEq5PfGFw6PyV8kRj1LcwxdNlfBNcJdAuRJrKq25KBXpGUetc3pa382z5GH7SzZcAzROUftqfmBZd97thh8ZNPrpRejqTxuwtph9ONIQe63PEzGSQY3qiDAWcrqVMJ4JPv1FUpHzFljLRyThvd4P77hIP9GMJSViV5NqpRILqM8AFIsDKaD9/Ukh77Sq/aDmyZwMYWwGM+BFiPquzpNemp3MGS6+6UFviEBmTU6bTjlKwwJyYA+Xt5wgN/XaRzjck6VzCQw8HrILr01VIg3w3i2jWbLHLeE3YrCsi8seQ7H32qE31xPgwf1Bg/o2Jgf+NL9oucq8UX74kjCz6A+VZEBSyNbJqPHbhjjqw9fNdGNtaJ1f2buRpmTl8m+joGl74voLe+wGQ/pe3O7qgXdfFVWs5m9sK6yZvwivB5c4I6uBIYD8Hfjn26hdDxQFGdWYciboyZd9DkTK8nCgzHUjvGP6ebE0WCxf5DuKuSc0uTH6dOnpZQOSOFbK2xkhT1Ptog0WJYLQJStlyfp6zD5I0A/zILDYjwVt8JFn0xygPisnma66PRbvuPLxtZW57wfGtiLM8uA5dbGGtkW7If7MBalIYjlxTGWrOf6sSq+yuausytqDJ25ucuTN8Hjd/4/DdJBJD8uA0j/4dIhTYt6JSb+JeWxAF2lipdPoGxL+WMHVGEIGf/4kFNFs3EgbYk7zY9sU3M8KAfC6Potpjr/7wpDha1JrHdECJh2yEw8ODav1sSoI99LIwx85kJZtxJcT/tbqFCHk2ETY36tvNthgDypSLFMziSPZJ8eg48ORzml83v7cRt2Q9JaTLEebiL6UtdiIqACJ14+GbZQBr7uYmlSx3MFmsx55k4m7yOkVZW3QRfKaGmxNxjVWDeJ9EyXKM8vnBhFl7M6lSiLSOPnEntgHbryoa5DgEbZgUcgi6iUi2qhPdP6nEKigtcm7HkvIVpEMPFUwYUpi61IHxLIV48RCRppudbBKf/EuelDgJgLPZeCoVHLOcm8ku2w+SjoOd2kmI9fSCSuAgncX3HhtdIJE2QbPljfVKssl2mXWc925fB0N+ky2u/S987CphmhU6fx1QJhQ55djXOuNMXHCXWAYbSImYrlWjdd1/P0TJAKCnkGJwddq4sZp9qcxlmGdkPtkDVBKOA+Mc6zfqqf4ZnBbr5g4ogKdupB2kVSE/wgmxZ4+MGy0lBp6O/tkpS12tK8HeB9J2DfqYhsTeXejiCWU2cYZmigvsOTm3btVQ+9mGKsxF1dPdJnIY1ZzWbHFye6AbNyeEXl5mq3Ee6NTHdoe07RbfewIsD2XsaUL9Gz94Io8ypxXOVGDU+WX7J8Aqc3oscVnmTZPoiBwUs5yvmBy2xeAACtrR5J1S2ZV1szV+C2soi+C1KmZpAN6zjhEr9f/evLbiab4NlSJo+4khKyFg8ykRgAfVvYoEgk/YEtDbTHiBT/a1ZnKfgqG4hwsbmY8p8wfoRUK5XlLhzZC7nB4Yp+qduj3nHPOfRsBNXov7J4uw/5sJ4ZZdJ4nylkKaUHcXAJITzzvrRmrI3CdBnyIb/XFRan9kYhv29LHgENZPYzklrAIb05untosmm+Ygc279mrCNVOKPSttpfu80bsw2vDxNMdGHVP0zxRKxRxMleXh7lqG9e4nLUXL+Zz7OYpR/oCS3lZgKBKAEUS9EfqDyfPlIzaIKMLUlrCU4PsKHbSLYdx2Z2NWoRGItLBjRy+rm65SzbIBspRSer4N+esyCefXecXY84jSvZjWkeVn4IxPqI6OECZOZ+Vz5tmZ5dF5VXqU4N5djSl2R5i9WfWoMaY7lnbmgCx1Ztrr5UDgX7QTT9qMwVav/CPae3gehNTVrFoN3iZVfyugxUY1NKrmp2VWNwnXhipTl7s/QVKOPHSiPuYnT2Xs0APXfbAZgy75v6SEJe+F+82wOGU5AWQy/y5LI9RwFQUODkEcLjrrUeetY3KKQAsHZQQg5UPlQ1nYpYa7DBD1d/WXMqs1gBPkrRHM/oLv4sS8dluFXE34bbIte4Bm9Ke+nrf/v41UBLLoOx5IkKBchA74g8NhR0GFZwY5Ou12A1UomG5fY/iSsBKjsxKhjBsTdh3bYKZHCOPOSzZO7iFdVy1oi0TYk6N2nDsfwJtMghaHjOYobi7CrBunjgZau0EZaKhZIqEe+4glGNUD9QKyHFYP1fW38EMZKc+BvjjmoAHqAIir6y7Hof5NvuuEv6Rr9rwAC6A2hfMie6dnikCX7QwqDfhVEjnSq7Gy4rEoMxfbcRuhr6j0aCpFh/6iBgfqj9HC83nw0KSmUMiHaRx1uokF99WL3UC2oAYOXHIMtKVjJj0hg1YPpG1o6hwaUl/o8psWqMLam7CUxnKgU6yiZoVyNQRmZAE0Ui+9o8jL0gxMDivm+0SqlzN8XMkr+tGUoBRKDORACc8Cjj8ehUtnRpymYreFjMUHKjasRVaB6lEuX7z4huS8PlUSElH0lF3d9zyKdY3iiM9I3v+AYaDTFGGVjx2pBuPOQz3X3z6eTU47/C4cY42FEns5eARZqp8rGbU+oLvB9z4bl3hoTF8tIn9x4G+3/3VLnjUc1HiylxGG5z8nP2jjp9jQaBcH89milk9C0fvAXR8sVVa5N0olcu9zvEqqlz5lp9Aei37dVmaD3AsrZwzyD9I5ZLz2cL4UGKz+x1mUrff6S9JCFx2nj7gjf/LWS3Hd+3lg6eCcOY9Yv6JMtOmBSqRhzssLYfVCIZ3hXAZSDxIrrD7SqPpy8SrWxrb7BFV3VC3bgmdjInoAUuhZUO6o39mBp7iaNK61CeAGDxCTFOgXeleg/tfXeD9HAUZ6lMUBeRqwcZhQfqYE2by+JzyAu921nDtUz3BoXk1F3X71+wMV2ZzMmGSWH21LYH5vQzCx/RvsIwHfPOmnMdRvxIyZ4gINU5uwf4GZbpdmu3/pirgktbm1MPdk4t8FZmOeqgmooNEoY+TAuFewnhZyyajsPAryCgm5ynKhzuiwuukdc5Arw0QM/oYRdWGYMfikbmvCB7VgaKCYIUiPAgnXMNKGhX+bAcruqTdUeTINwjaJtroeb5rxXOY1ML9KAvVDRUmoQ+PlITT4Tg8dL46kp9J+6G+kDRXQRuukxWeSIqLoFXqbYAE6XaMm3JL1DCzXolYZfEw4eZmTkaIQ7f7VwbZ8S6vDjPjorkoF7AjQY26Ycy+9HBp3hAZRJIcq3Mj56TbZcrYc1lnVNhQKWGdpAYw9jENseMFPBhxs8kA+YRtWueTuxokCKI9WmTNck55vaD+K+MVwO+hEkyHdl8n5ids4ckwXs9e/qocqZOzmiCFsmyex/3ZygrZTdEsU08IyhWfO67tKWrePi3uB9VMMWAQ+BhUyKCOQ1XmPDDCebBE0ru5X9g4Nx68V7Qv2CJvNQMemEnMafPD2iFZSch/8SNe+IF+o62KZCZ5rk7AV7A7qSS3vvbhi5Axtk6c6vibi3A5wGsMCkhx7UZCXB8DV59IR7UOZRtU0WykQ80nbl2fNvygUKmf9NY7q1uiv1RYh8f8sUJGsgvTpMLBeYvB3oEI1zl6UaYvBhPkyKIYLOnD4r/W+mz+Bi/5ciRu96fCaecWz1Mbb6MwGWDSN08iZtOze6iX3xLzSvXlrSJu+zrhGFDjeFOv5ITjUtKADx94mHSNglrnw0Whm2g/bWEKQhYL37asijnREf1qjKscVya3D8PW6j2aGukCPmhUeA4vl5hclNSRIR71hmyIAHesNB9TI79HpqUuEsj6QW8rdNCVEPvFEXxJm6ZeUjdaq8ejx24nHaZnqTt2sXrfVp55eSBvhoF9KeZMCV8DHc5bq2aUIJuB5Wk2belrKrwxijsYp3jOk8RDUCnJwPYklMfYMxWaPYWKL/62jGk0A1J4KiyFCv2SuBHQyHyOGrR6QsBzL9xfmbfesbXsosnE1D0n3m7M3Hf3fb9rFDwaX80v/JX+yecidHab5mgdSDMwI/YjdmnVLI9vtPGRQbfrVHCleWUDtsA0GGMnLoBqVMbDVuTUxGDR3VjlMS513fJiap/YJ3nT7EptDiQnmtyc4W8F9RG/Qstj0WGL74XP85GjlZnE7JFW3LWalIqtQST2LZuT94IUSFyOw7TDE6qB4Q2VJtUIrgn4qYOMvmHkEEH7MG+5To5V29c/K4KI+tlay8G1WhnkN6rvJyhc7Bp1V7PrGiwpQP9caBFR4RhcRttsO9haGUgTDfHwzPaUvG1KnYFQ6+/IePeN+KnBCRCPcdhZ1+9YpQD3jhGhhgZEXzYJaLOkz3CgXL8uveTDTYs7s3GByCZIoHdXFF4e3NvQk/zarh23x0X5CGaCrkliW+tmc9GicJzB5PjLIUcc0Y21mXodgtrbjRr5Zxrpk74x/1Es3NPTOTtGahRhb4xNTIa5KhPmKUH8b/yegEOIBnXLwZcArUa6T7W3dE08r9Sk2Vnu57B1BWBtRy9O01wgFmt3eZVZURwOvKs6xNaRauZsKr7dYjndYb+Cfrq1JqRkXsIBJBD+5SRhw+f2E2mfwF6aoWWq+QSwIkIrukTLBo/G2ruBpEqKZnAzW9NSXcEp+HD/D5pdbo53jyHiLERd+Rdy/MKofnbVP0v2wdmRH2mbyT2ap9q71w/SXz+2g7HaeQJGTrKyNRuNIYhkGkJrRgfIMXlvqbGfxKceGHytRyL7d9/doT/kkG2YABA1cg7GgQw12k35e5VTEEW7DiFs2fLfGWtY5ProMdw7TKkOG2ay+itc+qIQVJCjgEjRFhpQIMdjQxIiFaUJUEFixO9oVZW6UY0G4WaACZxGewxEXD4akbs1r5gNMQC8hzYsz+EZuUNyGSzfaNdW4NCdz9yonOGOipjgA+xQuQy7xIsTh5j+57AriMxsZ8s+mrllTTldLdHdUajUxPqBTaCJ23Y18nMEtHO9HwYhWg3t+QoqUvL4JFAVQDi64shXGRKMR7xBOhOn1SRm8yD3L7vhIfg1WYzG3PC7LlPgz1kLy5X2f3Sz5UdqwJu57ELTcZXvhSeeE75isOGk47C0uTxFxkpSsj5GXgJIVImHtkedxJe8tgWKzNoQFCBey655jwJfgVbqchpMZlmGYjXmGHJHE8LrLoPQC6Ix5i5jkEhosFRdNNg1CJvdTDriUuQcRyi54GJndesjd/8/GOp0tJxzmvTuMqUDqdef1G00gKnN+JszrVcIQyD2056M6eOlkxM7isGJWk1cAJqp40mV2QOIgd8kHURJGo5hFnC+bENd25kJ/v/X+KaBR3ftqEhSPf5MyAxW2xYnJ4Tkg1uEETWxVGKZcrlbGBl/t0Wo5IueJJuowQFes5G+0isWp80IjMzwawWOzCPyA+10PJB3evwZQeqatA7ALuEcbTLTJhQkL20TmyvIb69M7ED72CZVROBzO7kgmVNRSyYkBakezYUd6dSlMCsd0uJlScJTEVBoL0hx+GyrJ1UejqWfsHQw32VpYAb5WDrnjHdnpIedsBNMt+qrUqjOvwFbh3ZMq8JgtP1DtWACxuU/tuCOtCwY8mZVnJ317nq5g8R3TjLN5J7bmX3MGGMP9O9cO6Q7FfkxqqacVohJKMMm9VGMT2Fk1nfP0v1GaPM9twY3fnw6VzjYVM8/OIDC9/4d322spHndrS1Cgsvabkwx0V1VPH5FPq6oonDWIMfNw2kYGL9Y8/za+ffazcldLSGHgpxdOvmrfvfknmoMGgAX2J1Qk4eXE9TZ6znaF33i1EX9HUwnCNmwTzQ4ddM1FxUDcHEAueFPrifXk6m7MFFH4MyFNZr0jNV1A2C5I40DzsnMtb8dSXIMCZENcp9ra4EURKAGsTIARCUG11Mu3qWteFDFKrJd0ZF9x02otiaHrMEIZnhuAJtf5BsR12bCC4lOzAR1qeoGhRJARgTMlJd4yJxw5ZPW99uhLVfImHvzwEZYpSDZEVa+z8ouN/sJWJvE7agAipd7fvh0eomoFd1Yp1YeI10jeJnoCbQUCzs0mw8/YDgXQ+jXcTsY49ezTZXdAqgEYCSb7BYM5dk8C95nb29rBERulLqELkJcWDXGtn8ctTl24r5kRHAhFDgl8KMNhKycHcCiMqMyP67hCpYhB//a22qxTEu5OGKrX4xCegic53pXAt4Aok5gzbLcqb+cre42X4UIo9d3JVuX8dAfp964VsG3/iiLbw2mxvco8RP6GZ3rSQDpA4ghFzCabslXGFAlpciw9s3ywEwhd+RSN4Vc9bxn1Fl4e0T+mhJUldFOkWD9KhTrYhMXUZmbuX9JrqXAp6TWwtxV2oNYmNRs5pZuWsNFHl/XlXyXtyHQSvgMdL2A0iFYlQkZadMY0CFgxaWXmiz0wBGXT2hbUCBezg6QwX5P/4BE8AXax7fZ2CyRGyv7veyuoivohDEjkOxPoM4bMbAMH08zaYenKxa40HRo0rd8P1z1UukT8ilPTPrdBvRBhbsGsRP6ZuE55u0YV2oJSNYCT7Ljb7T3tyxcTEhbgicBbiV/AEbArxm+IyhIcFgM3X367NB9/PGAzGrlVFrZSmLf8qGCTni4txsDQs9AWOewrGKBjvk84v+52NEc1Cx2JX9xXiFNDSjM+JV+Qp1SkaSx+oOhKi/c7xKqkBBGZGWeMzzhZvyu3kANtElmciwyEMhWAmCgMNNxnxALX3Ag4AKFpLx/Bmq+iDpYDh5BEs6yDxpB8Yq6qdZHnt0DJyBpw00HwBnx1uXZ+5GLePUuCPZEz2Q4zhyHTGnvDI+uYeYLY3EWYjsqq9akWE3tyns02vmkDe3vaQQeUgHrNz7z5eeB7knUN1oRzbaWSQ2nnA5Pq1jljrGgokQSfmK3FeqzFYCX7QYQNtqLe6UfM2baA9I6x4uWHYA+T99MoksWzxRTSHiL3LCpCJKLYRrAaE47wMm1p6pbV4HerYm4eH/UP3IefwQY06d+zrtHKqeU8YdR7Gn7SSIixLTnBXwStpAXIGovFkfdoabrT+cs+BxkNX9YxaZO170sQgaI+6XdiGvE5v7WjwEyfklIMZrsexEanQnm71SvSHBKNpup+UZekdSoq2k3hbYSI9XU5mo4JLJCGcgZHAwjchrIpp2pTnb3+7nqOw6qpvwXvqol4vEJkBURGQRQ/zvID2F+Kso1Q4CZTcyXHZfe7wTRKeS/IhVKYHZTTLhJ/O9/AsEMj46EfImBB4SKOF9WWoAtuPqelfGyO23y75wnOuTUF3GqiaCubJtKvbGcDRADmeNw5DLJ4pJgi5aHEb8/IU/lGibIhyj9sMvajCsbDhJaa4Bi0FFAHiAdJTYNDXoBoV36MUqokhzm0OXG5VEf1RWhmEsmWBVSgXH0rSMDe97kXy6+cnncPwwZaP6BOklV1a+bD3rM1NX0UVsnJwTDVsF3mYTsKxiJJ01iOGsSJvRF5wcFNycVTOzAoy0ZGTX6W2hmh80ht2cvGX+WlZBBOYXI/lwkDUAQs74TFGF0UbQCD9VOifzSkMJKjAOhEl6es5a9T/bMuTVe1mb3jkzl9nj+bJgFBoyKdYFr7Z5/aI9n6QaX9nNFiRbF4w+KtfQ8QGJ6WfFiQ9ah88TWuza1VfOUF5KJIOcHrzG4KnrJ/n4buHCni86oRILDhYYa1L4IwJh5OMKZZhuOZNvDkTFGxbBG3njLKV0DWvmXxTN8k2L08yBblbaolnwamO8bkNay0uhlV4V/SAOwMAHt5PJ5UnjrIrU5tyWmfIZyeufvNyJutgZa6iiAK0aHPwBIgpciR5L8wTT8NWG3VrMRCC1jAFls2Y6HCR3QjqlRIW5+dTPwi3VCudlFEWNimN4mOQ+bXzX2jlLmOtjWKxI/4hX8PKTDH7Kd2nBPqndtOiOeR7XVJDFXLUJc/QMVwChwYyn5E/gvsGsb2wetvX+ca4nRnJeC/ijhGbPlmsXx0woUiobRWD91LC40cu4NO1afAOKs2iZhAfMh1cWCO6DCyvMNfGdI+XkIe7DNpU4HGhlbXC89/9yg/N8nS17o5rf2nvH1M8FdYDDVBby8RcvPhOXXmx5gm/2LxE8k9Lqbc5jI2v7gKA1ZGKU7qFewiDsR5M2E+bmD/3FLTbx1GOnJgwRc5voJBQZIvlOoWlsYcTY73GZcSSKtsvNJIsnmW3r1P7Dc70eUBrN7xJc0iWp8S8yMB1T42S4rn8erj1p5fR00Nq3CopcH/YYPGcJgcBwRdetRjOjoISPBRZu67T0SSTpy64H0tQs+t+iQ7aXZ3rVGWjrxoz9PztPQPhXpQmRX2f97KmGTQHjAZJxrSxHi7pba/7bTBTWshGZ53WGVfIpP4jp8c5XFAgUV4cBb7PWAh5DTc8eUMtTZ8AXyPnvdr6mB1AZe8Kk+k/1ycQV3O9LIAAdvHa+Sebm4wU98qLHQ5YT8wTA4PtwK/xoaeBfvoUYi5jJmrhSqGoknvyFlneySRoBdd4v+dlnKFCjfC5RBk1MJHr6DnI/ImBxvdLetC/cFxLQ2Y+mPYdM21X1jXL8cnkFOx5mGYqV/CJu/eZ3WPXH+ivdg97tuC3tqZdF5WbWyHoSUuOG2P0cAporUocmnX6jxOuaGr3uJhjbIFyhlwzqgJ2I9ilWUkWklH7+ssvt4De8ZUqBLj2xWG1U4c6HBlL+UHj401QVuQBQCY6V25HdbiUjJBL9ZeONCGYPGYW1lakaLj7jjEMzxfof46zH3+IHMrGQZyRL1f9Yoll0GK/xTqGr9Fm1qWOPxfmVpbHvAmtHeM/b7nTSK5ZgDmn2RKAwy6RJvGHbCRnE7Zz2N4HIjCLkZDxCAJgIYjGiUDsZ6gNVOq+mX0TrFKmdbKiLl8SS7twxRqJhYeAzLxO2ndKoHSCVA0/P4qJSs/KHUNNCUpGqqtoYvA/oZkkbFjSDm8MqgDxaiZL4n0L8jBA5eBEa82NfepwI4mWv2hKMxfMH30WcvBbzOAPfgQXvVkODTVYAAXmc4EA9GxQcuDe0eG8si5Vh2T70X/oqE7N3JEZS7Xx+s3IbvLQArYB3NK29RJ+YWz36b3hQHBSJw5cQ1stgi6wRsD2KDiD37tTUTzEs0Mst+4gmX9Qj4cDWmTDN9Kb3eRMdBzU7rzebW1wFqRikyr12hTkALFM9tlrQdVnlb9SRZuLNOMpKL5HffXHwEsAADOsRFkmi7qsQCi5eChd72zOGNsMzZRM0XT4IKz/ToU7pNG13vrjn2HUub8M9ULBM7+6Ua9i+6bHaJHz3WXhdaFwwzyZ7MAtPsLPnQJYf5FmbwmGmTQR/X1D6nKO/lpsI6FClOURduaY07hrw/uGspLUupdjwiOUmwPiRjsqNkl3HM6v5e22zYYIcyvMjgreSK6FGgSzyZ683IETw5rFjXwZ45k9Dh60oNYDAUKsLPwpckaadXxIgecKfYeCC8UtFrxbYHhgCfmKqc2ElFT6nq9ahmqJS0p9tHH8aV0/BIl/jYznhd0vmtShn2dOQ892phJTcYNKKsebILr9oWjy0VSTLEGf/nYSi1TGPOUnv28qfjOFi7wB1bTBvTDh+lpORi/QYso85FWG9orSxGuUhN1QHvG4Jwac0IJ6QTFLBQXC36WsG+Z8eybgNbD9PbCGgMAPlVq0i+Vnpf1Icm2GJ5IT5MgjycekvSfAIRUorXUfA5bxobZTJ/fIyikD/9x9tg9eG4y+DoPP5Djoy9B6jasMRPNyu060EW3RBTp6fM6aIIeDkcWbKI73jo9zYAqra3exqJiX/+Wt0o3I3h2kjB46/dK6vevcfcPEa23lGETxqS+39kf/ElpON8uOwAt4sNkdLoaSUc2IwzL4Sfnw8EZfcpCUzsNE99xOok2f+jAMFxPMJHeU9FD6PLtY969f1Sd+JToL8Z6HkJNd6gyxs717DKc3iHS6g0hWtnbmwLhbghZH0Afubk3jc0aISV42NAN73sb6DdaCENsSfMVI8gAAIolMtExVdXw/AotZhTbzzB0U3G8SmAGgtPtGjtIMIdcldx5My25vckE5ixcO1JF09JBt2xfzNMT7PcT255IIicF7d0oFJs1ECWtqtMWewEJG32iclymrkb3lamIdSjZQcvIG8WzQXsU0wrlTnkCdpRzmgPhsLmE+crUM96ecYk+LPSp2rwIF8WKEkABqnrL0RlJUNfdX7R7N7Dj8pD4H59gPAAAJo4UnA72l7NG5SXUqmA7tKCxW58zBmSei4Lq2w2BXvMwLi6eDrdQsweAZA0LNA3AhlyPnBcj6OfHjvvX6b4z+Q9ZFbfO7lE58NU488zM/HWH64U3gvLhhumUxGitdiJpGQ2/zp8aDOAjn1+frwvjCsc/f9JGpKz4lVxRjJOqmutm4KCrSxOlgRdAqiQEz6FipGb+xmrqqgt2H+MkL0XqD1m/Xq5ERvW7EiJq14+jrj9E1j3lDzQD17rvU1Hc7RjLUBsiVJJD+rH1rrPuS3yA8qX3Nkq895jKeMlcjQt2tdyZiMhnMNoM8LiljovA4/olsNUGIMGpcH+206cT++ILzUfu+b94zKGHVKrnICixyuRVYHxoNFUMyyz9DcsY8Qe4gUczaUH0UkVp6Dryl8Yt1muBoTC1S8zTgLudNZjbIxSbqaPWGxzza3BZ2PbPK3be/LTSWafNBMQNb47hzEQnWhmLnce3F/FX6H9vSkPn8p82YyCfv24hv7OfJGyzqfF48Y2fd/NnmBB3rd8qPwfZ0OL5WUoFg3q1sZCmOhhSfH0eon/x3Tfpdx0CHDRp2i9Sjgf4xJoNal/DF5a8UziLku0ei5sEFijBlBbt0voX4mrM3WPWHtoPEGAndhrYNW44StjPJMT4EFbd00PjY840E4M+hyb0dxohDd+KgQ8XMjXDeb+kb2Zi6axWHhbxPslaFfZ4p0U61h/THS/92EIQkXyhkyknc9XxxSZsvxPbvZiDJ/MQc+JlYkdtI8e9T8W/bAeEgpBF8IUyo4MgIa0A6eIGU3ChOH5l51VeY/yvcAMGw8VpURwum+p7H09Jm6LWkCBLog4nHj52CQgk8B7lMitXcA3Vtu3LS+IPnYubTAneUY2uVtjdARBFAWb3dzopbOryEuG2A9IAAFKZruupxFRpFqt7n8VW29fRmyxS778CjdhhDIqIz/ZX8C1WrapsBQNJKYkJpQgAwc5LGwCJmD9u+GubSyBYiwkrrDAZDT5FEqvon4eb2rB2XSjKOEzai9N2aT4zjr/f9o8XNazYoiyYicACn8LMS0AJSCqWL7eF1RmFsWepMeK9lf8lAosvYISY9dUH7FuxP6KAPDPHYwCiS5X8Mc9xoLUfyFFVI6KEvaQLD/m3MjdooVypt6o0vFWm2SEY/VU85NEmX4rTlL2ngXMCwClenUAJs2Dk4dTPwE7jfJVQg1+3dPYkvxrkC15UDCs4A3SGc7Q7w9qGIamhEYKTMe3Fy3KkR+nKbU3K8NwNSiWymYnfN/bJNQs1vdjnvLSUyAAJ127P0G8EoaGAQChWi92WspebEFAhY8PemVjKnGqAH9BzKnLHb82mLI1X3b15vmLB5x420o2O4YOSXNpMbtftfUxSTtrBjgvYG/NcsbRUILJeb+/T+vqI/QKxebMliILbOnSE5CVNz5Jj2eMq08lIY/FlWjXy7GQzIKTooGOCmxOnDiOy6onsxwanLvNC5rW2lRpzkrDPaSu0A0xDPdiwNoXpCaZxY6EoGa7bZptyy8aHpb17OzxoRQOHW0JFn2R5yZg+TgVxvR4JrzrRug74V1r6dtGMSnq3V3PvJQFdFjL3+3+JuSVh0dqKvidDHTipbmMc0dLkCxXMMTHycrUjDhkGhgNYLLdpi3X9ahx/llL3srYpQVxtFKA16PFqxxJuRJ4x4mNpHUrNC098BB6v0twC4/NX7jMDqnbkAAAo4ot6/endG2Lvl3ESf7DEtwcTXYdEPU3gzoXhEdBXSaIZrz6IjzZAtHC7NsFZBQGpXKigciWBEJ3/cWKogsz8KYvqEMo+tBEl40kMSWNaqwsjgxE8ivq4BoeC6zQHo7H/nIfXTyWAj+hOvdLVhkqH8RZ8AZhtpTHs0reXik98ndoTVEWYTXm5A5sHrFZz7nt0AEyhX4Oeg/Rt0zssLeKfel3coqUc3qvnF0MMd5PxWS5GicFahum1Qtpgv5EU4tWdoNm+c6ZeOBylsNnoXp2bzmNRpNRZxcpi20gJHyZrcN8PWhyO0h98Ty2nIUx0bAmT7Ge7SHuKfkxB2zEWaOrJJqdGZRMPR3m48z15WVw4almpqv9V7HIjFngHf52mj7lj04ioOcQAAAQmnyvAu5LdwUyh8hKTLSAJ8bljmxFSvZ18dv7Ga4hYBy7Rd4AdFHF+Kw2gbk8JLcbAzvIXYywM3votNhXMIfHprk3QB8uXREQhjiyO1DuY2mSvVmhYTD8WVh3mhYR03OZvmZ7rhRKkCN8t4HxZ/6ZI5wpaFtoB0UCDojpRESdIWc4hIwMwds+M/LeC6+8CUp344QpTNDf2Xkid1kER56VYnelS2KEJZnkDgyA4weJxtN1WFoVKb3+UlL/19rl3rJfQdBe92PRs3gq7P22mwTzphKzSnXIW9A8QAAAAAAAAAAAAAAAAAAAAAAAAAAAAAAAAAAAAAAAAAAAAAAAAAAAAAAAADv/VQd3y7ye67aejxdWq+e9/XET3Rv8u7tBrfvy9ThaodoiKb3nTRo/pMt6riqi3Ty9TgZx4NAAAAAABbfq/kvETHzr8FHNcWMOc8GRTEV+2jPd0Lexs4ICsZ3g8t57eIB3hOgwL9W5Jdlhq9nk6Xp1vegiBsSEYx1tRmro9SmLwaPZl05m9SfACc49L/1AwszZB7R9eiNQFHGeCBltNbM2mx62mqKw+25Y8jWMHyCoSx/8ds3gAnG5p3AJ07wAi9mv0YwT1EcIgg838FCrXFxf4/yCAT6/WEwR1i0nfgY0w8IShnMzMrWc+KrLy9CZsU/ZSdr+vA8gjIDYrcyXn+q3SSszas/JwPnvbmDGrf94HosslN2h+LEzdso+3maiyARbkLuv+CXDpwXSnvEHul2pGtrJ0lUzLtCO9GdLMM+jgiNVoctZnp9Kn2plvyBJChNgMR4KH8XTRfRv8lL+U35RxEAc7XfodklK/rVQpOMCNeMarFa7dvHHZzvCdpcp0j/5My8ZFamTNF36/LYgMfqYVg5QGycy9rWAFVyw4u4S0PCmhf0OH6ZeC+MYLrXqzQ4Aljl+H5ip+39ZKZbJKE1bCdL1UHAm2iJR/fRFcmGyyVcBwcl/XJaH3z70eiuAM1eOWTgMjF/U5zq04hpHQRKBRNO1SaJPflpzmzl/99zvx7hhS/UvCJdrJ8FZbClRtEFA6mzpP8dsG2fIRBlmwjwmHXJLNQCjFcpEMPeYVckZEuYSdLprJB/HZCUr/2zEO0jJHXMnRXor63kckJmG8LwTtTixlGnjxooGsUos+wpRt43qlKNtwDG/ODy+JDcFkrjimC9hj+vCDAOGFMiMh1NB9pejv/Ova+PIw4vyWv18ZmJVC9nI1/asMqBl4ReVTUdlgmCiCYY1estt1MB/tguYL8GuMsvlN691k2jVJxHVbi/u1a0vdxd/lZSgZ4+p9/tDPWgL1tSqQUF3b6eHx+oRJNFonuLpvG1dZU8AAXP85Tiu1vKBPSfJB01vr3PKL4oVMnWNlFE2Qssm32KI+hpgeNT8wZ9SRY+n1fIrfLuY34yt80iQddD31BOzGyqw8n5hECkA6LEPjgC9uP2surdOXc/6+/EQRexG/vgsk6jk8BwtAY+u4A29BX/l645Wj3plYRB1G3QGXSzxrtuebfjk/u6WQhtEThOPRYU9zu9nbIbtDt7/5cSJxIbn6gyjaiLddUKvXMos187hQtJ8Bs+Xabn8AKRpuW531vX5ujuymgGmCtS2T4oHcPdekLFwh1SL1jqbqqIQI8fPJXpXLQgSDE7LqiI8wkpttYZIv3rDfXFoyKIf4FaoMn9OTNvlKw1x81GAKdGeeLxhZlV9RRCVTRlaGhCtLhKaahZ2vkyG3MjP9+xS0ZYKSI/lKigDdThRZ3DSTWQe9ouNq5u1gSjEMmDk7TzyYOodCPWj1SGTY3oxABB3vpGIluth2PmJrbG0Sci+7uJ7b8tw93dREZKyN0kx4NvxsykWmUfSvz19nx8MOu7TklejN9F0Eymmws4BETAbrXhTfru3cmiGPWQaxEIY5IVMzaU1cAnMN0TXpnYz40RvJ8BiJ1ekjfGTMz1Fr8DyKXi6uqxJ3x/6/jxXAgq/AJcW9vbYjtD5alygVe2z7CfRBraFkvEuQNo7aFudtppCEjgqW5ckG43jZHFf/glO03b4P0q2ZRAFnx1G2cb8K87RyxAlZpzBcRge5xaHq5XruaE8Kexe3kfGyDRkkkb5oQ/APd4lQiEG4+1TMfcqMAycRhbWQd2hK+oetjH2dAPf5+q9dr6x51UTmSQLpba9CHh7hIHslDA8wdpaZFFyLNCF589cyNwWxR91olfDsS5g3f07K/WcYwycL68UAMkow/SdAj6cJ6sXTM7ymff3rJpMv+6ScdUnLS95zNEwiVtlGlMMM3w0g3W9HkdKwSzPTaqiKvV44Pp7w4zLF3RB3O/KoLT3rhl6yV6lpdFzHuhwKZy02eT8SazxPfSzb4P0jSw3DsO5yJNEikIGISTvi1sk428qB6M9rO/DMeGsD2FOucyjL+5QPWrH/lL7CUF6x7nBPwWU8lz3+2lHjBskNpqngGPNn8ki4zR0c4HQF1HW+vjIblxUVUf7SwhfrlRK4oiAvpcS5KYLIn7Ks2oftkUTdB8Ej5QogtCCuBAf1UEBaKC0Dlx+NsQh5xX0Jko5S2SKIpVw/CgP48YX18JWBVNzBKpaoscO3GyGVMsCp5nzXFML4F/8AdeQfCcnhmPpW2tfdSPEU7rSc2+6zWyIIKbTL4RlddlNEG3Y/vpH+qggFz/VQWxvKx+wquSrFk2Joi86fS85mbUN68VSbw+Mx5TBSgRbBkdM0JVUC7t3Wlrvy+f2wJQrjykDJdtmPMJL+qggcv6qCVJQ0DGC+c8EAJcwVKDMsi+qEfVofiV/fyD85n8qp/T5zOzm+j3VIof7zFD3q9MEa6hvOKNGO9UNyvkodNL8q+ryzavxHhTLAazNtxX1mbYNkmxgDQsX92CjER47C7uNERfvtR+/7F0oJoSsmah1Y4ojecu/6qCKz3ib5IuOeCO6iRH5R+TselARWSopgkUnS91u9IPRsUKN7PF8DNHeGSctW4JM6e3xSHaXtQAQzyeB8+i0zC4LXX/eUMY3k9a0HwL6p5Xyepbpsz401dM6QO2e4gddHIR6uKNneRLHT38PsTMKvdQzqo6eVMr/VQQOX9VBGuB2J3pHUGGPD6z/mTAZ3qPC9J2b+nqk53vBK6t0xaHQKuEECTx2f8MTDErPLsdLCbkBKN0ni+tPYcF8d3XEBL/Xmdc6ZQLrHGaMuNXFQIXoISvQH5eYfq53qwoV6wa3CXhVV3P8gCPJvZ9UzrJg7btEzr0K/CnkkgIp2LEYM660+U8Ux+XkD2VZzD2mybJnJwNuxJEhYLYH1fD7uaK9tncwbHx64c77pwPn7a9bGWQ6wzshPv6HJRFVD+GcTRTCXZ6j65hqSMD7JFQtBYAWPO0Q6JqD+1ityG2L99xkxiJQ0Jh0zK/W++Xwpe9isrdta2dOnCygn4TMJhsRpB3p65PgB9l+EdFu4AovkGd2WBD5CNn4inchqodwzLYdMMXpG+K1FvXfJhp8dZ5KaY874k//uITiacdFiyRJDXh+xfztLiWghvv1PV/zyGoXlWLaMBhFwNRu5Hz4UZpfqa5yL2+5umHVQQcX5mGlwGe/7yoyCvf0rtmdkj9lr5xi5F7bg1qMAqYTUu1F+K5sRV7o6/6ah9VCvPoUowlmpT5kOfUazXJI8nkpz/gF2fO4Gj0IllsMKvDy3UoxwfPlrV8cAEFgw6TEdv5ckfRzpv+OxNNt9dmeSGiZaeJCf60CIVqiJfgrpAEBpT8BJ2pDXxQ9T2pX7wk/WyZ0RHhyXSuRoP9HhZFx75X2mub2iPKAEQxEjn/xQkVtlicDOR4miUumiqRvKM/EdYasXT4arLpFai1ZamExvyB/jSm81Fxh5TMEZ2nV0/Y7T3V7jYNORfC8f9ZTxc9tOdheXpHbXuAvWxoDyPQru76t9mFqeuP1YG/siGnyS5ZUsngWcuyK3qxFUZ1TuA99oAy5L6Je8b4XZRjVrci+lbvUgZ/T8FhIKdJQflohK+ZA2RxcOpb9soDavinsQvaWcSpqPQenKwk27Z03tA1iI5VM6PovgZGOLkWha8eEEM1zfP2QYENiHN4Xkahi3UIghM0lTGdsKY5eaMlNcvISt674zopwRNVff9jQteiy1brIaGEqtHp6/vR2wxqUXTJsJGYgyODfKWr/cKHqiLdI88whF/5IiGjg3xCv2d4SIsHsmOqvAS0w3P5lA+nl+UbuUjJQrXIM5eKUzZQ3MUSd7ipW4xYAlaxCLebndAeLJPgkkQAYLXXItv4GiZhF7bNb9j07i5L/dYyaghXN4D/uTfMTPNR04oIlvig1tX8mOxQo3fL7c3bVmfdeavasFc7KkSmUvETIbrSsL+aRHKKuSyCL9mzGrYr4fzKVJf3fRuxqezUE9HyEzasevkobREeTCcdJOP2a3CUbvBIm5SxaGlxPSpZiPJWrjG2+Cpa7xmxOnAvmVe81MZOCifDArv2Mp1XvVA+pyMxAWV/m+VkTtrYMu3Fx+Oum32/GVmSk2h1vDN/gK5ihgxvGtvxG0p6k/0nfx3oqTGUmqYpW9dqpl3Hdr/sPQbhCeq/dc8+VDGSxId8/hwN1RdLlZSAwSefCm0aEsMUQrfdWk/fJrvkfJbEwBNLo2KoBUmKpJqU1ltL3YH+kJq7u23qGcPmm1XjRFeQtgg3rn1kz1xPjd98LgZoa+SYwsbzVO7FYrqeG7XWkZsPkGhVdceWSE+V3og3xF1xW9Dd4jxpSpi4qqCJveBm+GN2RU3qPKrhJWGCbqc//i2Kxeem1mrRq/oii+pAafvicFmCEamAqdjsYA1lTcaGhVSizYfhsLcjoaPExPZUjDwM/uHsT+X2LNxrpWUMPOk8ekH5VDc6D5Pilf/UqpZJqGWhkgz8PcTdDmocgT67cBva84mAAihwf/g7hhQJ3fuSH1YoUxMb9e2D6ZfnNlvr8hKkk+ZfAvYzFMaAknJnv0TsNQwXFLF+voLGhIle4nPD3+dn416z9cu9s7mPU5dQeJWq07SsGnR4B1cuS2LvZnvEWZG2j3PpwKhI5hmZN9zw3Kf5ojp7DWpRL50u/mvu2zrmNXgYls809QnVt2dU3h7UMZy5FTGmfjeFlkp7Vzx9RGdVKlYavhcfdpqmEQKEAZsyqPGVv0aAoADsC+zo3QFf3JKGh9D0669+DXyB41BqE1DDKMvS3hnRnx2pj9I+w/88LfDWGf1tvapjaMb5+WGRvqhG/l+9KUUzGYxJ346SQP3m+WuejnB5f8HwsU2NSMfPZIhM+KqCnkx7cnsCidpE/7kd3Pe1dpdNpLowOHoUmknYFhNwcFoatQD+fgfpCFJojSvZcTBbNAw11RwNckygb/1AFpyx2vaXd8eYjsbvD7kyjnYHcn7oDsL8ofUc1dX7fpm/hSrUzWTQ+6/vWTlVuFivHpykcgn/fddGgmZ2KfxnmkDAU6EDJ7mKyAcrRrSA6/9aoWhGm+V4yR08ix23jwYrpbItv5hn+spGGCcz2UOy2a8wq3xyUa9OEvC3i4USyCxB7xdl7ycefi2l3mUk3VEQJ4s/XWggTcYgKXKiKfALEM+opz1WOreHmopGHJjjchnAOWNz+t7qsfm06I5LBRTXCSMNNtcgAd8VBT80auuXZnwmrEwGc0oGLJ4otgaKp4n+yTu/33NTa4t5oCciyH1IkWNRMc7Dt/dqgbrSoa2PioJEndawch/J7LG2qxr9obgU8Q9sksuMhtvY0Okg+r0zlqX0apadifqoZQP+IwmLbY4HWjOAuFhPQrAiywU9U0u4mlmXgOU4iBovNGd1ONqfE3kzNuiIMLecxEbm6cZO/tYhIwHAnfgz/WJsGl48CCV/yIMHbbWz0TV8G/domaLUCedP9yq0R30RnGVs0idMYbOwc6pZIZ/fsA8Rfxom6Xq6ug0/FPXL5+ktp9gpu/eWYECZrsJWKy6Ip3dN/YrVJUZeOh6OajJJupd2Z72EhKXL6k6NL+CkWdE17bjTgAvWEC0aa7qUhWH7ex/7J81jIMjI1zCH7JH+Axc6DNPLFnnZKKQJTm3pE0vmdC0LMGbjIIYt/KW+/t/J492hpO0oWQdfsuYQ98NeLSYqzz+g9/XE8eJ5OY3DezDtLQXBSX62DPEiV6+t/QftzChoAaqeKRJVaXMI4331Y5QrWqkwVlOVV6exWgR5GNPPGqMlbcUN5THmyoEzBu5PNNkB4fjVMdOoxHyF5Y3AbooZND+iNVZGfaCDIwTFPhGDCagb3Npb8BI8WAFbYPsBXwHX68WVLxzjtbblzynxqMCl3sUhX773lFzFksoj5PtHGcD2Q+h4pVGmrVlJgSJkSAHc6hhQkDWllm1FFvN1X/uehsTyOhdfrnFZ+2adehfdpxXVGT+qhlA/4jCYttjgdaM4C4WE9CsCLLBT1TS8XU6WAA8lY0GPyO/XebY1MHW+WSbpTSAYWEka920C/NNW/QueECgNrq4jNGvuiZoBsXN7ys4twGkCXxVX76aXPsWDRirle+VlcOzwpk0EoM/7AooBLfHsB/MH4d2PWcWjR4DWTisszKfIhiPKWizq6Mu1M3ylX5LWt4WAcxDGg3bvIBcYY83vpSTQuNLoCTr17mIAQjGYMwFtA4EvlUGh6xHYR4cRfvrJFq+nPyVf2N4fZMjrOkTdTSeaDPZW7QE93LHHSNcZe6HeFgrjtlj8EscrO6lR+AhsF/wrLLJz/iIta0HlNhlJcOpFjbRVJ/uBQ5iQb89rQsPp8Abir/UE9OSx/SZT1ySYpOdyKSEga3OL17W4ayVBUfTm0QlV69ZV3xylIPlGoB9yyXnc9vLyZs5iHPbgqpsM/Ro96SMzXJz9iUCTw83dgsppCpka006umlz7Fg0mF9enYaS6MNACqhIXwn5tTmZdAUnXVhIzThXVxGopct0Vy36TJqcqyI/8zOi/EtY3kLK5jYfcAe00/PZQGu1XLGsbeQ1uPBUB+qbfHu+6qDBZdjbGfbYNecTDJ32JH+KkDEstyjrpUrjEaEFp033MIoT6M42HUr42qcbQnUWKzH+A6r/lH9FWVnFeFcDyfbFObELOvvQyCaJyuYVP/sJbnxKqTY/b1r/eILNpb5WOjXsL/dO9jPAsLiYG2B0DvUV5llzY9ALjcsnKNm58uh/FzXL262CiaoAVT0Xsv6IVqQtCA1DB83U/dq0KQQu639inVxFFGJETZdZkDsF8utFdwx6Kh6t7udItBPmbKfyX8GVEkQnGVnsRfaumbJ1V2Kdq/acV9gPtVrrcpLs3/O/GL6v/8C/hTnRadfrPkDcc7dOiLnwHRFGqTlIW5zxIJrLaDanPI+wCMzRyEjcgD/vuguOI8L3ZOWUjT6R/QWeYxqSqdRGzCZ9BczjL86dif01Ilay/LUmc2L/WJ6QTS+gMJNg5Htiur3HN9iUrvPAozr4qewiww8ytxS17HqJG8ZzeEQ3aYYQUkOMi7+Cdt3vB/wDNWzs0q+JRWpyFp0l+EayRoPSfsjeMj8RTuQ1UO4ZlsOmGL0jfFai3rvkw0+Os8lNMed8Sf/3EJxNOOixZIkhrw/Yv52lxLQQ336nq/55DULyrFtGAwi4Go3cj58KM0v1Nc5F7fc3TDqoIOL8zDS4DPf95UZBXv6V2zOyR+y184xci9twa1GAVMJqXai/Fc2Iq90df9NQ+qhXn0KUYSzUp8yHPqNZrkkeTyU5/wC7PncDR6ESy2GFXh5bqUY4Pny1q+OACCwYdJiO38uSPo503/HYmm2+uzPJDRMtPEhP9aBEK1REvwV0gCA0p+Ak7Uhr4oep7Ur94SfrZM6Ijw5LpXI0H+jwsi498r7TXN7RHlACIYiRz/4oSK2yxOBnI8TRKXTRVI3lGfiOsNWLp8NVl0itRastTCY34SH5pq36FzwgUBtdXEZo190TNANi5veVnFuA0gS+Kq/fTS59iwaMVcr3ysrh2eFMmglBn/YFFAJb49gQIU+Y+DKlr9cEIXijvKGjT2FbAT6RBaHcdgipTCJwurZJXRtudoEFxBf1pfKmueuqj3BSEf1BN/iENF6rfHfei8PEv1iQ5ujLbZ7sQBfXgp8B1XXv8Gi0enaDNwT+tYxHYj2cF5It8mL+4dXoE1jA9rSMSMYiZIetj38ZILCYN3iVCG0vxvAyZYDp647spm3n72QeCB4pqBvc13V0MnMzZmqW6qZeT4XkWqDLQ6OBnjo3jgUK+/iYZfnP3o4GOmU0C0MtKuRITNa7wXfbnINPn+xjfCN7hAyOf8eF2JVZ6w6Tcq5/id2Q4AjtJYN5efJsVLCjeaff0FW/pbImvxVznUnAEkC2Ki+lpUxV75XxVJUrGiIN3TsL+mwAK5DhrxGP0ZqjifJSgOrlmI9b/0twPT3jXgdAiJ9qxPv/T00KaSXupeONaSh7ZngJzVariOM7UYH3AKEZkIGsqs2vC+PiyphJTn47DoGVG2fkjPxGTYcJXi5J0u45JIvL4ZWEAK3qAnpb7KSaVIfRAfRDNZrhHp/Ws2oO3H4uB8G8tC6cpP8wQn/p1XfN7MnjSqoQltYLzf0NYPwyWKJwFZh4xoX3MZ300waBqfYwn4P5NGLf5pA1NTh3DhgKBpoNSPFScMUl02jyev+w3/ApSyVhKIcQ58hRgLmKOCJStkouxx8V9YUswZj1GqD5lwd7zTmET92A8IgZkhaiChxbQWneJn/PiJE4DQ38ZeRejf+M/YZ4U3D2ogvDtsI70ZW641a1sCQkT53KOEJor66SkwDkknoc/bRKnbS2XN3aTBWsFTkKMl2wcZXuzpVecEwAy4Bily72QfdcsIRo76WTkfMOUqFjfDKINlUAZ8FrBRz//0BeP0+c1yNWd8B7ySy931QylDPaul/LA4G744+X2KLCNmfCD7U6w5CqgoKttNgdAksASPvEFq2qy+gdegDv+K4DgvHp8p/tOSPOwkyYR6Jk0Hz7BUXsZAzS7m2DNgCaoz/nmu8GHVGY9PcKTb0nJpBx/xdLSzfXPujVbiDUDaOgfHh0oDRCCVUYEk/SJFb4f6a9V/zZ7yk4ASnLcAAPykTkE6jUwpv99kS/sZJcRV6fYnDjryav8eAaKuSie/mc7abof0V90Wj62rrH4FZhvawkcyaEZfi1cYEvfJMiIKFVj4WY4K3WUnzrmGNL2ElbbS1OOuO/kBJk7uYjKgMZ11U0iMi59KBN3fY9tjtIsjpJMucw3JmSomUa2B+j7Ttk0Yzk1y43PkzzERQN3Qxg/yvsVzZQNeQsWXU0Qn5Wn8+nsecGuX+BtietJrtliu0ptIGrpZU+5DO0J61j4SMw7nbDtPR6BI3ycA5VuTD1vxmBDRfMVsqofHgV5ez6iTjKKixiHKRzINMXjov2nfVIwR1Jg//wQc7UCIvXaJE2eoHadh6Dq74VzR0inl9iCQOcW1MXhS0iqprRZStbkR38a7epCzPaDbHQOg+stxiki1F0rVmySnTIJRmUpFYlWS+AxvNZ4yDcMRaCmwcR2+eAuXcM/6iXq6yFhlQsWpmujzCL+5srKWUO6PGldX1qapt0NDZBB7bRrAamawzhO1iwcZFpw+GxGFKwmtt860rajtDCTQtjR6BGhbfXsnBZFeJxo+W2y5Ux0m3Yp7cWMnqPhQYTBm0gCaTgVMSm7e+ZUjKCLnY0jC+TAQNx+EZnJ2znbKxc4V4qBex7CHh02iP8kN2TAcVs79NtPf95/0nGdk1MpwwjqllY4LeIODxP+CGjmCgguWdDB4xm32J7luuwVU6ha0aMwX0ZqYThpEkrES0f5EzKB7JK7j4boC3oQ8OxGfceackcIouKVYJYcAh0YxzZmR5JCiTeSl1fujU72BgM9AObRCLb2G2rbGy5/o26iuUFh5I4Bqmz/JPUXp8eCzaegIvDa5PtFodDIZ2oy3SsGEZDaN5ZweeNTwLE3osz+MeGIywjK7xCVZFBelBT1e4kGBXDUPamgHY/drYdUzQxLb84Z8yJrjOxOiOHBGwjfan1/fyY/tSFKqfTWvqEEXaky05uR73dXEjj+s2UYtaJiie9yvKUQnn7+9UFqRl9otWGCE2GuT9Y78PLnzkjnexxhUCnFnRBRNW+g/t3y5kmBfDW7DY1Yuwjhbe/YIV3VSqEaI6hwzhehVTv6gPliw7zEJ6ofGQkeTKCVtOBEt/UhlwI2uMp6Mo+2rD19nwI+iW/5YH4im3aCENVyJ/QmV309vpPevRl2rB/oiq1sPbUk6sq+Sw1EFVLLybb7AbfHq/X3Vr7nyaYEY5TWiW4Un7iltdnYi7cjYF3yLyoyKM1y9eu2fp0n4AVGPnPW3AfWffTdzOoa1iN1iRQ0yii0qJPn0OjGyqGOVU/7areIMOOBaMUglsTaF7u3f36/z+yO2x/wYE/cSL2LbJiIOPr20Uy5cyN/ZbkYQByhPZ+Q6zOsK6CUAuSQFKMXvLP/J1a2rzoGyTtVhskH22D3lGOBG0Izb1BUBaqbwE6d75EFA4gSEae+QAB4l3fZEU2L1R6du5FRHnoex7vJpwc+2L8UdbmESYbx2AzOBZ1A98awxQxYjQTzFQuuA7znE9I27Unr41JKJFE5KHTqaWI7DHoGU+HS4iOzrHp23u/vJ6McE0TX9YXDGIoQ+GtFzIMQPOLrP/QAxjiXKXHbim3XBiwuxbk77h09r6E4pYACPYA0faDDJgyfPsh94W1ZquQ5Yqs/xtT0ZYZ/R09ed/f3g0zKrNT8amf3GzQomc/IDMVnnO5V5Ywxg1T702a83lbRvsHtkvJK9WqvGJwccnZRpZG9T9uMv9vxNRkE/r4XOn4GhkNVLmVQ6EeqjpS8lFbl8tkMQCUyh0KwCb343yZKqfUzpoeHXfHDV2tpks5wJSCrS4Pwj0XW4bQc4zvGKLljOhZZ0uuR2g3drsOBEu87qCAB9Aja+Ppi8+2XRfleZrEIL3AgO4+OBi8gbq/pfnIlH9XhChUqxnAISYV7Qi7Wamvg0IkqOfd04WC9Nxgx1rI3MiyB1/gJZUOn2zEhiBKXWw2uHCfrBUKTghkmXUqk2b1eHt8+F9wmwkUjEVM0+NpnKHO4X5XjuRig3D0IW3Z1JOTMhgEJODxfYuIhz5KzvPHHX+f2R22P+DAoAgwPetw0vssVbCnJ6VEoHa5OlimLdqXQX6GJNJZ1+mqj7ncYAnUC3QeCjyciwnuhBXLcW5wKbF7WD6NXNuYuiX5uMKp7R/7VltJrYKBy6wuqim7uErMtPc5tnPR4eOVrWdsrUSMz+6MK22a2dLa98EfqRnCaVyURArJ3f6TBLxT/LgmD7uq5Fb1v8QJp7TIdaA7oCeq/Ghvck4+GsGUb73yzk9Txxyq6zfE07vvvPXFLE41dUlthNR0x57yV5X7h2TlUnnHLfJAxmpzGBiopf4KV5GllLbfMippvQD5FPv0OS9zwFlzW/429YibuKjCoupRe8QAjyhn+ieemVjXFP8akcjkDLoqCwrDwvkTFmydcZ0vni/PQGxr+4J6WR4y9A7koC5TTambNu6CLd9go57EqFabOkQ9s3N/KAl1RdttxjtTQ1sYNF/ItzYJomZ8dyfUWQCeQgnAsPzLVCxPeg8OYo4puM+FIntRcCg2cFW8iWq8nYvpcxA/zZIXqn8SCIsnBDDxb2OIGr2hnAmEQAjq2iWPBGB/ZJsO7WpCL0Exe6SQcVA3rpfHKlor4AvqgHQjCekexTW4WWF9nCNszrKT3jQy+B4vdSTWtx+TB0pdIOSTOqJpar1aW8XwRAa0yv7nO3y4HalcpPlazLmwVJo87s+XD32+jdmhABWvF6+OtFSG+5jbWHcaZ7uzlo34O6Yw6sqp/4LeJxp4Vl2By6RvllNbBr5spa6Hi8lJU/8sfQLYJb0zLCtIc13Kixopk6NbiIk9rpFwXjHNr7IW82maZxbnjGr1dBvmPuwhIzSDfngJ3sfZpIEwMoiQBSLus8wLgEDMCcW3v1zUCj9IEm4QvZiXTww+VTvQExfQxYWjLUO1CHmOn+5omspy7LXx/N3UXhke1gY3lBhkm0wFmFAHaTaTibNsCVgHG5JtR02+HEZFc22aguI3IV+ADCsHvGjgmguB1g8hoOUvZtjow8ybmjTpn5gpub35Gp+eOuAFNmbBjryZipBkLRCZprEAcSWo4dDvx0n68q8ifBxurJH8ANTgTQS02ZMuk93DW1BaV+msdO5TbwJDY8Nm8jDeYMYSR3OtLbWoeViwlbR3AJj2RVybziTU0H2mFtI4vitND4G5eFlJNEbU3Ol97NOxLuOkZ+zCFQYHiYWLPKrvemKz2LYVYkGuhKpjnUZhuz6OBxhdN6WvxPPeFoP7kttOLa6idwTM/uVlIEVCvKnDW3jjI2te8Kz/uBpTRb9OPMhO34F4/T5zXI1Z3wHvJLL3fVDKUM9q6X8sDgbvjj5fYosI2Z8IPtTrDkKqCgq202B0CSwBI+8QWrarL6B16AO/4rgOC8enyn+05I87CTJhHomTQfPsFRexkDNLubYM2AJqjP+ea7wYdUZj09wpNvScmkHH/F0tLN9c+6NVuINQNo6B8eHSgNEIJVRgST9IkVvh/pr1X/NnvKTgBKctwAA/KROQTqNTCm/32RL+xklxFXp9icOOvJq/x4Boq5KJ7+Zztpuh/RX3RaPrausfgVmG9rCRzJoRl+LVxgS98kyIgoVWPhZjgrdZSfOuYY0vYSVttLU4647+QEmTu5iMqAxnXVTSIyLn0oE3d9j22O0iyOkky5zDcmZKiWDP73swBSWeA5TOslo+d3qqMKeXUcOzX7f3BjnGdXNwRK50lpSHjajG2XyqJWJnVXlVdzUIMasGwiyjle1W/IxTIz4qNQCGbcgMv4zh03bdcdrGcoD8OP8L+QQRnY34ms0wapl9DqTbT+AGXjlD8NBzk2D62d8y52pXJ+doREKjL2Vsr6zgJnwgIkJJI38NUgJUs+ENbINXPIsUgdtWTrSmk258U4CLm2ZG4HlwSXm9tn4cvIv12RW9XD92wSlFOTxYQN91/QnqXdXL/mrT17U9CuTlaDdKxsrW0nsYtbVPzg0QZ0/xUeTFMORm8fgV5fdFgL7cUiII/kKQhK4HQypt1ieyxcT1TquW0ozdnNq+YiosBVrbl7MoLt8SGw9q7snYew+WqIQrkteZhsYq4siipmWkjUwZxF7uNm2vQQGlsAF5XjOY5jj5NOmRvBHMXGhG/bDUeU/f2rK+eMiJM/wFAB77pDTBXz9cNDdWJ1xWFJN9D7dsDIGdSij8J0eaXyG/PAnmw/ynM69et/ZrE61fL/mTyitjh0V7mRrjBq5T//Et0uCTy4/EjWjdTWd2y6KdL8Kz43VRCFgByv6DaupORV9B4PkCBTdu/3uv8FWVwOuiuvTPXW+PnurA651pDgW6mYPVWVFWHZQX/58xKu69GqwqJ1cfzc0NbN9FjdKX9Vb8uSyQ0ugcOPPxU7VRxOuva4LTIAIxXFAMOf9WzDCV8TkB60Vr15mAdwzNy7YHYyOy6MjTBWNvEIBpbA6HqzpuGYpNr6/TQOGyqwUiF9n58iWPpkPqf+jIt6MX4gA5LwhPWFjvxmUu07Xkob9ResfzoKEDwtvZoairNNh4xNr+qRiy+IpLkfO7mApaS6XiLAIG0KykKkhqt186auzkZnLkiI/rBKLvHYT2xpwXviZV//oQe0i7Sh/5x/9ez//f//ATZOT8TFfJX+oQVns4jN8D9LMMRmj2ubzHl99prAEVZwjcKfJwDfbQKMuTx9Gjts3ygQd63B/F1yqNx3jG+npuO/B9RybPMvmj0FtKK3QLSso7jFiCsk/Px+NsTbV1DkrnVfbblrNiUOg7kDsZwzF1kAnfgj3QQhcLSn1HrslsMOkRn/4L+l7bkJ3KVgBHHrG7FzYFzQu8frulvOikHeG9pIgwFQKhuylu6cyPjcK9GrxEq0P38ED98k3BRn6JEY+Y/AavTeAdnwOH/wJg2W8cM02oL0VlEtDfXzroRFBhDH9mnWagOaOwPpsr6+CLHqqe/kRltefbO3QMDat9Hime5lEGIWMCbRsW+e3fNJy2Eu5kvcAbIk23ku8IIZLeKbspPXezJ9cfbVrNXeC/DtOLLUDYcfMtJokhLVOBojX2K9x6OVNZnzanBbbQT3J9HjPeSn6k4IXyp5cjDbZYPlcDeNFvJLHRv7pWVlprN36UjcwLsAFD6qGubduXgq+ui/XxqwIx9nVi5dmTaOnZtk37QnP96rnj7rFxYJ1zljAC42b7RTQv3CDYW/+Ze0Js4og01Qu9c3EdAQkqejHmxQasnDByjLOhSLXm+QqpWfH0XZAwXEpXp/bQstI/42bgPn8JIDwmJGBY8mSKagBXLHgcYApQV2m37ZwLMjT7ua0arUPnzuJlOYWpJ7Ifv07IGOhbgOT43Xr0bLiSrwWLf7TSDPPj4aNJMs0ACtWriy6AGb+Gs4bBUpnbGu4Tg0y80QW+omXa1BU6DP/KtBP7rfPKxqDSLJsHOPxhOfY55lpo5N+oQv/LgrK6Mof7crAp/JxaTxubheE7S7YqpeKQc/iOl7hmrFhDpspfeGH4jU2OaXPm4ysLjvS44PUVd0vQrjA17NW8a14xxv+YA5ZhAWS1mBm2kBaoHSsKaLm/SqKCddQRWlBXiF2yqER1M2vZr3KjjDh/kJQG2wiEqXk5Myy6Pi9A7Ir46GRaLHzyZEXPZPFLPn9H4MYnjIKLQU+WXTLfv0fJh5lsx/ZHfMCyh7KyH7F3abwvyWwy8TGWPKHn/KSE5bsvhT811LRrYXdGpDCExunAFD8XmRHfO4BlLfNqtMjgnQF5BIguLyEXMBseIqcL8eQ4BKpv49kvZVSt01C4UhFEVYHi048+aG0bGbsoAOrN3nY2s9Lx6fjLHUddhe+4TtZh2ajPXhICs76hQ9mGJZqSulxHj4WP6EcTT0TLUNVocx+xp6qtXHeBAjVUG6bFvktcxfSjraN9Gr3tYUXDvduFcwU266ak0UdlqoHcSEt73f/hEL7m317ErG+DGBAAwxrPwFfl/PzSLhI7TY48p6QFM+3SVbgdlUJf7lhQSaBKCqMg1n4qIVjpsOIp+c05opdxHvMCuou/zkrtB2cLCfiNlL5AwAzGr3QrRSbMgYfMoZUG9MM+2oDMWIV7xPcv3I0SqZASu6wGO55yBrp0P1hI02uyH9NTskY5e7rgoHyP2GRXPwFqwdnAbJEIBY5hLhElZyvXUjfi0L6jZ52QyLxikDZ1hTraysw1tmweQfVPygOgGshDOo5jeVdS4/1ADfAG1MxhDqL6wvwSBLTPYpAzlP/2KyfZFCLznu7e2tq7YfmkmNwnhG+7inYEen32oGwSk+wQEAZpJFwnWmq/EnOXoW6A5ZxFsaETVWZosZfxKZwTiXWpsbcOM6zIF5fNtLBVwoZaCGnD0+AA244YeKTmaPGEGH/QzSRgL24ckiSrVPdTUZzA81LAuc9TshtU5AfJ6Ydv4KsrgddFdemeut8fPdWB1zrWnCx1nVdgMOeTRtk2/nzEq7r0arConVx/NzQ1s30WN0pf1Vvy5LJDS6Bw48/FTtVHE669rgtMgAjFcUAw5/1bMMJXxOQHrRWvXmYB3DM3LtgdjI7LoyNMFY28QgGlsDoerOm4Zik2vr9NA4bKrBSIX2fnyJY+mQ+p/6Mi3oxfiADkvCE9YWO/GZS7TteShv1F6x/OgoQPC29mhqKs02HjE2v6pGLL4hiTjk8ZWLe4o7s9D0sMDcEpwchaLquiuSHdWwffkFUyu18aHYT2xpwXviZV//oQe0i7Sh/5x/9ez//f//ATZOT8TFfJX+oQVns4jN8D9LMMRmj2ubzHl99prAEVZxyXP2Rhs7oIPvgcoGqqcl64rGyvNTbp8BO69N6qvaePP6AZiWoiNo1QG6X2m6POOeIUqNFBeYDdp9CBIqJrH5nsktVqWWeLKyAtjsXol4s/DT3BDGobL1IXQWmLg0Q1+A/w51Pto6bTPeJUuAqSW3BcLXgh7fGf6KMaSTTdFE/M0YZnP4IzBzDWOXPf/lMLS0h0ff3a8mOBHXTntGz+B5IIxkujxhDMWgQt/Lfr0smwgjBxZ7o1LUwkcLk+8Ce8fBkzphM3PHfEQ22k/XWmdCNOGy40Js9krzMbFKz3CEVlBiwzZkTHyx8WSbL0+GP0uQCrfoEI4ix4aqBuAUPEvXOuiquimBMdu0SJBvA8zNxhon4Jdby2pFLwmqdmAtiPj/IWmJu5dh3PUsZsC9dUpmca8ODjtaMEfFPjqpfIFJj5nuHi6Ym82dtggdsf4pfFqHgeMSFp7LoQOyS0zhHuFCSPI4W/X5DFJetIpQde/vO7uxI4gN7L6W6f6a3V14E17+rmCYjPAZC1YmHLK+6JMlUypQAuy6GpOUMRGTtsZRX/+SvvZEHOCPdBvxA/MWKmGrnwMfnzEdAdGA2OvrccvJlT0UHcuve8cmqsHGA1lqie3zhTzijcKmknP3y4djz+W7De8Ab/JnYUiCJQt1K/6zAAScPDke5jagb7lSaD5/MK+xreLF7xN2sMQ+3rmguCH+gOoxEcTa56JZSnK9cXpFQvnB7sIc10eTt17xAW6hRPG/ZHplaPtpcoDdqVs6jh5sW60hCqQMwbrTRGLqTUo6HfrJfmQVFc+mltkS9OSxfPfzFe9JhXhvKRHohj+2MUcmj8u6hI6SBEoJhAvR0iYVxljKqLdqvxoD2du6HcsXj6a2VUbJYePm0oMrxwwDAY6W+gcsaPnc6ThHpOVZ6v9QCCpi6VCDY2Dd6ldbwHYK6s2S1vR4g7m6At3/7+GB89k0t7u8CMaODr/q3u5YQPcAMHQO38xh4mqaXp6+jtXibtYVYl1m2duZ/nmxngv4uUuRi1MCzebcs9aeJWNYicglrsFPUi0+vdgnS38B7rIMPs3PYj7E74bKtH3eRXVlxfo3VZujQ/Skm0WikJYHrBy59nUjwlluZ3qHJtJ6V8kz02G8zxWti+H5qG4B52ZfYSiFH1Ev5nDoKYMoHbdOzxIeTxY++mpvP18N4s4rKY+IxdEL69bra68LiavMqk6249gdJgTI4Bdj2ldlAdrcH23KALTMCU4HlLU0rs30sfsyJ0vgY5f55nE2SbrxF1BpJLDI2eBAdcmD0ghGmGO4OsXiD/bAfk03hPzNqNQjPdtPEtLpbIXrh/+5KjGQhaft5dnMaN8eNS59mXsnFK282yhnlUJCl7jduFmBNmqusadYTzLggi2chDTcvbo4ZOv415Msd3Gafve95jq0tAyA9itc1VFgTZ7bzEngK1ovO7i6iGpK0asGF4QWnx7RAmnTk/5Oiy/i/08pbfE2/m1ixaNhCoVBmBFIS7JDNE7fF1RHhGmLmGOXuXzpd3rMLT3AcGMUAVpkLuuAwWp59A1WJJUzJbI2nAO3jBWLcJmX78hLuh7znbLVzHkrGY6unYKqBHaIXQJV7+WtTIVDSmSBhS04kpIjlfNf7oKoHrX/t3z+I6W9VVmDuZ3sSrcTaTlLCjvbmn+one9zMrwYJX8nJVUZWevRBx+EhTJCzoStg22u12/vD1c8E4ruTT/nqi1rzUnn3kTDFX1bxX7IU1SZpix/SNrV8iUJ7P1UXJlomMGeIiWCdV5IATDSqbx5IodmgLzGBbBlgAjCcT2iNfypmSJmIcKjpUKQkDDoMQQMEGOLPTqZI9xc4lV+XxMrtHC7leVD9HZE46waG4w/YcycHBRAF/j1DAsPq1uz0wAeniQQknQcd+uIR6TfmF+b9KhWf5m5KbaHHWLx/Pqmb3UdcRlNRX9dDLR8cuDZ2pgrpYRol0zPqGEWKcOzxPGzNZ5880HOLFb0QjUu9N9PbOnWDGsIGO/fowVgmfZ590wKyxTNTVYaolFGHuXdnDFnf0gLlGRPst9BDxJSg6BZqACt8V0vu9j3iV6uxHjMFhe9BQDWmpKTnBnMByij0lv984OyWEYa///1juyRb3/L2ET9KdGocAQXEzjJdovIpObTFs9+v6HsuIjUE+C0WIjPsgYn9ZcHetb8NP2ecrkBRjErc9skz1hEzhENiNwQG4XcH1T6uLDUifMz8kBvZBL+qgULkKyfX986uoNG+/QFcHOSWPFtTkEKKrAu3LpkXZMYMSD+pe4iQvN0xYdWWguqlz1AWSrAywVmvo9Ys40XNswAHFr8JIrdIYMDF+xqdyA+oFrWUVN7taMEfFPjqpfIFJj5nuHi6Ym82dtggdsf4pfFqHgeMSFp7LoQOyS0zhHuFCSPI4W/X5DFJetIpQde/vO7uxI4gN7L6W6f6a3V14E17+rmCYjPAZC01WEDvMqquRGrUoAXZdDUnKGIjJ22Mor//JX3siDnBHug34gfmLFTDVz4GUReJEDml7YRgPZq55/wGuGKJtPvHJqrBxgNZaont84U84o3CppGG3YsJBNXCVb6nTbmDu3+gCPdVJh/dlWADQuscc1Al9S6EvQP9QGaWIP777U9eiNkZW6f6GHNcJUCMEeT+iPRhOsX0/CwgdC6r5f5BnshW2Bi0aM3U/gyCPWf58dM2pQbKWR/dUaJz9wfg8yQCWBIWQWQ/douLnE6gXslImORcaus3aVXtEtlP+3h87GDTAfZyF5TpWSivGl/RjUUIP1Y/HR294fMNwWVNT+w8B9afrfN2bd+y4TjFH7qBgIlsOUTP8MwHOJG3VlrxEiAgobb3kPPluv0+YD/zdJUZjS1edIzz6iFjNnTJbC6bKyNI/CHdaFtiw5WXAXHEVFqjZwrq8O9vinm3o938DN1B2HN/C8613WvO4hDkrpOfHHgduWsJ/Dfp/SkuztgnseZH7U5H8DO991t+ZT7DdVMmXJoHUZP1ALBH16noq9m2fY+tbYIa2jR+OzUHEflyQP21ioEiF3WmNMdMa9qp+ZwiU3QaMKg1LY2eIyQJEw3i9RcKQ9G6mdtooiv6Bakx9lKw9a3N0bXXiiw24+LXvXCuEGsXEiIc7LcMgZl5atTtR3yeTPOSW/PGiGN3fWd1yKUYUP4EVsV0lSRLEmtAXgB8RUT/+CIOzwuP/hmxdjU2nYQJjbOi/BsmJab+amA64a3TxHeIffpxJfp8UrKNPUuKsyurqs5jDggDjvytsPquOspwGB5v4Ol0CBIZP2tmjMewro68q8wB9PqFbzcJBrtcl5KSZ388dW3fPh7eGzT+SSMT5e1RhHE5vSMDcbl2TjFzgx3dUKKPOGa/ChL9AQWNBFtrNekbAh7fErIO+DOsb0300Hmeo5HQBbDHPgwn4cooqo43MZVp2ys0EuKXYgx0SQfFAuygrhKiiaPL9Jv1Ymzavx1ZZvl5VWIr8aQXkGHWa9nvWwnTfj18W9XGe2CvvHvjEP9nVM1IWRCacLdBjYTYgcrbtm8SqiCPJc2lW6d2pCu1N3JzZNjjWCtbNCfa1z8FcXmvD3bhdy+tTc5LZ+l/f9FnGe2xv5WnGIrlhVtvy2q06u1XHA4r1ekNd1D0uvmofgEcOZH4qDsyOO0FtFmvHvfdyiNLjX3scd2ofVDMhZmGd0sugDo9dpMiSo2uhrSmRFXZ/2P5ulMsSKZXECOsT37P+umH2n5FJpqQkDHVegmR0Va6pXJFKgtu6sodN8lPVg6+CEGM0KeK5BjHJ0XN9ME9wV28YIMplwOofjuTvtVJZ5duTbxuBC+6H2i4GgxrCm1JWtwsgw/MClFGN3qZc1T6MjQNclaU3uynOh3ZKlFYNCOX3/kVQK7R76L/esnAhwkwet1je2FLwsQ2xh/6tds9yxJxJtg30PhOsRfhuTYruShA2vaHZCJSuU9zsD3wjoZC3aZvULDnBlP9GTbV2J0zuIRJNJdYJsyMYjrSiJjgCbKrUkx/FEFrPl2AQPskmt0OgeW5QnG/YAZ6gCzIVdVOeMQzR3y0qcZpxT6XL9lxV9w8FA9v7upl0ybZtxIsxlJ+zKkigR0jUlowd9BvOKvq1vpq/bw7y36t7CpmmIs5lyYF5EpzrHBg66YzuA8aNxuYYU0nc3muKps8s7vMgiOoIK6Ns4rwsJHeokaoPeeTLC62j4uhiID+v/Ec7B9aCKcRoxLVcNWQizWlX/DyJmDZeFbTTHd1DZ+FuRCsdfwV7hK2RdT/XTs+aIZPmdLYmQmyyauLcN8JzYbmZwx7WE7O1XHltgADUXrgnM2r2h3qgGTwN1k46nDW0Ej0Fk4ckfZ/gbX4oImjhJzDhQ0fERKV4Uk8prkxwqE6pB5B++nOG/pcO87fHPWwgbtQ4X20miiXaUKYnHHMst7o+b1SjdIadUYPxdH7OZ8QT5YJYSyjtffZXWh6xCFVlBhOkMoE/Fnt2/ZPs8V2PhpUyUfl2Rbf789NO/mmoNJOFNVEUA+IKFdA5wunzKpLwu5QYMuvDTBE0BPp7ErMJxMT8ktpF9dhrpGCiXo+a3iM3bb9C7+qT9sT/TvsK1AFMhGpgmBDhWHIPJ0WkO0jERCINQQELSXB8lBJdP70PF5seWYAbXtW4W6ZkObttIWMTgMMqxnDkcBnluckQVZULy7fA4OxPTTOdyHo2Q5lUGZI5m8D2TYL+lD+V8E/sSkLPE2dblDPmUyiLe1pfG2I+kmetaKmZkcjEgRGBtJEe+VM/zle4t+s72EUmAXr61sT6zPSeXEwaIJd2rYXAvLgmOOopaaZqwalCUBq1ojqkd9IyAvn015os72a5bseBT0/DE/oy8Gru25CRQu2E2H8o/bGDKIwdL8+aPLfUwbA/QYRf6x5lXzdu9iSWY98H94wA/v41/6XFmno796JwiX4MJJNt6SV89fJDN5LDMx15liTR2ejHgBT9Jy+03j4ADozdH92ujdy/Oap9Ms1TBNHO2o/IuDJ9eJLzxSqA7i4FhkfqzFM1cWriQijEqLkZ4U1xVXBLUm+2M06slOlYOkP/HWNoiOIql6vMXk8e36vO+ra8pWDB4xAAESsSePSVUaU/lzr9ooeiubEVe7cnxQ1qhBFRMhVSnzUYieuYubcCAEEWmxFr5QOGe/5OicWuF+goh3rbSWx+4MVvCthkrUe/HfuSZs3pY9ra1oRxrfeZF9gKfk+ptFMYXi4EvqGmmM2ToGPGt94Fn7LyRRKs4tH2rRKJKwpsYlak+3pTXYvUSLvw88xDTO5xfppPm3enrNi/oiUNRRgdWl79RP4Shy0cYhg3VvREQ5UesEzWd7Abxi+BadyXaO+CMOE5TumCk/WswOiFEMkzvMut5UiQWX6Y/gqQMkQ7NZ0uN+gliuCCaKsxFkWqfp2/I3Op29dHDHPiREtlxgN0Z+O+NROxkR8UoL9w5fUbnsodNZJSz0vg/48ddOOfkjATkxuZIpQjplnPJuT1ECIuFMJ34ezJhE/OHoB145Ig9py+pJum9zqUAY7MG3f9TTWpRr0TsZA3wXKvKUDNUATgxBY0XMeKsHxoDmp3Pn49YdHEdu3yn5JeGDt4z2mwd4zvWXap74/27IYU88Zzv66JH1j1MH4nYPUVvCqBqZpeAwLvkSKEnk/3HOrEcUFSm/csy6zJ4a8hH+A6Hhez9Y6ra3dka8NawCDFSyU2DC/tt1KdmcDU9dKV1X6bPvXMM8t8jbIy3OXOMHK3MnxaWhojEr0YZe3G2E0dD/KQjn6DZuMS20HQjv7mszqz1ZOpA4AtSE2Xx+uIQijEqL1ExjpI6DxEhBR+jP6gNZIjYPzY00HhaF41Aukip2wfsbyzoKpevcTxoDPDtWKTE2tYQ7Xc+PpNg3Uv/yz3vsiBTIBbfnWsk1eimW6AD6k37yX5FNv9SKOZfhrzIPS92ym58N91MYXi4FKv2vgkWbltxvVvERPCX3ATTUePXZObhxSIgd+C5y7ff6ZC5zYZtAEdz3xDJScXKF1HqI9TbbDTtok3jtL1wFXxnaik5pn8aDlzfVFEgsHsiHtB+7ijZMSOCnLDFfijiKefHJLCxvGnqXFWZXV1WcxhwQBx35W2H1XHWU4DA9E70NylkxYmR2mtscuZ73AiYtpUQtonsuPMAfB/FT0pAHH4QUUEFtSv8X8Qa8ABL2qMI4nN6RgbjcuycYucGO7qhRR5wzX4UJfoCCxoIttZr0jYEPb4lZB3wZ1jem+mg8z1HI6ALYY58GE/DlFFVHG5jKtO2VmglxS7EGOiSD4oF2UFcJUUTR5fpN+rE2bV+OrLN8vKqxFfjSC8gw6zXs962E6b8evpwOISG8/M3GODYbzd5qGFkQmnC3QY2E2IHK27ZvEqogjyXNpVundqQrtTdyc2TY41grWzQn2tc/BXF5rw924XcvrU3KlU0q8u8wfyAxULDo+bmdC6X9amOu6jwL42SACXbBaiYMD7UER+0oJYXdyI3hjFEgvUQy+lMQQP/+54BBa0EnD+JefsuYhOp1IPpzzKUYg7fphkbAhdM3a7F3ud6rT9unxcPeNiyjQBq7HlwUPmvsvapXBAQbIwi+hcAqxDWmYvyl9iV33MfxYzL1dnK8LUuTuz4z/FMgnOfciEVSGU/0FpmwJX1CML/WRfW15aqizurHPTWc1CCX42IeNinNGBc0yvBJzaJr0nXsy7mLm1/AHFeoTJ+Vrl80Gw5qV1mRACVJ5lh4PpUxlvH6QoLjsrMYxbN4kWiHBGS1bDUTY4dzH+i6aoRxvujBstzR2Dfijj8gjQrrWIYiGeYcoakLLY6jOy+vLLq4zQ1Blb7db2nuKBeUQhb/C1+LccmxMNwjo74Ol8oOF4asos7uNQf6vJ9F/Y1y7VJiLwHPFKPYXO/bNuVqzPmXV3RNmfxH+qiHGI+6cKoy9L3cto4tZ23BhIBLJxx5lj/EaDS+pZGpDwjtagqYeG3qqYeB+VJ8sBONiOX8kUuEcehzGEZ5XtUEpZNQp3+uhXiQhVZtoneCdpJVFFHXUid7wRndKOGEaTQgbt/lMr6M7GDkFIXpbtrPzDYYC9t8tL23FqyAdxtrkWdFUHuUru4EHBHVXUi02dCsahFL0jT7bLn9if85orx+H7erIIyTf7vsBvbesCVCnIsg8ttyQr5z7yBu9KvytNmPEn7wxI8a6LjcIUu7lqL2LYuhyoSJHp3A6yzEXXzUFnozeDyZP6NwNk7+5kDjwvu/CKZXcVt5gYu9YMNftYs63BhNfYC8hCeqmuSmrSofYdVs6jOzCYsACwlRKA3C+rvj6bhSGGQmoBvIB1t62WJDE+FARz4AGxJLOqaJZPp2DsiT+pinBmByKlIv0AiVxOgqldy9sQnXlZwXYP2eqCVVaX2nY/x391LnGyY27rf4xooMbzALjBd/n6xUGALdD12EWSEFE570ZHCVsm8IEM6XxpYVRmZL/Q8V5E+sjWc5NfJefjXARHhIBD+Xk8P392rShSH+Hgb1aQ9FUKYkxN7plL2CFxM+J94nTL6L/9ZwZCE8ntJo0n6+UvCjcgQBlGjMcUkvsti/ZXUFxXJOemtX9nOHJqc50dzS/cFOOtvzzIE6i2JFRBgEqcM1VjhJJdpEUL7pTmXCgqAwgHYMmKZZuZD6F1u5MV9Nr8SqYXu/utmRgJG4bUXBkbwPe6arYjnGJ9LXUHEh3eFN2kpjelCn2uryzqBQceGbVlKXrQI/uKx6Ze+egCHvmzsFIfVEIRkjS6YC/imjmeaKMI1usgIKrfbJNt2syMD34g9LAbdGXaCwZ4+T8JjWhS4Y1Yj/v0PXrWKIy3op42fIZFHVe9dCVu4NvGF93tfXB5IsIleVoB4hhRorVx1HTT7zClAnjEHJnn1h0xDsykNmfnI8Tkxgf/pzmss16j5sW70yXLfBVHyyZdHK4ZkiecspE7HjzyURDjwaSmSYaV795GU/e14n0ZinlHv8EriKujwLq6nwSXV1VroDNJ1O5aLwWgzNUu6rUfx4UR6HHqadQ07QIsk3ZQ3AkWj4A5bf1zZjYeIbo+ZJLlgnFFb5m21Rz17nIQEV55xHCDcKqfvE99NluYTbCX3NKN+9xj4A8YnxbibjIr/zf3BQ6f2lJN3XbBOA+NnEAvwzrICVCY5znE96Ptjodrba+Vknkmq9d7YzkYJCOL0g3zqvvsrSV2gsGePk/CY231l9TQr0L1Bt8US5yDY+sDM9kqmK1Ogcm1Pvgs7LllTSMDX5PW2jO5SNvrWB1NSNg//V+837tCpW1PwQ6NjGjmxt6RlLmAmaQvW1ZU5NUOr2r2J4yNjBxrcBTDPECMAz4dKjR+BMQdzmlwzREVFIXjEDMb4nukzUdCxp/phRzq7yod6Bgj7upn045TPKiE4dfFVqdzjYCXnY+Rslv8hRJbFVRskN2EGeTcfNwDou50nPEavmS9GDp3FEwYnUpgMrKcyE2WtVsppC//lONx3INUuPPSycjj9aHQExUveKwsRZDqWFZ66mWRKEAyPhBQ72kM5xwJzG6WY1Odj2wwBCg9eawfYC6VlRymHwF0LLclYhQUgxqprLL/lR7NiNyU1OKtm5ITKjE5dG6jPwdtMltmlFBHbE28CT0fgBfnW5/jAqG8GyDUIDtWDwWd6/Xqug/grsgL/mms30yha0ip5ffr90BRqaJXkSjzKPvvgTo0PVUo7xBOyDFbnymWwddkPCli5FqsWgsnYenMlsrekeVPs7PhQ2TrdAuEj2Ys2DFqm31tNrijn9ioVCMsGcerOCdED7fQOuwUwq0hO94IzulHDCNJoQN2/ymV9GdjByCkL0t21n5hsMBe2+Wl7bi1ZAO421yLOiqD3KV3cCDgjqrqRabOhWNQil6Rp9tlz+xP+c0V4/D9vVkEZJv932A3tvWBKhTkWQeW25IV8595A3elX5WmzHiT94YkeNdFxuEKXdy1F7FsXQ5UJEj07gdZZiLr5qCz0ZaeocZRqB/Rd74pt8g8ordy39oMF+/waSelZnvNm7FiXY1ndn73piZQ7fE90majoWNP9MKOdXeVDX09MoFVtfH/mmj20XbobJGKY/FBpYF80QNCcZbsBbGIcl9eYctEzEqrg4QuD0leqCobQFlsyx26XNYgcOPshYWqbBDoUBmEdC0L93GKCYgAAAAAAAAAAAAAAAAAAAAAAAAAAAAAAAAAAAAjf3iiKW8DZg2eZDWsGfjqnApXVXQcTGVDqVE8eRcC2Biuv00W+D/DFdIHb80Kpzb2HIJCrgdy68BfNxqrjBgNPQu26UdfpKDnxlx+w72FHa9aQBb+8HxzFZFsO0y0WLZ+pQkscwBM8E1v78mbLVy6CaOUBeDTDqa1OwPf5ojhPxIFzgu5ID+ArmGcCAjmXPv5M61hK2cmH3w4Daj2MMP3hAWcwxo8qh6zcHdbDsb05FnynXTvMRC6zFfslHqINXPWJ3+v0M5aBW8o9FNZodGrd+ZFPtZGk6yBEKX9bw7h5iV2wR+A+/sW4qk9pQvkL09J7JzJyZaSddOsvgeauOISopIhH+1ptI04A6/1UkUjeJMPmKzn6ld4Yz2fqUxV/oBWAYa2OMa0kP4CuYZwICOZc+/kzrWErZyYffDgNqPYww/eEBZzDGjyqHrNwd1sOxvTkWfKddO8xELrMV+yUeog1c9Ynf6/QzloFbyj0U1mh0at35kU+1kaTrIEQpf1vDuHmJXbBH4D7+xbiqT2lC+QvT0nsnMnJlpJ106y+B5q44hKikiEf7Wm0jTgAAAAAVVR8ChNCoFCj/jcdQOU2ulIbuiLpInaAqnFxkZV78iM/9El5ZA+/f35HKYVtoPbWzaMxGKxNqHnHXJoiqYk0XWCSvWS/qFnzBTaqaX5TsuqIQkdWjfHzP5lkKDWyhGqUMPfdt72O5m3pI73wt/IFB24E9ryLArJrCXlbVxIgX6+VtucTFyAS2qBYraO/iH0paDEaJ1fmF7pW749kFRLKlHp09TBhQE1+GRwumtkHgNiVmjkdXsmLajnGOeLp9G+ZzKaHyuEoCeOSQugitU1LtiTMiO1HtKL+ZDjHK5XB+Jer47GEr0Qje1nBgLN6mtvPg9USySo2ROP9LGf+zCMSOhStVatFVuls43RylZs/nJ5/Np80C2psNyzr/G07v+GdTevw0zVUiTuUOwi082LiAiYiNj2CAF4hBatPqzFs6H2yaAWAdyeA55ixwSSTKHbdh7VFR+3hkHlqWj8A4xV/sVQLdoNJqQtCA1FEpSgG8jg/HxZGAgskU7oUTzQDW0ENDLeByfgO9dy2ziIH7JtJ4xaN6fIvHHplGqAMrtSV3tYBxjXwUzOP1ZE26uoFqQAAAHH+QT2j9iz3OsFTGquUWMXHLkFouAePcEt9ReI/675G/03qo8oRzPxQoP+XDdkiHuq49kmshXI0ZJa/8F+goSWX5rYCsZqbJQpR7B7ngJpbAucahPK6JJUakWOmkkX8VbGQ2VSMD/zHH9HQAnnuf3J5pJ84vY8IUyneljlE9nBR0A2sWdF/k9dNPGogdIoxNEkqAGUSAUT6RnG1iSk6YBpc7aiMtxPSKakYp6XvIrfdFcXzySHl4xF4p45Nvb0T71aTpv46ZHRFN+xpurvj8nJ/DWxv+Js0b4COOGucryyh+IyA5GpvKEcRv0KzIigs6IMnQtCZJ0LVJNQdsU4zvinGkv6vn0w4JbQmF47hvoBUuzCrU2Qfpt7SsHdeI40knsvfIKxm5KrZJfG+zsZ7jv0P3qwY7/BZce2lPLffB551cW+ff0aUl20K9c1xKpfRLS2JVGCNVJ0+EPyQKbiDUwoSk/5ctNcktgKVcr5/SonINOn7CKkf16UGfnNdnY/8yU1virmUWtQHD3kcGRRFQNrt9ESH2SNG2+z5KvoiLgqbD5o6ncFw3UyjcSSIfai4qpdcRRO3IFyBbt3+HSLaYTQdJoY+6t6iqcbRNA8qNDiH6SoGTXadwsMVzHdTY/TY2uXSFRWlAfl3MejepjG/V+3655+ZWPD+mpfd/jLWOPoI9KM40hxWeiLjcjR2ufwh4RrR/seahHtLIDC+Hasv00+ICi7wfVVTLDJzG82nNDBhFc9vxaqrrnisj/fGbBvRIkqsImCbe9zqxiBRdPqmfaLyuj+OKTYS5OaMzfq1N+c9dUk7MMz4e+YuMIDuJ43IBT/vNVqUMdLkC+HI62sDLNQZMvegIGtGgedYFwPNVdppWB7OC84kRPwSvjCkzEom589M1ks2B0gje4jSttTlB12gVqCmB/yXWzqKv4CYAVTnyqubbKA1Zhf90cA7T8PCV2hC5/JxwGf3Y1AqkaWzIPfd22uVTnHXpZhLfyfHV8iktvK3cPARMMq60gdmaBCZ2WVmdaeWt2K438mYE0Q7OoKWK1LiwMjxeGjU3lCMQ7SMg4cHTSZ8CcSvMY33HE002lJxoagOLBm3Pu1oGU3zglfL4JWqgltE+2U6ZaZgCrY7RSgLpsM9Bs7+qzBFnSicwB5x5o/vFFwG2snubMs6Q7/S2Yy81FX58rxtFP6xdk3xO1X/tq+DrwzZ4PzU7wSS/wqrnAHv0UPF0/EUyeQaKZxJwJ2E8F1cxZHKz3UoxqM17uu2jkyeY6MbL9US+Wmp1Xso1YWub0ckOfk5pa9oWhbwc6psaSe9EoryEY2tUj0hTte1cxQTZ1Wa8HhrxIjyeBW1txq4FLfXGKs+UQJ57n/tFQ2O+bqP9vbGK9fdbH/aiEEquNb5lAtOYhqCCLne9aYx1IxHyPIeI+N1UUbYs4Ao7egqc32iMtxPSKakYp6X1Ze4vgX8zgKwbhW2Bb+oAxyFFv9b2ZklwDP9ptTYkJ5/frnOH7zUMeI0eJ4c5frALDVzilG1eg8bC8ODuRHE/0+5wOeqbnErTUYCzc//zJuGzmvkqrSaIwxt5Mh4+odK1egdSIuyKA+jfKO8Py/LyEF7D7Ip61nKHVCMy7Rpx1+X5Ibg76JZsivwqgeRo4q1MiWDKsONQR/WA4YOitN1dcLK2OGw0TloP7ObAqaJ4MvMzWxS63I3KVkrkLWw99tMv/QLmI2+WE75zS8WXeStcfiEfWsbjTt3wdj36Oo1FRZJbJnebBQMa/xgvyFmOswdQlIkQdbh8NwVeRFpVqLAUzjB8WYW/Y9WV3Ukjxn4b5csKD7HWgUhemBCflQX24QDarNj3XPl3O8Q9I7IdZX6Wys2K0Y/retTOAmUbKUOO5QkBlX2xxUl3p7+9OatQHGx6Hqvxi+CpRw8oq5Nwca9cI6Xo8sHNrbunvBX4rnOulSbESowWOB33xSfUkdNeL7eX1AIhnMURaAPmHjceX1NDeuurAVA1ek0NfQjD3PwCIz28oWqEVBCkQr/SMHkLS1HI5AhzK2LnxtKdfXbJO2huTipFXJvK+UX+ue0Nxl92GGyR6gV9jT5M4Uw8E9fNCe3zglK7EBRypwiLKbUTMuzMYA8ABLrgJ6Tqb0nt9hUWPGFpmcl7+u633ak+7i4ZN6jQN6os25BPXOSvtyYTDPl7X+zunB+FSfxCSSNvATNz+TOuK1DYXyL5gI5U5bX9dEUlJ0FftMV6U/t+yMyzUSTmSdizuCXBdxi0qsRA0NQQzm8jOn76Sy4inc4WgNGwFwPT1dfsllunlVInUhM9LYzyVIO+Xmr1QviR+6NBWvBp2b+Ch9Z1eKgakZTNUhAXimQFrrh1Izrh9hPPEn3reIEJF9IsqJACn0j3bt5fsR+ozKoDhOyNqY8nnu2uXF4Isq34xT5iPtC+XIF8VF6l8KRCwsmDuG/FiK1mAkv4qJTYT9eti1CT137GNu5NUWgSp9nzjqINcrQM1BmIuT1pHHKQVS7cFcPxubQ2sO7oq4UU9SdFJYTNV6K4TimCrJuBUaPGUQWVTuFqKywSPr80oVLt0YuGOwU+6BQ5GSAf1eNhKvgnwAM5if1RyWVr7439KoohAsd3cP2f6LzSu9kEh9nz7W5uUZb9SwAPtnlK6aFNUHZYvLA33a8goUYdByQBIm+BoOD9bhuRFEV6kqDK1kNb6uKwSjGImPs+prwMqrkcoCws2Oo5CWbQrwmU+yynxTsUBS4rHLo7gjKTw/GPq8YOt+a8xc/lksJ9V3dB7fnD8cMwRfewGBLId85MCbF9kgePzlq7awEAtFt48wsW/jQmKr+wTQQe9IUt3XsDe4kbjt8Iyw/zs4FgABLbit7RIb81n7fZO9ZbwiakZolpQ4bLRdYJc8By2ZFZUSKSPD9ZH3eYIeI4pZwtiRKGfGvkFIvd5fvUgawaCfPhHbDqOySVhqW64ZykzC+cqQNIn82q7dB1XmJnQGyMM5aOT8VgpIDX3PUT76wZmglnWX3kr9mLTB72sKfq1fxFYw16Nie9FR5J/qdMIzI4CnXEn/uisx4ivpNTYQHeyOAZ56CTwerXxcrO4ezGlOOQJK1SFtPKMJDirSHYLi5y2D0v8qpntD94PBrFqZE8ezLHEGcSiSauzgOD9mSUQHK8YHxijLpfJAZ+HlLjFOLrCdg5Z+6Th5wD/Q9ik8QjFZkQcn8v/h3l7DKySRGUJ+M7FgJCP3GAJpALkT5GhkGLaBPtWv6Jo3ohPZK6eJQzY1iCu6S1iwA43t2jN5l0EGLVuVdFJVSfYU9poCbv5EqgU1zjRlOuAWF9edPvFfmUWtAQ54xh6I8mDD7+O6QiHv7Wyolt4UQlDg1bzXU/Z58b2dMAS2wKU6mhtxArts8knaSNmhJvT6AedCKir34Kpb7c3SSAaWbWhPPfQKzSxngcq6U76pjN+QwbSiME+kqPRqIoupQmDt0Z95z2pu4PgI2cF9HevBEVPYG6SVmMVj+JTWUWbwisZMTPlMWy+aYyXi3hXEqEcQeZqyOkOlLfJR2XT88WxAgG4VNKyG5nuN/31YTK3O1ibIaxzsi4G9V0OCGQFrtLuI2/oMDHZuP00DYNyxFJwAfZ0NyKAENDhugB2kLJKYkBpn8EX9YexO0+2ZB9MLPOGac+tpcfPjY75+fIKXYnvqhlNtLX8RZFvxpax9Rc8ej1KgVrmeJyQIMwGB3M+edWDE2Juz/GUUaP4DiPc3GnlHIOWGYXwRw0H57zFl6ltCS1V4Yo08tscGQaBZNk2vpShx9Nl50fHDlB1SBCktp0Aq8i/dkN8L9dvUCtvlMJ7puMD5yVaNsNoDr53n7ImTt+2t3YjRyw1VSiEPUxzaAd6SubEHwziuLoM73RcE1+gDw2cGYiSnSr3rLMmSmjZYa5eVnHYxVskKHiaq1wV7RD6mF3ZVSkZs7IZSWWNPlZjaYWAWQ5G+ZilNd4FpDrpcxJjXX5zXTjGyuxI30i8Xb71AcMi7/dDa6+KExJp1x46li8rP1sA36ga4n9MtgGBHnF11Ef5vH+Kv6d3V1mA8OULFcn/qzhDyx1boE1RusfBLdQC3LVRKTahBy9IB5LxbNgipA2e5wgdN3Cntg1IWpFdsOtcdbXBg9Padul4iVkyyyi0yIWdH/f8rsrJpo9sXILfaBuVht5jJAy7enkpvHHpG7rko6Af5XAYDei8LIOfUAB5N7Wbi97bgR45/V13JXCDpYcR4/6OTF1sejf7NvkXacqjSTLq7EwfmpdqIDKLs0qBGnUadLpIqg94WGGN4jP087ZEc50IsHVyg/U8a5adXsRDv56an/tYroyMh9t4Q+M3u56MHQhkZT0gApkvT6Rb2F/H+Z3ZJNMaW8wFo9Gl3tmDfVP/YXHtIhbT7+b4WuCmRjlYfV14gvSVPwJDEUiJ0M8fjhMdJ9wdZMtGAyH1YFy2oxh+kMfuPPoilisDrSmrBR4E6VNuw6OiWbFr4Xl5fQdw+l4dfsG/8r23pbOBGE7UGJmKhDLtxjkSMp+796PfiVojZepu4aaje5jbhePyW6c/2gW/qcjh1LmxNkbV5a4DBUXzWmUBBiQX6QoAdICxoD8LZeTs055+WOknphm4jZOR85u0UODZfTQnrBIEt/+h0htJNulc8hMyTNmOdrFPoap8W98zSafsdNAQ7JkQLjLhddxKkfb+BuhXMz/KYm/d/3HIPDr/48FP83PlTQBSHF8yQVn0creeMD1wqD7rDJpNO0twLNHY7G+WueFUbLf5WPozwUw+vr8a0OEJvOSEHnM/7OjSLpuouBIUs/6qOk2NZkeas0mJTxK0L7sQ2WPUG50bb7NSHDXZMxNzRajT5XzOMSnHXbbKxjCyTtR8nTAtSWL9n8CNEzW+4QhTmqTbcbenuybTwfabPW7mm7iYCnGKToSUB5S+6lKraRp9xwELgt73vv1y/0hQPaB8C6Qmyv5apBe3zqgmcJzdZpoxaZpPTfcvVceXXTnwG2/KpTFO5atV86whYcJogGJoq01IWqaqZLM0V6kA0cYaNcL30G1fpRFtD8AIyBdAybNTB75fe5OLQdPbDJtI2WaROX/HQoQMwRfFVKFMGrL8lnljNSusHXNqert38oJGBTB601GC0u7ib4ZA9f1UMb86x1/MwyUWRz5q4xd8Zl+VCRylL7Qr/N92pOSFX0Hy4ZZm7iIQP4D4TUsdfQj46mlHYMfu5PRtXKEk1emXm7THNdwlpqkuy3nJvoIyM6bt9syJFZJlioeLotMiGB5DEle/759zbZLOLZiFitorUPDy5SIaRA8xp6D38LV22FOTgUC0nK71UZR5t6UvNx993q6oxgAGd30OlRtnYhZpLlaOu/Hr3c0dk5nROfj2xT7GPjswUc/vTPMpS5ifa4c5nDHbbZZhoCBQOSU3A6f7as7x/X8jl1negngkd6D/NQwIWkOEQwf9BK7bVBUjvozaL0R+upjGgzsI87VOzpFAy0vBZgrmmlHrajo+MlckRUAONKe4goIbl33vRqsy8t9mEv7eLGlimhGGLrSTYzsNqtccruCJHQYc/pWhAD6T9eWC2MxejcLDxBYUrU/jNq32+gh2M+FGhijy1KA06HRhdNLGlg+wo6RP+Vkddve5GUk+3F5lPVqzXBXCtqZwHzhU1n8qh4Qomx73d6I7m/gsFYOrPWJffJc24i7r1uRzZh2aEU01zWufGP9Ml+qbLKDPZ1o5c9wPX7FbWhnbF76yRVvY0hpDS+QrTTBLlJi7jweerfruwAJjRYIPfzFLLrjne5WKFkuCpmVf3/613FfZ17oXFWaFn68WEymHpijTYg7fUqKxGxB9Vn0a5xekgIdZH/egU0sqwRpsUEiMdfO4L94USykJ+rmAJ2wGIukjZHuFDISBPDMxNGaOWiLeav5+17edaweArD5dBpuzmBUncFrOJAACS/gpPm4FyoeanKfemWy5MVKeCRvzlId28kAgNv6pJKUrPk2JxCFjiaTiJcCHNtSmdtzkjzHUZydF5vVZt+DWkKsiGeCduPpanbQfk6H1R9sEqds2E/BPGQTCBziPvhZ5T+gxqXr6JSgbvpVsq1ZooeZF3IMy4dEH88MzVEbcwC3bgiiEPdgq1u2+gm/0H89009jx9fCH4uOh3GyJSW1SQJxLJp6oQmLbXsstadw0w7i+z7kjqSsNmSfEmZF9rCFtYktOf5WkbN0a672mC9XuDrWSwauA85qjCLHmBRjPhKPvZiUuSuohmj5fMdC9ib3bd26JmRf7DZYQwi7i9i+QuOgm7Df+FFPUQ2jpu+FbltGvdk5F9yeazeyW1yP9jQZZaD5B6ZE9EAqwc7sGde26RmRE3NIIS0wunsnEtyIoqq6iPbC+NLSiNyu0a1C44/mqD29pA4WvDW1GSsYMwKInuHHYUlZZIWcCClKlAAS9YtaxgxDLhjUffDMD5xGAo3WTedNBRtVdBGxdU/kGptD7yyn8TyWuyu/+GgLKBZMhDkBuWp003mBrUcwSnNu9NPEdKbfj/WWGKnntz+l6Wa7nQgRXb/pKWuOjPafF3hXq9pkH+o+xqvgdd+4rUNOb93YZHcU1W2PiE7veb3YiE+967ki1ybTJ672ARVGJVM1vRlJNTZRkLnNz/XdO4zvkTv0S1ryylgqzLJge2F+So+5Q2TpUuU8pFXsW0/wRp0y5cgxp7e5q6AoqXhqdUrcQjnFQoOQla1n7rhPPyQduqDRSbUj4dw1SzaH1tprjR75K2O7jUk7GMjgGc1skeddVXXeMRYINGy7fqkl/SXsE7YwvU99fzaRqorIlD2KGpPAZoVwuBBhW0UuY/WDujPhbABVKmUXlRFWdSCbWmyHtBH2/51gc31sI2lJV85t97hsjkO0dtHUfyvCpTSGi1eVW00bxU9pnUSnn0qsHqBtTD+VUSUHJVwBsi0J1X7cT1O6hwiqwjXvMKGs/R/hhHtZF5MD4a7KJnpVsIyWSGwUyLzDQDAWcTkHkFBJjT/AoBeAY0cKZY5gIrblugMPZ4ZN55i1Agthf2zEkLaUYlhZWkZe6GUI/Qta9/AGKo+h4tsKvVUTH/dh4cHRJbhSu4/thOoMAOpQ1O8J1fTU0/gCfCuwAGUbAu1zyGlVodFpGao7PNMvJZMS8irJTdfLIIu0U7+V0YRQOqq+0OF3gC0+XqgqizHONh8KBV3wWj221fn1cS5h/fD7eCZC0KDSFmeXxd+8nBa4QUVWkkbowZlpXU4vFRsP/kKtxTkJTPA7CxrAxaE+F1ACGDCkR1ueQWzRE5IPy3KkVcJf8XWKD4OtRKmS9OzwBQhzermciHoxDAaaN9+vEf4YjHCpGI6F7bv3puog2LzIFb5RTRPnBY04w+BdyHewVLo7XufhwOMiAeZp2XTVdlBdOZQlUldVaxqRHbhxzSKr5KskQZpH1weaA/UMw7FRJUjUjWWqsMawe2y60M7WZ5ogKYzUuvo3wjoh9FtmjAOEtep1aGNPECUp4gfgvdmhyZ9YkjD1FVSk1hy8gb+nas6CW6zZHyGyCtV64sl5RdFpzdVxcrtKcfwfrAtoQ5F5JBCDwtOTOgSizissknDt6ANPdVnvpQhfsmVElfMEdDQdVVumwca23XPewTpQoPdYgA812XZ2VdjcAO4j9FJZyWLYkZZFwaYCKMnf6o/GAABtY6rFKQC67B//qkBHAhJrCXfqX8rq/+Gqh3/8mbyzF8DBnGkIxaxJ097WTtv6/guXmDp6eY4UMfU4U0hjV+Q1OO59xoJyui7TqIahSVvq+g3/+6a9hN4Bu97T5BtgqNTz3bGr1A0IowpkrNtR7GLH+N3hAy9u970tqXDbe+Oth+CVzPyc5J4HnEAfkzggLW7d7MvzCoY8WCDn5mAaTUXJGr08JbW2fglVD0mG1A3tFQ8RP8LgjmukB2cVogtMq9m/KdMZXLXw4dnuM0/0sPrtBSRiIqIrbnctgLBReL+1KmIU25TTWHwWjGBKds/fjV4dNWT7uYTWaLQloMft0A9H210VF6bOO1VpRDfASnLI/9iG8wa/K6jymo7qVhlxqpZCE37BSPHjMge92iNiZfr0rMhgido8tlP3acLNNGr9ITaR3PK4YycasTGKyzY3ssdtwEUjsL9RcUABz+Y1fF1HP9Ojh5pudqMCE/2Q08pitpBx/kdBivCdFYpPVj42ftn1w9yWRId6QY3OKcTlfGITpO64uw29Y2lcgG5TN8GJlqfXVwm8hAX0jnsa8TkPBkk3sNvQ4vzxe/XBx7Ni1pIxxEyIquWLSY2WHSKdkLwvVhLTn2SX6QP0xN/xkr+Uwy3y59R5UcmqNUdGmnk8cLoEDNqeweCtW4KcZVlhxl6I/9gA5IRGEhc/GETPUqK53WweTnzfJkPYwEcTtkxnYtKWiSekEHZiwtIOcZfAebV5dEYf+l1apW6jqux0t9NnUHvm34mJbPmfmLNLU0ONiwk2kzyua/+uN/CLUS3uzxf5tjVEsFFeKd4q7v5xsbrxCM0hKZLgk+4RbxibtYW0DC44PbqeEAiuoJczvK+1RcQcTQUmhuM2a+3TAbKUIR//GKoz7HY9bDS872ppebSrY0VMMEXITRzmnSGMSqukZ+nSICUFUNU77NqTwVTrT2mRf4+gVeDHR/wrgcGB8XuSN6YPnyNdM0LZrl8lRAPc7ukhVMbR5mnjC18VMRKqF1KVYTP+/XLU8svk6YMBEK02bJvIRWgh37htHr22FAGPluLbQXCn5uAkdrTpKYPnTISyjyZGHZnv1DKN7qWlgcK1fxXh3k0w75BqexG4ttWfo9j9Y6sMtI2YZ/gSAvVVxa4QuK/XDcON6WTP9c8NS7qi3i/v+6K+7Iq2Cl0jPnVAlMCELyzPK73JsH5aGYpmXeMHUC/eiDxYtAHqNx7NGKaeWakw6FHS+jo6om10Hx/e7BOkGDDcecNFNwVPI7O4qWc+NaFwn2wD32ACM8VYYn/L0GfWWu61Mn1OZTYYmMjqg673gkOnULl3ZtDomSOUAR8Me0E5B/B0Lued5vnk29966c/ukSFei1jZOIp++NfYZw/RZI/bc9TvJHed81xhP8Rt+B5ypl7Za0TkiBb2/VV1lr5RC/qJQc3iakpnnk7EAdsWwS2JU4Em6Z1/yBKkZDjHZWYlK9dY/xSDwhc0i8SAI97ZbVmS038BGAnnYJwwADQLJZAyO0wXjRFP5bEGZsPie/JiknDJDWyY4jdORnCxGxKV4J2PyY6JsoPu7krJq/YXVTQaqyH3YSxS0/IZRj3hRlhWxvfptDgQQejGBA0mV/AkWZ0XCnjhWQl0ccZWrQv0CrRbHm/Qs6DusEBpO8k9G1h2E0Wc5FAmP9jxA6SeRbApItuz19wM7q3ar8tr/glU5sq+f89WvzjRxz3Zs5xQldwXBrk3dQg65JJEV4sOOiQOmWTdnl4Sb+lJxM1vGql3yc031Z6eJSRHmXU5Dvg1FEe12KoHZQ9eyb6cVsiTnU0LvXbUn2ocfVfnllRDSkwaXcJrdB1noIHhki/AMR/Cmwthb+odafbeuBXtZH95OrHEQgsgt0rHzqpEBgg/sj+UV/sMiIBW06c2St5sr+hiD3v18bOFRFcB8qVovelpgwikqwlcBdD0Iswj224Ccx48YJlXqJb52kAcKbFsRd+a/xyaWpdCKxu9cSao3dL36kLD1litE1U+B28tDGDOZdnSM0dVWRUSUaMXsXq0AovaS1Gy8ZSC77SY/Z6ldUAJqLEXC3UApLrhfgMoAtpbJVpO858pnFolZ/fVCLy3MmcQk1NecSLyEUhLMzLUdCD0pvrM12kaX/s9kUg4xirsd37NGlaM78ni1oy5hEKiXpkOMMitZErhl6MDqZezTvePVTPxahOXZ1QSdnMhrPj/4yrmRPMncp4/8sieiHxx/GGtpDdhIf988fOu/oL7zkN/bUwr9Rot/W+J/e1AOtpAm5+X4J3emC5GrAe/Gll/hKtAhovTVo5pmneuzGO4AqcrxZJGhWiWmlDc8C7jq4IR3iyDXRtNd8knlH/4+CYdRl3jhldNNUM3gVdYWYhoP98x69oEoOu5Bfa8hFM6hlyO9fdXMJTNdVIF5NWyuVRkK/CqUwxuz8+nIkWFrSF1IYTSHfIxzQMhwc2GRgX/n0EXy4nQfgzyQHJl1KGYO76hqobPlqXwAtauRCdmoMKmMF0yOvuMTVloNOWWezNtR54nzl08baKiMvDeO9uHF0I/4ZVwseUbfTkhzWBqDIcrDXGzXpUQmcksQV9XvJ8chS3OLyV7nO9gWqMpvJ6KqYVcqh9kPnUUfTDM2Xwd4PXp3wtqCKPxxn9s+kGu9xbbFEZu+utXS1wg0T6OKfdHWVit2TC5jt/1V5z4KZ/W2ZZFNppOv/0CiFqdK7jleL2FakT0W9LX8x3NIBKEtAzbbj1hid5Ze7QnjFDMQP6raD+RMMf/sZ/DJOMLLO6VgxUilqrKjYdpxieBmPcCMqyW6EWrI0lxfH2PmMiN7iCk9/mYjaLrkza0C8x06a99mVpYqAIGZG67Y44OrPupWzBgp0zK2KQ04Wm9dE72gxx9cfpVJt+YlDl87CuFIDihJppOqskps5mARFGgi5qzz5moqUCzy1L004z4RYZFNXsjfIuofjQmUr7LAbPOKZfSMZzCq2trKxhnEW9zR98BOxUVk8ec7T1xnn92jNSTU0G0jz/M2Qz6plvgeYiGc59WoNv1lyvl/Aufx4F/jdkD2e41fdTxGyBXd0R+wuUkQkblJDIX1V/NqYJQFv9axpUIfnI95Xxclpc89OaW1V97Ygh5XUoZjWX4jWKunYKHpDef/UKbj0eAKwxBnXuYfr9BocrJJDu1Q+KNBui90m3YzZHDKNMXySRFskBORl5+eZjuf9dWdretW38l3WOyHlvl1lsexXBZzGEsGCcfai4sOghfDIhh9ucQevdlJhFoi1cLkcOnBD6k2e/6huJVhN8m1pqIQABI5g10oqiUQvupwJuKM85Wuhzb6Z6C3vPRxSNAwS7Qh560rJENVViuKitXLXS9nVGYTkNA/Y8QNuYvF0J/5M7Nw1Q9FuQuJjdTn0c2ZosUyk60hLufMXP6TX8ctuUWBZUH1OF/RSx0Ch+IZ+yo0uHQY1HT5tqiyfRxp+c8twMqb3HlkzWwclimQnIWXk/PSce2H6B8v1MXTTuj4enam862d3nj5VUCVWWrFmxFn2cHtRce0xxJdg1wqYuaf48gVYNYIQuj3W9/nt3d3EZzBLflYSct1ze7HtbW3RpgMSmpx3Og1konSlzEMXTzx1nYzpNrNr2RulVrhm3AWrOu1I8AAsMeXnksSnfpIEXwgcXFCtSVKN2ISg2BkZeK0fLCW8lyzYULa6d2YFXYgmZpawttRCFR9Huo/54rmFVhu4zbD40zZRZGqBRzVv5GQwO3ozv2y+5h473eKMquJ2IOIoqRHlKfH9gbN857MiqJdEz1tSGvUbIt225x4ZKIRctxccQaCt9tLravHFYMav/jvuVonUuL5+69nx9zjEKrJIN3PvD+xWoXBfTej9j4MXkUp/nw+JA1BtxwyrXdUAbVZLURb6f/aI7rA9TYC7S5BBzHraZSqRMbHP5bb2/5apKATgHKDHUUoYmKq4Nl6atgYZQ5VqS+miILTNEBPEnNmI6Y3J3ZA65XQJOwpUfHRMBEbMpNWaWB2ELAyew/kocVXyt0/N2ErALkNSy/QkCa+IERjujhX1hzPb/wUg0p7E4D1HqBDv8/C+tLCg0ZfZpHCbAvdpp/NDMlNXlygfBD/i2M+wMHxhC8D33RbCn07kW1AAUQdtLWr1lBJPueuAw7q51FpmZv53YWOL7KnFFhFheFzsYBftjqB+1ZYXT4TL4AHlqW3C6rWnp60EfWExVvWHfTxFLrA7OZmxoM29w/8npnmnWHyKctoVUrsprMB65hoqQgqq2I0kzZHujlsCqUGS9Hks1/tqb5ldL20Y9d6oS5peA0yNsobe1qzE+yj444C13IOASAANtsit6c6rUx66gRN70p7aitE8dytHRFXSMgbdtStCchPWbaSev3QGcNxtQk3pLY/X+MxFsnS6bA4N22onyaq8oNjf6aoZ9hOikfMa4wmPtb/JzeMjmPmBBGTjorRqwpB+FRGIoEP75II795ZgQKQuadn1GItBWZEHkUiXRMQGiUpLt8/GSrvTtTj+iC/Zw7T3sCbPM5hncWQDLYxtQNSbI1QvHtasxkHcF1bFVzreHrRqyu6VcNBlE88GLBUsbKIX+Rg73w0dP4vU15NgDr3D5TqfeqaAqJ17ZA404qCaVHWD3UPeBHMgpqpyssRO+Svi3Qd8NFGhsXJh56ppAyD6wl9NdK9VrJT4mJRY9CaHdCdgIQ5mLIEnqn9+Vbl6C4Py/nGmy8Ka+w9bT3AESRRiALnfD9iHSoWx2Ajj3Gz64J+DEGpC/wW4w0m6ThJNviDjFNiKIB+kfDGKNO8Q9JPL9yF8yy2bvTA++Wzfu5LWs2l0TDy7zeyTM+38lKNM9oCn60tYlvQqMyYWwWIFQiKcM9W3OFv8iTrmP6VVGnzKIdSSaBYG2eAIvqBHmSf969L396hM5YY5CkoizKoqbxAGLkEpsml60M3SjC+iSYVTFYHKHZKMeKbze/xawMJ64UHNhL75EY30Rmvl5fqcT5nO3Ktf3Mf+q0AHKJooxdD35OzEN6gl12IycxQBbltIr6l9Qms1cNdAuSK7s8dS7nnY8BKJwP+QqT/BxggQCQlZGsPQlJRnnuGC7VWGehVYCXBj+ViSttRqzEiVpmfBQkZ2ns0SdYb3AEDMa3UTzW9E2sdhp35NdsTBfp3WKDFq2VBqb5MXcPdyhTn9+jmn7ZKmUvfvLMCBW3Ab1YW5DHBfsbrCT+FQSB3bPwi+TYEWRHbrcUGZqDeYBTFHpZxya+jr+oWpVNeIWFgKmXOjq6pBHHvptV3Pendw+YnrSwndXXb0mGzJn+vTWohq+aokoqcTyg0vdA38vPCgZUf2KZvFE+i0W/qPMw07QAntNtxBoSpu+LABgZ8nCaLpsv9HeG7CUhXlrN/0IHWjEOIxBYERkpwbSlk0znvAm5adcg7iNtWMg3W6wIvk93hTP2PCLAAizGJHuIhhNhlW2pfA0U6+BxSIao5mGifBJkHXYzdpC0wsGdReNI9XwtduAdvDhCRVAy0/vn/bz5O17Bxk5G9HCaLIVtS3PQ34vAVr85csODEcO2qcuhmBke6OuMGwja3jcMmVEAOFAOHrQr5Wep0ZOUdoRXqwQa11hdfS/9zg9D7QdRi+Ey9Tm34o1U2WVYWURm4Tge6R4G1jz+8pGSTtCWDZ+Mz+4c2ENeEjs8lnJgEae5PgkxSQmmopbfCWyUwcbxYUfRenTbOZW9ZkSlePaIsbzadhOpRoMCPNTj6HbQUwGZzXg3Rb0bePaFIrou745pd1wYw6DtWW00EdKLbkXdoab9FW6j1essMevyxhjk43QqlbsoM4gurT5uFvfVLQ5tv5f1mqWLTjy1K443eln5ATgMYkDRmQ6agvp4CuLhuDRU+jsFoEEaJFn8PxYMiWoNdW9K6jdWrxOPg2OH0ccgPLHDi7jizl/YwxitWL+H6U2sLwmvBXCi0wQDqN6fCvwzD6T/AWd+RQY5ImGjqp2qTuWvCXdkr8GxDQhWZTZjX/YMqaREOQp7y2M65LGaGeJT75ofamLpJrpg0kePnFhdZQdzPuRfm6oI+UYPDBtQNRy7mBvScpwnfmbhxPIO8Iof7sv9SNvTbvv+dH0r4lHYnRKzSRzsiZACw1KsIITWYAlhgEE8LlxuAkvcCBvRE2U8xU34P91m0mK/bAKA5mlWtiejsL+PXB7q6te7oFEYWJ1xw3KhWHJ5ySsu7gploqFF0AsIlmQIfpHp6piIzhQEHR9A1U4LOc0NhJcI5BWQUJXeIVRfwLdPXfYv0QJ+yVQWvzT075T65A3xiy/WeQzG7Ro/Mx+I8dfujEiqLz6+FWhAL8Mf/37AuHsyIKLm+0tkayGtDn4hZx0hJzd2n9l06jWtsFdZtGF0VI4d9GdBYMryI0XJkU9rRMHbk8DPN13EneSBO0F8InVyTDwU3jpmwYW08Ot+anqzFjIxSat/zK2bziutwt7B8z3nejZtRXOAppsnEWbEI6+wfA6nwQ9Pi6rlTmiECu2A0zn4Tg6rGGAb03xXr1IcE+ZmlAYFd/5YnkRyW0k36TGwtb9RVDTAQW9rNKzN20EXqtIqbtYtLAFbw/BMQC84Umbak8OitB6vXpZE09igIf3z+lHrF6TZqCVmEthnfZNP/BxeUkW1EwwJMuN4ic2hmJTIrLnKNdE0zXVQvWH5Kt/oocwwlROuWEiXhbwWAkGvNqYDfhqerXUpokAWTdofmdx/4NA1mU3oum7OYD0RaIhpz4SnogTbSYGzYusBqkxYsEQhzsm6ME9HDMPStbe1Ls83fsrZ9Pf1jZSzzkW+QhLe8vzOdA9ghAKTv7vAkvRTuLxoTtbIuKOcKSVQfOEmejdsbSGl/+3XdKiV3cNF/rmSXaAI8McFPbYtrpcwKRvRbz5Ro07XND4/IoU/N4ZlH2p4xO5w54z6JYNagsr34dCtq5tHQ72iKFlBW73pi3NRNltUCHnPZed1RYTQ0IR2RQNxil+FJ2/jpTpaNwxa9TmNdDO1VyTK87qCxFpLkmcOOmou7AgqtS6F4J7Gtjb6UDHiUd6WXzIG4tNkngt1VdlTJm7IKhfbFGoYYy8p9KYIQvD8arJ5B9faFR90pzXZwG3daD/VEvuorzJeHr0lAnetH+E7+2UTsQ33Ct5RF+PzhQnIN11jaigF5m6Fad4UlAuiTsnVpi0N31PDf8/W3JSBuKYeAyNsyQCzsgaqKnFQYCdBE6i1OH26whAwO8WIwLcZiO6Qb+5+5dyFfUZV3HSg3uH4XFBEoAAAAEL4ur/YY44cdX6Aj3C8Xauol9EOwgAFEbAAF1JMHXwUk7RgAAAAAAAAAAAAAAAAAAAABzu9cV3/6hcz64muHhMaNDjaJBKO13H/Gt+mrSW5XXJHBSky1mJwRJFBsZcEFltJYMAQAAAAAAAAA;" vertex="1" parent="1">
          <mxGeometry x="5" width="50" height="60" as="geometry" />
        </mxCell>
        <mxCell id="uKpJREMfbgheDncflp7p-4" value="Chats de veterinarios" style="swimlane;fontStyle=0;childLayout=stackLayout;horizontal=1;startSize=26;fillColor=none;horizontalStack=0;resizeParent=1;resizeParentMax=0;resizeLast=0;collapsible=1;marginBottom=0;" vertex="1" parent="1">
          <mxGeometry x="30" y="720" width="190" height="104" as="geometry" />
        </mxCell>
        <mxCell id="uKpJREMfbgheDncflp7p-5" value="chat 1" style="text;strokeColor=none;fillColor=none;align=left;verticalAlign=top;spacingLeft=4;spacingRight=4;overflow=hidden;rotatable=0;points=[[0,0.5],[1,0.5]];portConstraint=eastwest;" vertex="1" parent="uKpJREMfbgheDncflp7p-4">
          <mxGeometry y="26" width="190" height="26" as="geometry" />
        </mxCell>
        <mxCell id="uKpJREMfbgheDncflp7p-6" value="chat 2" style="text;strokeColor=none;fillColor=none;align=left;verticalAlign=top;spacingLeft=4;spacingRight=4;overflow=hidden;rotatable=0;points=[[0,0.5],[1,0.5]];portConstraint=eastwest;" vertex="1" parent="uKpJREMfbgheDncflp7p-4">
          <mxGeometry y="52" width="190" height="26" as="geometry" />
        </mxCell>
        <mxCell id="uKpJREMfbgheDncflp7p-7" value="chat 3" style="text;strokeColor=none;fillColor=none;align=left;verticalAlign=top;spacingLeft=4;spacingRight=4;overflow=hidden;rotatable=0;points=[[0,0.5],[1,0.5]];portConstraint=eastwest;" vertex="1" parent="uKpJREMfbgheDncflp7p-4">
          <mxGeometry y="78" width="190" height="26" as="geometry" />
        </mxCell>
        <mxCell id="uKpJREMfbgheDncflp7p-17" value="" style="shape=rect;fillColor=#FFFFFF;strokeColor=#eeeeee;shadow=0;" vertex="1" parent="1">
          <mxGeometry y="1090" width="1240" height="70" as="geometry" />
        </mxCell>
        <mxCell id="uKpJREMfbgheDncflp7p-22" value="First slide" style="html=1;shadow=0;dashed=0;strokeColor=none;strokeWidth=1;fillColor=#777777;fontColor=#555555;whiteSpace=wrap;align=center;verticalAlign=middle;fontStyle=0;fontSize=40;" vertex="1" parent="1">
          <mxGeometry y="60" width="1239" height="300" as="geometry" />
        </mxCell>
        <mxCell id="uKpJREMfbgheDncflp7p-23" value="" style="html=1;verticalLabelPosition=bottom;labelBackgroundColor=#ffffff;verticalAlign=top;shadow=0;dashed=0;strokeWidth=4;shape=mxgraph.ios7.misc.more;strokeColor=#a0a0a0;fillColor=#FFC165;gradientColor=#FFFF99;" vertex="1" parent="uKpJREMfbgheDncflp7p-22">
          <mxGeometry x="1" y="0.5" width="7" height="14" relative="1" as="geometry">
            <mxPoint x="-50" y="-7" as="offset" />
          </mxGeometry>
        </mxCell>
        <mxCell id="uKpJREMfbgheDncflp7p-24" value="" style="flipH=1;html=1;verticalLabelPosition=bottom;labelBackgroundColor=#ffffff;verticalAlign=top;shadow=0;dashed=0;strokeWidth=4;shape=mxgraph.ios7.misc.more;strokeColor=#a0a0a0;fillColor=#FFC165;gradientColor=#FFFF99;" vertex="1" parent="uKpJREMfbgheDncflp7p-22">
          <mxGeometry y="0.5" width="7" height="14" relative="1" as="geometry">
            <mxPoint x="43" y="-7" as="offset" />
          </mxGeometry>
        </mxCell>
        <mxCell id="uKpJREMfbgheDncflp7p-25" value="" style="html=1;shadow=0;strokeColor=none;fillColor=#ffffff;" vertex="1" parent="uKpJREMfbgheDncflp7p-22">
          <mxGeometry x="0.5" y="1" width="30" height="4" relative="1" as="geometry">
            <mxPoint x="-50" y="-20" as="offset" />
          </mxGeometry>
        </mxCell>
        <mxCell id="uKpJREMfbgheDncflp7p-26" value="" style="html=1;shadow=0;strokeColor=none;fillColor=#BBBBBB;" vertex="1" parent="uKpJREMfbgheDncflp7p-22">
          <mxGeometry x="0.5" y="1" width="30" height="4" relative="1" as="geometry">
            <mxPoint x="-15" y="-20" as="offset" />
          </mxGeometry>
        </mxCell>
        <mxCell id="uKpJREMfbgheDncflp7p-27" value="" style="html=1;shadow=0;strokeColor=none;fillColor=#BBBBBB;" vertex="1" parent="uKpJREMfbgheDncflp7p-22">
          <mxGeometry x="0.5" y="1" width="30" height="4" relative="1" as="geometry">
            <mxPoint x="20" y="-20" as="offset" />
          </mxGeometry>
        </mxCell>
        <mxCell id="K6XgrrVtK3mDi8RKVAya-1" value="" style="html=1;shadow=0;dashed=0;shape=mxgraph.bootstrap.rrect;rSize=5;strokeColor=#ED9410;html=1;whiteSpace=wrap;fillColor=#B36E07;fontColor=#ffffff;verticalAlign=bottom;align=left;spacing=20;spacingBottom=0;fontSize=14;" parent="1" vertex="1">
          <mxGeometry x="20" y="370" width="250" height="180" as="geometry" />
        </mxCell>
        <mxCell id="K6XgrrVtK3mDi8RKVAya-2" value="Clasificacion de salud" style="html=1;shadow=0;dashed=0;shape=mxgraph.bootstrap.topButton;rSize=5;perimeter=none;whiteSpace=wrap;fillColor=#ED9410;strokeColor=#2B8D40;fontColor=#ffffff;resizeWidth=1;fontSize=18;align=left;spacing=20;" parent="K6XgrrVtK3mDi8RKVAya-1" vertex="1">
          <mxGeometry width="250" height="50" relative="1" as="geometry" />
        </mxCell>
        <mxCell id="K6XgrrVtK3mDi8RKVAya-6" value="El estado de la salud de la mascota&amp;nbsp;" style="text;html=1;align=center;verticalAlign=middle;resizable=0;points=[];autosize=1;strokeColor=none;fillColor=none;fontSize=13;fontColor=#FFFFFF;" parent="K6XgrrVtK3mDi8RKVAya-1" vertex="1">
          <mxGeometry x="13.157894736842106" y="60" width="230" height="30" as="geometry" />
        </mxCell>
        <mxCell id="K6XgrrVtK3mDi8RKVAya-7" value="Es de:" style="text;html=1;align=center;verticalAlign=middle;resizable=0;points=[];autosize=1;strokeColor=none;fillColor=none;fontSize=13;fontColor=#FFFFFF;" parent="K6XgrrVtK3mDi8RKVAya-1" vertex="1">
          <mxGeometry x="13.157894736842106" y="85" width="60" height="30" as="geometry" />
        </mxCell>
        <mxCell id="K6XgrrVtK3mDi8RKVAya-8" value="&lt;font style=&quot;font-size: 28px;&quot;&gt;A&lt;/font&gt;" style="text;html=1;strokeColor=none;fillColor=none;align=center;verticalAlign=middle;whiteSpace=wrap;rounded=0;fontSize=13;fontColor=#FFFFFF;" parent="K6XgrrVtK3mDi8RKVAya-1" vertex="1">
          <mxGeometry x="92.10526315789474" y="90" width="78.94736842105263" height="30" as="geometry" />
        </mxCell>
        <mxCell id="uKpJREMfbgheDncflp7p-28" value="" style="html=1;verticalLabelPosition=bottom;align=center;labelBackgroundColor=#ffffff;verticalAlign=top;strokeWidth=2;strokeColor=#0080F0;shadow=0;dashed=0;shape=mxgraph.ios7.icons.alarm_clock;fillColor=#FFC165;gradientColor=#FFFF99;" vertex="1" parent="1">
          <mxGeometry x="1180" y="15" width="27" height="30" as="geometry" />
        </mxCell>
        <mxCell id="uKpJREMfbgheDncflp7p-29" value="" style="ellipse;whiteSpace=wrap;html=1;aspect=fixed;strokeColor=#ED9410;fillColor=#FFC165;gradientColor=#FFFF99;" vertex="1" parent="1">
          <mxGeometry x="1085" y="10" width="40" height="40" as="geometry" />
        </mxCell>
      </root>
    </mxGraphModel>
  </diagram>
</mxfile>
